<svg id="eb90a554-1e64-40f6-8a28-466a494128da" data-name="Layer 1" xmlns="http://www.w3.org/2000/svg" viewBox="0 0 210 210"><defs><style>.b17a6182-a1b4-42eb-9b2f-eb4d9710088d,.bbddd5a5-7460-448a-a208-7dd8e3166b79{stroke:#231f20;stroke-miterlimit:10;}.b17a6182-a1b4-42eb-9b2f-eb4d9710088d{fill:#fff200;}</style></defs><polygon class="bbddd5a5-7460-448a-a208-7dd8e3166b79" points="132.75 105.72 125.2 105.72 117.66 105.72 114.77 180.68 125.2 180.68 135.64 180.68 132.75 105.72"/><polygon class="bbddd5a5-7460-448a-a208-7dd8e3166b79" points="91.72 73.04 65.43 73.04 78.58 48.02 91.72 73.04"/><polygon class="bbddd5a5-7460-448a-a208-7dd8e3166b79" points="65.43 44.19 91.72 44.19 78.58 19.17 65.43 44.19"/><polygon class="bbddd5a5-7460-448a-a208-7dd8e3166b79" points="112.05 46.11 138.35 46.11 125.2 21.09 112.05 46.11"/><polygon class="bbddd5a5-7460-448a-a208-7dd8e3166b79" points="112.05 74.96 138.35 74.96 125.2 49.94 112.05 74.96"/><rect class="b17a6182-a1b4-42eb-9b2f-eb4d9710088d" x="70.53" y="81.55" width="13.96" height="109.28"/><rect class="bbddd5a5-7460-448a-a208-7dd8e3166b79" x="70.53" y="81.55" width="13.96" height="54.64"/><path class="b17a6182-a1b4-42eb-9b2f-eb4d9710088d" d="M150.7,178.4q-25.5-15.74-51,0v12.43h51Z"/></svg>