<svg id="e69d3bac-2760-4cac-806e-04d4b6d7a5f1" data-name="Layer 1" xmlns="http://www.w3.org/2000/svg" viewBox="0 0 210 210"><defs><style>.be3379c6-e148-494c-893d-d09078c6526d{fill:#fff200;}.a127bced-7fa8-4be1-8c96-40b52eb16d1d,.be3379c6-e148-494c-893d-d09078c6526d{stroke:#231f20;stroke-miterlimit:10;}</style></defs><polygon class="be3379c6-e148-494c-893d-d09078c6526d" points="132.75 105.72 125.2 105.72 117.66 105.72 114.77 180.68 125.2 180.68 135.64 180.68 132.75 105.72"/><polygon class="a127bced-7fa8-4be1-8c96-40b52eb16d1d" points="65.43 48.02 91.72 48.02 78.58 73.04 65.43 48.02"/><polygon class="a127bced-7fa8-4be1-8c96-40b52eb16d1d" points="91.72 19.17 65.43 19.17 78.58 44.19 91.72 19.17"/><polygon class="a127bced-7fa8-4be1-8c96-40b52eb16d1d" points="138.35 21.09 112.05 21.09 125.2 46.11 138.35 21.09"/><polygon class="a127bced-7fa8-4be1-8c96-40b52eb16d1d" points="138.35 49.94 112.05 49.94 125.2 74.96 138.35 49.94"/><rect class="a127bced-7fa8-4be1-8c96-40b52eb16d1d" x="70.53" y="81.55" width="13.96" height="109.28"/><rect class="be3379c6-e148-494c-893d-d09078c6526d" x="70.53" y="81.55" width="13.96" height="54.64"/><path class="a127bced-7fa8-4be1-8c96-40b52eb16d1d" d="M150.7,178.4q-25.5-15.74-51,0v12.43h51Z"/></svg>