<svg xmlns="http://www.w3.org/2000/svg" xmlns:xlink="http://www.w3.org/1999/xlink" viewBox="0 0 210 210"><defs><style>.a,.c{fill:#231f20;}.a,.b,.e,.f{stroke:#231f20;stroke-miterlimit:10;}.d{clip-path:url(#a);}.e{fill:#fff200;}.f{fill:none;}.g{clip-path:url(#b);}</style><clipPath id="a"><rect class="a" x="70.53" y="81.55" width="13.96" height="109.28"/></clipPath><clipPath id="b"><path class="b" d="M132.77,171.07l-1.93-65.41h-13l-1.74,65.49C105.7,173.11,99.7,178,99.7,178v12.81h51V178.35A44.31,44.31,0,0,0,132.77,171.07Z"/></clipPath></defs><rect class="c" x="70.53" y="81.55" width="13.96" height="109.28"/><g class="d"><rect class="e" x="69.51" y="112.36" width="16" height="43.67"/></g><rect class="f" x="70.53" y="81.55" width="13.96" height="109.28"/><path d="M132.77,171.07l-1.93-65.41h-13l-1.74,65.49C105.7,173.11,99.7,178,99.7,178v12.81h51V178.35A44.31,44.31,0,0,0,132.77,171.07Z"/><g class="g"><path class="e" d="M113.2,145.58h24v27.07s-3.57-2.56-12-2.56-12,2.56-12,2.56Z"/></g><path class="f" d="M132.77,171.07l-1.93-65.41h-13l-1.74,65.49C105.7,173.11,99.7,178,99.7,178v12.81h51V178.35A44.31,44.31,0,0,0,132.77,171.07Z"/><polygon class="b" points="91.72 48.02 65.43 48.02 78.58 73.04 91.72 48.02"/><polygon class="b" points="65.43 44.19 91.72 44.19 78.58 19.17 65.43 44.19"/><polygon class="b" points="138.35 49.94 112.05 49.94 125.2 74.96 138.35 49.94"/><polygon class="b" points="112.05 46.11 138.35 46.11 125.2 21.09 112.05 46.11"/></svg>