<svg id="a267c88e-af9e-487f-8a67-5abf60de358c" data-name="Layer 1" xmlns="http://www.w3.org/2000/svg" viewBox="0 0 210 210"><defs><style>.a37e6c77-8790-46dd-9e60-8ee67402b1d4,.a88039f6-fb58-4538-be7c-1af7c556b177{stroke:#231f20;stroke-miterlimit:10;}.a37e6c77-8790-46dd-9e60-8ee67402b1d4{fill:#fff200;}</style></defs><polygon class="a88039f6-fb58-4538-be7c-1af7c556b177" points="132.75 105.72 125.2 105.72 117.66 105.72 114.77 180.68 125.2 180.68 135.64 180.68 132.75 105.72"/><polygon class="a88039f6-fb58-4538-be7c-1af7c556b177" points="91.72 73.04 65.43 73.04 78.58 48.02 91.72 73.04"/><polygon class="a88039f6-fb58-4538-be7c-1af7c556b177" points="91.72 19.17 65.43 19.17 78.58 44.19 91.72 19.17"/><polygon class="a88039f6-fb58-4538-be7c-1af7c556b177" points="138.35 21.09 112.05 21.09 125.2 46.11 138.35 21.09"/><polygon class="a88039f6-fb58-4538-be7c-1af7c556b177" points="112.05 75.3 138.35 75.3 125.2 50.28 112.05 75.3"/><rect class="a37e6c77-8790-46dd-9e60-8ee67402b1d4" x="70.53" y="81.55" width="13.96" height="109.28"/><rect class="a88039f6-fb58-4538-be7c-1af7c556b177" x="70.53" y="116.79" width="13.96" height="38.81"/><path class="a37e6c77-8790-46dd-9e60-8ee67402b1d4" d="M150.7,178.4q-25.5-15.74-51,0v12.43h51Z"/><polygon class="a37e6c77-8790-46dd-9e60-8ee67402b1d4" points="116.33 140.12 134.07 140.12 132.75 105.72 117.66 105.72 116.33 140.12"/></svg>