<svg id="fea1c283-f48c-4e69-95a3-7ed686e4c20c" data-name="Layer 1" xmlns="http://www.w3.org/2000/svg" viewBox="0 0 210 210"><defs><style>.ae80ecc3-959f-427c-94b0-db026e52900a{fill:#fff200;}.ae80ecc3-959f-427c-94b0-db026e52900a,.bf1b4c8c-0a72-425e-a042-99be82ffdaf4{stroke:#231f20;stroke-miterlimit:10;}</style></defs><polygon class="ae80ecc3-959f-427c-94b0-db026e52900a" points="132.75 105.72 125.2 105.72 117.66 105.72 114.77 180.68 125.2 180.68 135.64 180.68 132.75 105.72"/><polygon class="bf1b4c8c-0a72-425e-a042-99be82ffdaf4" points="65.43 48.02 91.72 48.02 78.58 73.04 65.43 48.02"/><polygon class="bf1b4c8c-0a72-425e-a042-99be82ffdaf4" points="65.43 44.19 91.72 44.19 78.58 19.17 65.43 44.19"/><polygon class="bf1b4c8c-0a72-425e-a042-99be82ffdaf4" points="112.05 46.11 138.35 46.11 125.2 21.09 112.05 46.11"/><polygon class="bf1b4c8c-0a72-425e-a042-99be82ffdaf4" points="138.35 50.28 112.05 50.28 125.2 75.3 138.35 50.28"/><rect class="bf1b4c8c-0a72-425e-a042-99be82ffdaf4" x="70.53" y="81.55" width="13.96" height="109.28"/><rect class="ae80ecc3-959f-427c-94b0-db026e52900a" x="70.53" y="116.79" width="13.96" height="38.81"/><path class="bf1b4c8c-0a72-425e-a042-99be82ffdaf4" d="M150.7,178.4q-25.5-15.74-51,0v12.43h51Z"/><polygon class="bf1b4c8c-0a72-425e-a042-99be82ffdaf4" points="116.33 140.12 134.07 140.12 132.75 105.72 117.66 105.72 116.33 140.12"/></svg>