<svg id="a5f28272-93c9-4ced-b6a1-4b5a63de56b7" data-name="Layer 1" xmlns="http://www.w3.org/2000/svg" viewBox="0 0 210 210"><defs><style>.e90748be-c2bb-45a0-95bf-789603204dc4{fill:#ed1c24;}.b0c2de25-a7aa-4b5c-bfe9-4f822cd911e8,.e90748be-c2bb-45a0-95bf-789603204dc4{stroke:#231f20;stroke-miterlimit:10;}</style></defs><polygon class="e90748be-c2bb-45a0-95bf-789603204dc4" points="132.75 105.72 125.2 105.72 117.66 105.72 114.77 180.68 125.2 180.68 135.64 180.68 132.75 105.72"/><rect class="e90748be-c2bb-45a0-95bf-789603204dc4" x="70.53" y="81.55" width="13.96" height="109.28"/><rect class="b0c2de25-a7aa-4b5c-bfe9-4f822cd911e8" x="70.53" y="81.55" width="13.96" height="21.02"/><rect class="b0c2de25-a7aa-4b5c-bfe9-4f822cd911e8" x="70.53" y="125.58" width="13.96" height="21.21"/><rect class="b0c2de25-a7aa-4b5c-bfe9-4f822cd911e8" x="70.53" y="170.53" width="13.96" height="20.3"/><path class="b0c2de25-a7aa-4b5c-bfe9-4f822cd911e8" d="M150.7,178.4q-25.5-15.74-51,0v12.43h51Z"/><polygon class="b0c2de25-a7aa-4b5c-bfe9-4f822cd911e8" points="116.33 140.12 134.07 140.12 132.75 105.72 117.66 105.72 116.33 140.12"/><circle class="b0c2de25-a7aa-4b5c-bfe9-4f822cd911e8" cx="78.58" cy="60.53" r="13.15"/><circle class="b0c2de25-a7aa-4b5c-bfe9-4f822cd911e8" cx="78.58" cy="31.68" r="13.15"/><circle class="b0c2de25-a7aa-4b5c-bfe9-4f822cd911e8" cx="125.2" cy="33.6" r="13.15"/><circle class="b0c2de25-a7aa-4b5c-bfe9-4f822cd911e8" cx="125.2" cy="62.79" r="13.15"/></svg>