<svg id="b09f2633-3ca6-483e-a04d-5842e1e4aad7" data-name="Layer 1" xmlns="http://www.w3.org/2000/svg" xmlns:xlink="http://www.w3.org/1999/xlink" viewBox="0 0 210 210"><defs><style>.b8a9c549-d890-4c38-9b35-cf8a2fc092b8,.ef8b65a3-b312-49dc-bdf0-fc07637809d9{fill:#086db6;}.aa31c4df-3d2b-41e3-ad21-f0c617b96684,.b3cf3e13-4f1e-4249-a736-e495c74e2338,.b8a9c549-d890-4c38-9b35-cf8a2fc092b8{stroke:#231f20;stroke-miterlimit:10;}.a8151e8a-617f-462e-a34e-106089e1aca6,.aa31c4df-3d2b-41e3-ad21-f0c617b96684{fill:#fdb716;}.e55c379e-a3a8-49ac-ae73-0b6ba41a87e4{clip-path:url(#b7543eeb-b646-4d44-92ca-345c91434f5f);}.b3cf3e13-4f1e-4249-a736-e495c74e2338{fill:none;}</style><clipPath id="b7543eeb-b646-4d44-92ca-345c91434f5f"><path class="b8a9c549-d890-4c38-9b35-cf8a2fc092b8" d="M152.09,178.4q-25.5-15.74-51,0v12.43h51Z"/></clipPath></defs><polygon class="b8a9c549-d890-4c38-9b35-cf8a2fc092b8" points="134.13 105.72 126.59 105.72 124.2 105.72 119.04 105.72 116.15 180.68 126.59 180.68 137.02 180.68 134.13 105.72"/><rect class="aa31c4df-3d2b-41e3-ad21-f0c617b96684" x="71.92" y="81.55" width="13.96" height="109.28"/><rect class="b8a9c549-d890-4c38-9b35-cf8a2fc092b8" x="71.92" y="81.55" width="6.98" height="109.28"/><path class="ef8b65a3-b312-49dc-bdf0-fc07637809d9" d="M152.09,178.4q-25.5-15.74-51,0v12.43h51Z"/><g class="e55c379e-a3a8-49ac-ae73-0b6ba41a87e4"><path class="a8151e8a-617f-462e-a34e-106089e1aca6" d="M106.63,191H99.48V177.28s7.4-4.25,10-5.06,14.42-2.35,9.74-.76c-6.51,2.21-12.59,7.44-12.59,7.44Z"/><path class="b3cf3e13-4f1e-4249-a736-e495c74e2338" d="M106.63,191H99.48V177.28s7.4-4.25,10-5.06,14.42-2.35,9.74-.76c-6.51,2.21-12.59,7.44-12.59,7.44Z"/><path class="a8151e8a-617f-462e-a34e-106089e1aca6" d="M146.46,191h7.15V177.28s-7.41-4.25-10-5.06-14.42-2.35-9.75-.76c6.51,2.21,12.6,7.44,12.6,7.44Z"/><path class="b3cf3e13-4f1e-4249-a736-e495c74e2338" d="M146.46,191h7.15V177.28s-7.41-4.25-10-5.06-14.42-2.35-9.75-.76c6.51,2.21,12.6,7.44,12.6,7.44Z"/></g><path class="b3cf3e13-4f1e-4249-a736-e495c74e2338" d="M152.09,178.4q-25.5-15.74-51,0v12.43h51Z"/><path class="aa31c4df-3d2b-41e3-ad21-f0c617b96684" d="M128.57,170.63a1.13,1.13,0,0,0-.24-.08H125.1a.84.84,0,0,0-.47.09c-2.38,1.16-4.75,7.74-4.75,7.74v12.46h13.41V178.37h0S131,171.79,128.57,170.63Z"/><polygon class="aa31c4df-3d2b-41e3-ad21-f0c617b96684" points="123.44 170.53 129.91 170.53 128.88 105.72 124.2 105.72 123.44 170.53"/><polygon class="aa31c4df-3d2b-41e3-ad21-f0c617b96684" points="95.34 52.86 82.72 52.86 82.72 40.25 75.06 40.25 75.06 52.86 62.45 52.86 62.45 60.52 75.06 60.52 75.06 73.14 82.72 73.14 82.72 60.52 95.34 60.52 95.34 52.86"/><polygon class="aa31c4df-3d2b-41e3-ad21-f0c617b96684" points="143.12 69.31 130.5 69.31 130.5 56.69 122.84 56.69 122.84 69.31 110.22 69.31 110.22 76.97 122.84 76.97 122.84 89.59 130.5 89.59 130.5 76.97 143.12 76.97 143.12 69.31"/></svg>