<svg id="a73a9272-24fd-4d64-a9de-0210c9870906" data-name="Layer 1" xmlns="http://www.w3.org/2000/svg" xmlns:xlink="http://www.w3.org/1999/xlink" viewBox="0 0 210 210"><defs><style>.a5a8fc34-0267-452a-8942-a6d8f84dde60,.bd082cf8-3706-45da-acfa-730997016d10{fill:#ed1c24;}.a5a8fc34-0267-452a-8942-a6d8f84dde60,.ac3cbe9b-a903-40fd-bcb2-b326ba9c12fd,.bdfb3610-e7ad-4601-9f8e-51a670f6770f{stroke:#231f20;stroke-miterlimit:10;}.ac3cbe9b-a903-40fd-bcb2-b326ba9c12fd{fill:#fff;}.a2b25499-7ad4-4836-abce-a2219ed604ae{clip-path:url(#ad03a73f-51e4-4021-b7bf-e1f1576ff1a7);}.bdfb3610-e7ad-4601-9f8e-51a670f6770f{fill:none;}</style><clipPath id="ad03a73f-51e4-4021-b7bf-e1f1576ff1a7"><path class="a5a8fc34-0267-452a-8942-a6d8f84dde60" d="M184.6,178.4q-25.5-15.74-51,0v12.43h51Z"/></clipPath></defs><polygon class="a5a8fc34-0267-452a-8942-a6d8f84dde60" points="166.64 105.72 159.1 105.72 156.72 105.72 151.56 105.72 148.66 180.68 159.1 180.68 169.54 180.68 166.64 105.72"/><rect class="ac3cbe9b-a903-40fd-bcb2-b326ba9c12fd" x="104.43" y="81.55" width="13.96" height="109.28"/><rect class="a5a8fc34-0267-452a-8942-a6d8f84dde60" x="104.43" y="81.55" width="6.98" height="109.28"/><path class="bd082cf8-3706-45da-acfa-730997016d10" d="M184.6,178.4q-25.5-15.74-51,0v12.43h51Z"/><g class="a2b25499-7ad4-4836-abce-a2219ed604ae"><path class="ac3cbe9b-a903-40fd-bcb2-b326ba9c12fd" d="M139.14,191H132V177.28s7.41-4.25,10-5.06,14.42-2.35,9.75-.76c-6.51,2.21-12.6,7.44-12.6,7.44Z"/><path class="ac3cbe9b-a903-40fd-bcb2-b326ba9c12fd" d="M179,191h7.15V177.28s-7.4-4.25-10-5.06-14.42-2.35-9.74-.76c6.51,2.21,12.59,7.44,12.59,7.44Z"/></g><path class="bdfb3610-e7ad-4601-9f8e-51a670f6770f" d="M184.6,178.4q-25.5-15.74-51,0v12.43h51Z"/><path class="ac3cbe9b-a903-40fd-bcb2-b326ba9c12fd" d="M161.09,170.63a1.44,1.44,0,0,0-.25-.08h-3.23a.84.84,0,0,0-.47.09c-2.38,1.16-4.74,7.74-4.74,7.74v12.46h13.4V178.37h0S163.47,171.79,161.09,170.63Z"/><polygon class="ac3cbe9b-a903-40fd-bcb2-b326ba9c12fd" points="155.95 170.53 162.42 170.53 161.4 105.72 156.72 105.72 155.95 170.53"/><circle class="a5a8fc34-0267-452a-8942-a6d8f84dde60" cx="111.41" cy="56.69" r="16.45"/><circle class="a5a8fc34-0267-452a-8942-a6d8f84dde60" cx="159.18" cy="73.14" r="16.45"/><path class="a5a8fc34-0267-452a-8942-a6d8f84dde60" d="M52.74,184.12a27.34,27.34,0,0,0,0-54.68"/><path class="ac3cbe9b-a903-40fd-bcb2-b326ba9c12fd" d="M52.74,184.12c10.07,0,18.23-12.24,18.23-27.34s-8.16-27.34-18.23-27.34"/><path class="bdfb3610-e7ad-4601-9f8e-51a670f6770f" d="M52.74,184.12V129.44"/><path class="a5a8fc34-0267-452a-8942-a6d8f84dde60" d="M52.74,184.12a27.34,27.34,0,1,1,0-54.68"/><path class="ac3cbe9b-a903-40fd-bcb2-b326ba9c12fd" d="M52.74,184.12c-10.07,0-18.23-12.24-18.23-27.34s8.16-27.34,18.23-27.34"/><ellipse class="a5a8fc34-0267-452a-8942-a6d8f84dde60" cx="52.74" cy="156.78" rx="9.11" ry="27.34"/><path class="a5a8fc34-0267-452a-8942-a6d8f84dde60" d="M52.74,184.12c-15.1,0-27.34,3-27.34,6.71H80.08C80.08,187.12,67.84,184.12,52.74,184.12Z"/></svg>