<svg id="a015dc2a-39b6-470c-8821-5ecefeb8f007" data-name="Layer 1" xmlns="http://www.w3.org/2000/svg" viewBox="0 0 210 210"><defs><style>.e6068f14-16e2-4b07-9370-84564fa55608{fill:#ffde17;stroke:#231f20;stroke-miterlimit:10;}</style></defs><rect class="e6068f14-16e2-4b07-9370-84564fa55608" x="120.25" y="81.55" width="13.96" height="109.28"/><path class="e6068f14-16e2-4b07-9370-84564fa55608" d="M185,171.77l-2.55-66.06H167.38l-2.55,66.06a53.85,53.85,0,0,0-15.41,6.63v12.43h51V178.4A53.68,53.68,0,0,0,185,171.77Z"/><path class="e6068f14-16e2-4b07-9370-84564fa55608" d="M93.65,184.6a18.95,18.95,0,1,0-15.13,0c-6.7,1.05-11.38,3.44-11.38,6.23H105C105,188,100.35,185.65,93.65,184.6Z"/><path class="e6068f14-16e2-4b07-9370-84564fa55608" d="M51.92,173.93c0-12.43-42.45-12.43-42.45,0v16.9H51.92Z"/><polygon class="e6068f14-16e2-4b07-9370-84564fa55608" points="139.15 35.44 127.23 47.35 115.32 35.44 110.74 40.01 122.66 51.93 110.74 63.84 115.32 68.42 127.23 56.5 139.15 68.42 143.72 63.84 131.81 51.93 143.72 40.01 139.15 35.44"/><polygon class="e6068f14-16e2-4b07-9370-84564fa55608" points="186.84 60.63 174.92 72.55 163.01 60.63 158.44 65.2 170.35 77.12 158.44 89.03 163.01 93.61 174.92 81.69 186.84 93.61 191.41 89.03 179.5 77.12 191.41 65.2 186.84 60.63"/><polygon class="e6068f14-16e2-4b07-9370-84564fa55608" points="98 105.72 86.09 117.63 74.17 105.72 69.6 110.29 81.52 122.2 69.6 134.12 74.17 138.69 86.09 126.78 98 138.69 102.58 134.12 90.66 122.2 102.58 110.29 98 105.72"/><polygon class="e6068f14-16e2-4b07-9370-84564fa55608" points="42.61 105.72 30.69 117.63 18.78 105.72 14.21 110.29 26.12 122.2 14.21 134.12 18.78 138.69 30.69 126.78 42.61 138.69 47.18 134.12 35.27 122.2 47.18 110.29 42.61 105.72"/></svg>