<svg xmlns="http://www.w3.org/2000/svg" viewBox="0 0 277.21 71.06" style="width: auto; height: 100%;"><g id="ed1e6a58-ef47-4693-ad75-020276bc9f83" data-name="Layer 2"><g id="fb16f603-7396-45c1-913f-fafcf0287829" data-name="Layer 1"><path d="M5.57.1v12H18.62V51.56s-.46,5.42-7,5.42H.29L0,69.55H16.4c13.85,0,14.24-18,14.24-18V.1H5.57Z"/><polygon points="277.21 12.13 277.21 0.1 231.15 0.1 231.15 11.74 231.15 12.13 231.15 28.76 231.15 40.78 231.15 57.42 231.15 57.8 231.15 69.44 277.21 69.44 277.21 57.42 243.17 57.42 243.17 40.78 272.67 40.78 272.67 28.76 243.17 28.76 243.17 12.13 277.21 12.13"/><path d="M92,.1H44.86v43s1.43,28,29.45,28,29.67-28,29.67-28V.1H92ZM74.31,58.3c-17.87,0-17.43-15.24-17.43-15.24V12.12H92V43.06S92.18,58.3,74.31,58.3Z"/><polygon points="216.52 0.1 206.4 0.1 179.54 0.1 179.54 12.13 201.75 12.13 184.37 56.98 184.27 56.98 184.27 57.25 179.72 69 184.27 69 194.7 69 220.48 69 220.48 56.98 199.43 56.98 221.8 0.1 216.52 0.1"/><path d="M131,.1l0,12.61s27-3.37,27,22.06S131,57,131,57V.1H119V69.44h12s40.2,3.81,40.2-34.67S131,.1,131,.1Z"/></g></g></svg>