<?xml version="1.0" encoding="utf-8"?>
<!-- Generator: Adobe Illustrator 26.0.1, SVG Export Plug-In . SVG Version: 6.00 Build 0)  -->
<svg version="1.1" id="Layer_1" xmlns="http://www.w3.org/2000/svg" xmlns:xlink="http://www.w3.org/1999/xlink" x="0px" y="0px"
	 viewBox="0 0 1000 500" style="enable-background:new 0 0 1000 500;" xml:space="preserve">
<style type="text/css">
	.st0{fill:url(#SVGID_1_);}
	.st1{fill:#FFFFFF;}
	.st2{fill:url(#SVGID_00000170242001770779506410000004115379533234190502_);}
	.st3{fill:url(#SVGID_00000108272652281281591350000003073981756642086790_);}
</style>
<linearGradient id="SVGID_1_" gradientUnits="userSpaceOnUse" x1="500" y1="0" x2="500" y2="500">
	<stop  offset="0" style="stop-color:#262262"/>
	<stop  offset="0.1758" style="stop-color:#1D1752"/>
	<stop  offset="0.4535" style="stop-color:#0C003B"/>
	<stop  offset="0.6935" style="stop-color:#000029"/>
	<stop  offset="0.8835" style="stop-color:#00001A"/>
	<stop  offset="1" style="stop-color:#000013"/>
</linearGradient>
<rect class="st0" width="1000" height="500"/>
<path d="M891.07,314.95c0,0-74.38,0-88.88,0c-14.51,0-7.39,20.04-36.66,20.04c-3.58,0-12.9,0-26.51,0v-25.32h9.49v-25.72h-9.89
	V106.72h-7.52v177.24H713.7v51.03c-118.15,0-392.96,0-417.38,0c-20.29,0-25.43-5.04-26.64-8.32v-30.71h-8.7v-13.19h-11.08v-10.81
	h-11.08v-66.73h-5.54v67.26h-18.46v-20.31h-30.07v17.67h-31.12v19.78l-12.66,0.26v34.02c-16.1,0-28.15,0-31.39,0
	c0,0-14.24,69.36,88.62,69.36s575.23,0,619.54,0s39.3-6.07,37.45-11.08c-1.85-5.01-2.64-17.93,8.7-34.02
	C875.25,332.09,891.07,314.95,891.07,314.95z"/>
<rect y="388.02" width="1000" height="111.98"/>
<circle class="st1" cx="235.81" cy="212.38" r="20.81"/>
<circle class="st1" cx="736.19" cy="117.7" r="20.81"/>
<linearGradient id="SVGID_00000142878178620286530220000011536671429571976579_" gradientUnits="userSpaceOnUse" x1="288.5703" y1="245.0637" x2="449.3801" y2="337.9073">
	<stop  offset="0" style="stop-color:#FFFFFF"/>
	<stop  offset="1" style="stop-color:#FFFFFF;stop-opacity:0"/>
</linearGradient>
<polygon style="fill:url(#SVGID_00000142878178620286530220000011536671429571976579_);" points="268.83,279.26 477.94,288.45 
	423.55,334.99 330.11,334.99 "/>
<linearGradient id="SVGID_00000136392743856727281030000001470253627190163388_" gradientUnits="userSpaceOnUse" x1="426.3135" y1="-134.665" x2="612.3402" y2="-27.2624" gradientTransform="matrix(-0.8649 0.5019 -0.5019 -0.8649 1032.1169 -44)">
	<stop  offset="0" style="stop-color:#FFFFFF"/>
	<stop  offset="1" style="stop-color:#FFFFFF;stop-opacity:0"/>
</linearGradient>
<polyline style="fill:url(#SVGID_00000136392743856727281030000001470253627190163388_);" points="730.83,238 662.53,334.99 
	516.23,334.99 "/>
</svg>
