<?xml version="1.0" encoding="utf-8"?>
<!-- Generator: Adobe Illustrator 26.0.1, SVG Export Plug-In . SVG Version: 6.00 Build 0)  -->
<svg version="1.1" id="Layer_1" xmlns="http://www.w3.org/2000/svg" xmlns:xlink="http://www.w3.org/1999/xlink" x="0px" y="0px"
	 viewBox="0 0 500 500" style="enable-background:new 0 0 500 500;" xml:space="preserve">
<style type="text/css">
	.st0{fill:none;stroke:#24282D;stroke-width:2;stroke-miterlimit:10;}
	.st1{fill:#FFFFFF;}
	.st2{fill:#24282D;}
</style>
<path class="st0" d="M250,250.5l93.9,229.9c0,0,0,0,5.2-0.4C437.9,441.7,500,353.4,500,250.5c0-104.1-63.7-193.4-154.2-231l-0.1,0
	L250,250.5z"/>
<g>
	<path class="st1" d="M-194,479.5c-66.5,0-129-25.9-176.1-72.9c-47-47-72.9-109.6-72.9-176.1s25.9-129,72.9-176.1
		c47-47,109.6-72.9,176.1-72.9c32.7,0,64.5,6.3,94.6,18.6L-195.1,231l94.1,230.5C-130.5,473.4-161.8,479.5-194,479.5z"/>
	<path class="st2" d="M-194-17.5c32.3,0,63.6,6.1,93.3,18.1l-95.1,229.6l-0.3,0.8l0.3,0.8l93.6,229.2
		c-29.2,11.6-60.1,17.5-91.7,17.5c-33.5,0-66-6.6-96.5-19.5c-29.5-12.5-56.1-30.4-78.8-53.1c-22.8-22.8-40.7-49.3-53.1-78.8
		c-12.9-30.6-19.5-63.1-19.5-96.5s6.6-66,19.5-96.5c12.5-29.5,30.4-56.1,53.1-78.8C-346.6,32.3-320,14.5-290.5,2
		C-259.9-11-227.5-17.5-194-17.5 M-194-19.5c-138.1,0-250,111.9-250,250s111.9,250,250,250c33.4,0,65.2-6.6,94.4-18.4L-194,231
		L-98.1-0.5C-127.6-12.7-160-19.5-194-19.5L-194-19.5z"/>
</g>
</svg>
