<?xml version="1.0" encoding="utf-8"?>
<!-- Generator: Adobe Illustrator 26.0.1, SVG Export Plug-In . SVG Version: 6.00 Build 0)  -->
<svg version="1.1" id="Layer_1" xmlns="http://www.w3.org/2000/svg" xmlns:xlink="http://www.w3.org/1999/xlink" x="0px" y="0px"
	 viewBox="0 0 500 500" style="enable-background:new 0 0 500 500;" xml:space="preserve">
<style type="text/css">
	.st0{fill:#FFFFFF;}
	.st1{fill:#00A14B;}
	.st2{fill:#ED1C24;}
	.st3{fill:#FFDE17;}
</style>
<path class="st0" d="M-728.4,103.5l93.9,229.9c0,0,0,0,5.2-0.4c88.8-38.4,150.9-126.7,150.9-229.6c0-104.1-63.7-193.4-154.2-231
	l-0.1,0L-728.4,103.5z"/>
<g>
	<path class="st0" d="M1075.2,11.6l95.9-231.5c-29.5-12.3-61.9-19.1-95.9-19.1c-138.1,0-250,111.9-250,250s111.9,250,250,250
		c33.4,0,65.2-6.6,94.4-18.4L1075.2,11.6z"/>
</g>
<g>
	<g>
		<path class="st1" d="M77.1,249.5c0,0.2,0,0.4,0,0.5h250l95.9-231.5C393.4,6.3,361-0.5,327.1-0.5C189-0.5,77.1,111.4,77.1,249.5z"
			/>
	</g>
	<g>
		<path class="st2" d="M77.1,250.5c0-0.2,0-0.4,0-0.5h250l95.9,231.5c-29.5,12.3-61.9,19.1-95.9,19.1
			C189,500.5,77.1,388.6,77.1,250.5z"/>
	</g>
</g>
<circle class="st3" cx="866.9" cy="697.3" r="250"/>
</svg>
