<?xml version="1.0" encoding="utf-8"?>
<!-- Generator: Adobe Illustrator 26.0.1, SVG Export Plug-In . SVG Version: 6.00 Build 0)  -->
<svg version="1.1" id="Layer_1" xmlns="http://www.w3.org/2000/svg" xmlns:xlink="http://www.w3.org/1999/xlink" x="0px" y="0px"
	 viewBox="0 0 500 500" style="enable-background:new 0 0 500 500;" xml:space="preserve">
<style type="text/css">
	.st0{fill:#FFFFFF;stroke:#24282D;stroke-width:2;stroke-miterlimit:10;}
	.st1{fill:#FFFFFF;}
	.st2{fill:#24282D;}
	.st3{fill:#00A14B;}
	.st4{fill:#ED1C24;}
	.st5{fill:#FFDE17;}
</style>
<path class="st0" d="M-955.1,344.5l93.9,229.9c0,0,0,0,5.2-0.4c88.8-38.4,150.9-126.7,150.9-229.6c0-104.1-63.7-193.4-154.2-231
	l-0.1,0L-955.1,344.5z"/>
<g>
	<path class="st1" d="M-194,479.5c-66.5,0-129-25.9-176.1-72.9c-47-47-72.9-109.6-72.9-176.1s25.9-129,72.9-176.1
		c47-47,109.6-72.9,176.1-72.9c32.7,0,64.5,6.3,94.6,18.6L-195.1,231l94.1,230.5C-130.5,473.4-161.8,479.5-194,479.5z"/>
	<path class="st2" d="M-194-17.5c32.3,0,63.6,6.1,93.3,18.1l-95.1,229.6l-0.3,0.8l0.3,0.8l93.6,229.2
		c-29.2,11.6-60.1,17.5-91.7,17.5c-33.5,0-66-6.6-96.5-19.5c-29.5-12.5-56.1-30.4-78.8-53.1c-22.8-22.8-40.7-49.3-53.1-78.8
		c-12.9-30.6-19.5-63.1-19.5-96.5s6.6-66,19.5-96.5c12.5-29.5,30.4-56.1,53.1-78.8C-346.6,32.3-320,14.5-290.5,2
		C-259.9-11-227.5-17.5-194-17.5 M-194-19.5c-138.1,0-250,111.9-250,250s111.9,250,250,250c33.4,0,65.2-6.6,94.4-18.4L-194,231
		L-98.1-0.5C-127.6-12.7-160-19.5-194-19.5L-194-19.5z"/>
</g>
<g>
	<g>
		<path class="st3" d="M-558.7,931.2c0.1-66.3,26-128.7,72.9-175.6c47-47,109.6-72.9,176.1-72.9c32.7,0,64.5,6.3,94.6,18.6
			l-95.2,229.9H-558.7z"/>
		<path class="st2" d="M-309.7,683.7c32.3,0,63.6,6.1,93.3,18.1L-311,930.2h-246.7c0.2-33,6.7-64.9,19.5-95.1
			c12.5-29.5,30.4-56.1,53.1-78.8c22.8-22.8,49.3-40.7,78.8-53.1C-375.6,690.2-343.1,683.7-309.7,683.7 M-309.7,681.7
			c-138.1,0-250,111.9-250,250c0,0.2,0,0.4,0,0.5h250l95.9-231.5C-243.3,688.5-275.7,681.7-309.7,681.7L-309.7,681.7z"/>
	</g>
	<g>
		<path class="st4" d="M-309.7,1181.7c-66.5,0-129-25.9-176.1-72.9c-46.9-46.9-72.8-109.3-72.9-175.6h248.3l95.2,229.9
			C-245.1,1175.5-276.9,1181.7-309.7,1181.7z"/>
		<path class="st2" d="M-311,934.2l94.6,228.4c-29.6,12-61,18.1-93.3,18.1c-33.5,0-66-6.6-96.5-19.5c-29.5-12.5-56.1-30.4-78.8-53.1
			c-22.8-22.8-40.7-49.3-53.1-78.8c-12.7-30.1-19.3-62.1-19.5-95.1H-311 M-309.7,932.2h-250c0,0.2,0,0.4,0,0.5
			c0,138.1,111.9,250,250,250c34,0,66.4-6.8,95.9-19.1L-309.7,932.2L-309.7,932.2z"/>
	</g>
</g>
<circle class="st5" cx="250" cy="250" r="250"/>
</svg>
