<?xml version="1.0" encoding="utf-8"?>
<!-- Generator: Adobe Illustrator 26.0.1, SVG Export Plug-In . SVG Version: 6.00 Build 0)  -->
<svg version="1.1" id="Layer_1" xmlns="http://www.w3.org/2000/svg" xmlns:xlink="http://www.w3.org/1999/xlink" x="0px" y="0px"
	 viewBox="0 0 1000 500" style="enable-background:new 0 0 1000 500;" xml:space="preserve">
<style type="text/css">
	.st0{fill:url(#SVGID_1_);}
	.st1{fill:#1CA500;}
	.st2{fill:none;}
	.st3{fill:#FFFFFF;}
</style>
<linearGradient id="SVGID_1_" gradientUnits="userSpaceOnUse" x1="500" y1="-76" x2="500" y2="-576" gradientTransform="matrix(1 0 0 -1 0 -76)">
	<stop  offset="0" style="stop-color:#262262"/>
	<stop  offset="0.1758" style="stop-color:#1D1752"/>
	<stop  offset="0.4535" style="stop-color:#0C003B"/>
	<stop  offset="0.6935" style="stop-color:#000029"/>
	<stop  offset="0.8835" style="stop-color:#00001A"/>
	<stop  offset="1" style="stop-color:#000013"/>
</linearGradient>
<rect class="st0" width="1000" height="500"/>
<circle class="st1" cx="479.2" cy="331.6" r="20.8"/>
<rect y="388" width="1000" height="112"/>
<circle class="st2" cx="235.8" cy="191.6" r="20.8"/>
<circle class="st2" cx="235.8" cy="141.6" r="20.8"/>
<circle class="st2" cx="735.8" cy="85.9" r="20.8"/>
<circle class="st2" cx="235.8" cy="241.5" r="20.8"/>
<circle class="st2" cx="235.8" cy="91.7" r="20.8"/>
<path class="st3" d="M215,360.6l-15.8,21.3c0,0-9.6-6.9-10.2-20s8.2-20.9,8.2-20.9L215,360.6z"/>
<polygon points="475.7,333 449.6,272.8 437.5,272.8 414.8,220.7 406.9,223 428.6,272.8 348.7,272.8 303.9,351 210.5,351 
	240.4,394.7 712.9,394.7 789.5,333 "/>
<ellipse transform="matrix(0.1602 -0.9871 0.9871 0.1602 124.2501 596.0385)" class="st1" cx="412.4" cy="225" rx="20.8" ry="20.8"/>
<ellipse transform="matrix(0.1602 -0.9871 0.9871 0.1602 173.6046 554.0469)" class="st1" cx="412.4" cy="175" rx="20.8" ry="20.8"/>
<path class="st3" d="M412.4,99.7c-5.5,0-10.4,2.1-14.1,5.6l14.1,16.5l-13.7,14.3c3.7,3.2,8.5,5.2,13.7,5.2
	c11.5,0,20.8-9.3,20.8-20.8S423.9,99.7,412.4,99.7z"/>
</svg>
