<?xml version="1.0" encoding="utf-8"?>
<!-- Generator: Adobe Illustrator 26.0.1, SVG Export Plug-In . SVG Version: 6.00 Build 0)  -->
<svg version="1.1" id="Layer_1" xmlns="http://www.w3.org/2000/svg" xmlns:xlink="http://www.w3.org/1999/xlink" x="0px" y="0px"
	 viewBox="0 0 500 500" style="enable-background:new 0 0 500 500;" xml:space="preserve">
<style type="text/css">
	.st0{fill:url(#SVGID_1_);}
	.st1{fill:url(#SVGID_00000165196415584899290350000007776266429201058998_);}
	.st2{fill:none;}
	.st3{fill:#ED1C24;}
	.st4{fill:#FFFFFF;}
</style>
<linearGradient id="SVGID_1_" gradientUnits="userSpaceOnUse" x1="249.6" y1="578" x2="249.6" y2="1078" gradientTransform="matrix(1 0 0 1 0 -578)">
	<stop  offset="0" style="stop-color:#262262"/>
	<stop  offset="0.1758" style="stop-color:#1D1752"/>
	<stop  offset="0.4535" style="stop-color:#0C003B"/>
	<stop  offset="0.6935" style="stop-color:#000029"/>
	<stop  offset="0.8835" style="stop-color:#00001A"/>
	<stop  offset="1" style="stop-color:#000013"/>
</linearGradient>
<rect x="-0.8" class="st0" width="500.8" height="500"/>
<path d="M315.5,336.5h-3.4l-10-62.9h-47.3v-51.1h-9.7v51.1h-47.3l-10,62.9h-21.4c0,0,7.3,66.6,25.3,67.4v0.1h116.1
	c18.2,0,25.6-67.5,25.6-67.5H315.5z"/>
<linearGradient id="SVGID_00000121257535914087545950000002245015636992115367_" gradientUnits="userSpaceOnUse" x1="919.2" y1="695.6" x2="919.2" y2="695.6" gradientTransform="matrix(1 0 0 1 0 -578)">
	<stop  offset="0" style="stop-color:#262262"/>
	<stop  offset="0.1758" style="stop-color:#1D1752"/>
	<stop  offset="0.4535" style="stop-color:#0C003B"/>
	<stop  offset="0.6935" style="stop-color:#000029"/>
	<stop  offset="0.8835" style="stop-color:#00001A"/>
	<stop  offset="1" style="stop-color:#000013"/>
</linearGradient>
<path style="fill:url(#SVGID_00000121257535914087545950000002245015636992115367_);" d="M919.2,117.6"/>
<rect y="388" width="500" height="112"/>
<circle class="st2" cx="306.3" cy="340.2" r="20.8"/>
<circle class="st2" cx="193.3" cy="340.2" r="20.8"/>
<ellipse transform="matrix(0.1602 -0.9871 0.9871 0.1602 46.6902 385.6777)" class="st2" cx="250" cy="165.4" rx="20.8" ry="20.8"/>
<circle class="st2" cx="250" cy="57.1" r="20.8"/>
<circle class="st2" cx="250" cy="273.6" r="20.8"/>
<ellipse transform="matrix(0.1602 -0.9871 0.9871 0.1602 100.1903 340.1596)" class="st2" cx="250" cy="111.2" rx="20.8" ry="20.8"/>
<ellipse transform="matrix(0.1602 -0.9871 0.9871 0.1602 -6.7113 431.1118)" class="st2" cx="250" cy="219.5" rx="20.8" ry="20.8"/>
<ellipse transform="matrix(0.1602 -0.9871 0.9871 0.1602 -15.8661 439.7516)" class="st3" cx="250.5" cy="229.2" rx="20.8" ry="20.8"/>
<ellipse transform="matrix(0.1602 -0.9871 0.9871 0.1602 33.4883 397.7607)" class="st4" cx="250.5" cy="179.2" rx="20.8" ry="20.8"/>
</svg>
