<?xml version="1.0" encoding="utf-8"?>
<!-- Generator: Adobe Illustrator 26.0.1, SVG Export Plug-In . SVG Version: 6.00 Build 0)  -->
<svg version="1.1" id="Layer_1" xmlns="http://www.w3.org/2000/svg" xmlns:xlink="http://www.w3.org/1999/xlink" x="0px" y="0px"
	 viewBox="0 0 1000 500" style="enable-background:new 0 0 1000 500;" xml:space="preserve">
<style type="text/css">
	.st0{fill:url(#SVGID_1_);}
	.st1{fill:#1CA500;}
	.st2{fill:none;}
	.st3{fill:#FFFFFF;}
	.st4{fill:#ED1C24;}
</style>
<linearGradient id="SVGID_1_" gradientUnits="userSpaceOnUse" x1="500" y1="578" x2="500" y2="1078" gradientTransform="matrix(1 0 0 1 0 -578)">
	<stop  offset="0" style="stop-color:#262262"/>
	<stop  offset="0.1758" style="stop-color:#1D1752"/>
	<stop  offset="0.4535" style="stop-color:#0C003B"/>
	<stop  offset="0.6935" style="stop-color:#000029"/>
	<stop  offset="0.8835" style="stop-color:#00001A"/>
	<stop  offset="1" style="stop-color:#000013"/>
</linearGradient>
<rect class="st0" width="1000" height="500"/>
<circle class="st1" cx="479.2" cy="331.6" r="20.8"/>
<rect y="388" width="1000" height="112"/>
<circle class="st2" cx="235.8" cy="191.6" r="20.8"/>
<circle class="st2" cx="235.8" cy="141.6" r="20.8"/>
<circle class="st2" cx="735.8" cy="85.9" r="20.8"/>
<circle class="st2" cx="235.8" cy="241.5" r="20.8"/>
<circle class="st2" cx="235.8" cy="91.7" r="20.8"/>
<path class="st3" d="M215,360.6l-15.8,21.3c0,0-9.6-6.9-10.2-20s8.2-20.9,8.2-20.9L215,360.6z"/>
<polygon points="475.7,333 460.5,298 334.3,298 303.9,351 210.5,351 240.4,394.7 712.9,394.7 789.5,333 "/>
<path d="M430,311.6V116.7c0,0,58,31.8,104,93.5s49,91,49,91H440V315L430,311.6z"/>
<path d="M414,303l11-211.3c0,0-17,80.3-48,110.3s-68,70-68,70L414,303z"/>
<ellipse transform="matrix(0.1602 -0.9871 0.9871 0.1602 241.7231 517.5168)" class="st1" cx="425" cy="116.7" rx="20.8" ry="20.8"/>
<ellipse transform="matrix(0.1602 -0.9871 0.9871 0.1602 291.0776 475.5252)" class="st4" cx="425" cy="66.7" rx="20.8" ry="20.8"/>
</svg>
