<?xml version="1.0" encoding="utf-8"?>
<!-- Generator: Adobe Illustrator 26.0.1, SVG Export Plug-In . SVG Version: 6.00 Build 0)  -->
<svg version="1.1" id="Layer_1" xmlns="http://www.w3.org/2000/svg" xmlns:xlink="http://www.w3.org/1999/xlink" x="0px" y="0px"
	 viewBox="0 0 500 500" style="enable-background:new 0 0 500 500;" xml:space="preserve">
<style type="text/css">
	.st0{fill:url(#SVGID_1_);}
	.st1{fill:url(#SVGID_00000170998607370581664580000010828228622236615096_);}
	.st2{fill:#FFFFFF;}
	.st3{fill:#1CA500;}
	.st4{fill:#ED1C24;}
</style>
<linearGradient id="SVGID_1_" gradientUnits="userSpaceOnUse" x1="249.6" y1="576" x2="249.6" y2="1076" gradientTransform="matrix(1 0 0 1 0 -576)">
	<stop  offset="0" style="stop-color:#262262"/>
	<stop  offset="0.1758" style="stop-color:#1D1752"/>
	<stop  offset="0.4535" style="stop-color:#0C003B"/>
	<stop  offset="0.6935" style="stop-color:#000029"/>
	<stop  offset="0.8835" style="stop-color:#00001A"/>
	<stop  offset="1" style="stop-color:#000013"/>
</linearGradient>
<rect x="-0.8" class="st0" width="500.8" height="500"/>
<linearGradient id="SVGID_00000168835485661310074830000004697345650071002280_" gradientUnits="userSpaceOnUse" x1="919.2" y1="693.6" x2="919.2" y2="693.6" gradientTransform="matrix(1 0 0 1 0 -576)">
	<stop  offset="0" style="stop-color:#262262"/>
	<stop  offset="0.1758" style="stop-color:#1D1752"/>
	<stop  offset="0.4535" style="stop-color:#0C003B"/>
	<stop  offset="0.6935" style="stop-color:#000029"/>
	<stop  offset="0.8835" style="stop-color:#00001A"/>
	<stop  offset="1" style="stop-color:#000013"/>
</linearGradient>
<path style="fill:url(#SVGID_00000168835485661310074830000004697345650071002280_);" d="M919.2,117.6"/>
<rect y="388" width="500" height="112"/>
<path d="M243.4,330.9V136.1c0,0,27.8,31.8,49.8,93.5s23.4,91,23.4,91h-68.4v13.8L243.4,330.9z"/>
<path d="M231.7,334.4l5.3-211.3c0,0-8.1,80.3-23,110.3c-14.8,30-32.5,70-32.5,70L231.7,334.4z"/>
<path class="st2" d="M250.5,361l27.4,17.6c0,0-9.8,9.7-27.4,9.7s-27.4-9.7-27.4-9.7L250.5,361z"/>
<path d="M311.6,342.6l-2.5-15.6H189.8l-2.5,15.6H166c0,0,7.3,66.6,25.3,67.4v0.1h116.1c18.2,0,25.6-67.5,25.6-67.5h-18H311.6z"/>
<path class="st2" d="M250.5,354.9l27.4,17.6c0,0-9.8,9.7-27.4,9.7s-27.4-9.7-27.4-9.7L250.5,354.9z"/>
<ellipse transform="matrix(0.1602 -0.9871 0.9871 0.1602 64.232 371.5986)" class="st3" cx="250.5" cy="148.1" rx="20.8" ry="20.8"/>
<ellipse transform="matrix(0.1602 -0.9871 0.9871 0.1602 113.5865 329.6071)" class="st4" cx="250.5" cy="98" rx="20.8" ry="20.8"/>
</svg>
