<?xml version="1.0" encoding="utf-8"?>
<!-- Generator: Adobe Illustrator 26.0.1, SVG Export Plug-In . SVG Version: 6.00 Build 0)  -->
<svg version="1.1" id="Layer_1" xmlns="http://www.w3.org/2000/svg" xmlns:xlink="http://www.w3.org/1999/xlink" x="0px" y="0px"
	 viewBox="0 0 500 500" style="enable-background:new 0 0 500 500;" xml:space="preserve">
<style type="text/css">
	.st0{fill:url(#SVGID_1_);}
	.st1{fill:url(#SVGID_00000083796814269435488680000005542498724796449211_);}
	.st2{fill:none;}
	.st3{fill:#FFFFFF;}
</style>
<linearGradient id="SVGID_1_" gradientUnits="userSpaceOnUse" x1="249.58" y1="502.03" x2="249.58" y2="2.03" gradientTransform="matrix(1 0 0 -1 0 502)">
	<stop  offset="0" style="stop-color:#262262"/>
	<stop  offset="0.1758" style="stop-color:#1D1752"/>
	<stop  offset="0.4535" style="stop-color:#0C003B"/>
	<stop  offset="0.6935" style="stop-color:#000029"/>
	<stop  offset="0.8835" style="stop-color:#00001A"/>
	<stop  offset="1" style="stop-color:#000013"/>
</linearGradient>
<rect x="-0.8" y="0" class="st0" width="500.8" height="500"/>
<linearGradient id="SVGID_00000155113870275749775110000009150096085355854779_" gradientUnits="userSpaceOnUse" x1="919.15" y1="384.43" x2="919.15" y2="384.43" gradientTransform="matrix(1 0 0 -1 0 502)">
	<stop  offset="0" style="stop-color:#262262"/>
	<stop  offset="0.1758" style="stop-color:#1D1752"/>
	<stop  offset="0.4535" style="stop-color:#0C003B"/>
	<stop  offset="0.6935" style="stop-color:#000029"/>
	<stop  offset="0.8835" style="stop-color:#00001A"/>
	<stop  offset="1" style="stop-color:#000013"/>
</linearGradient>
<path style="fill:url(#SVGID_00000155113870275749775110000009150096085355854779_);" d="M919.2,117.6"/>
<rect y="388" width="500" height="112"/>
<circle class="st2" cx="306.3" cy="340.2" r="20.8"/>
<circle class="st2" cx="193.3" cy="340.2" r="20.8"/>
<path d="M307.9,336.5h-5.7v-16.9h-6.8v-46.1h6.8v-20.2h-47.7V117.6h-8.8v135.8h-47.7v20.2h6.8v46.1h-6.8v16.9h-5.7h-0.3h-25.3
	c0,0,7.3,66.6,25.3,67.4v0.1h116.1c18.2,0,25.6-67.5,25.6-67.5H307.9z"/>
<circle class="st2" cx="250" cy="165.4" r="20.8"/>
<circle class="st2" cx="250" cy="57.1" r="20.8"/>
<circle class="st2" cx="250" cy="273.6" r="20.8"/>
<circle class="st2" cx="250" cy="111.2" r="20.8"/>
<circle class="st2" cx="250" cy="219.5" r="20.8"/>
<path class="st3" d="M249.6,341.8l27.4,17.6c0,0-9.8,9.7-27.4,9.7s-27.4-9.7-27.4-9.7L249.6,341.8z"/>
</svg>
