<?xml version="1.0" encoding="utf-8"?>
<!-- Generator: Adobe Illustrator 26.0.1, SVG Export Plug-In . SVG Version: 6.00 Build 0)  -->
<svg version="1.1" id="Layer_1" xmlns="http://www.w3.org/2000/svg" xmlns:xlink="http://www.w3.org/1999/xlink" x="0px" y="0px"
	 viewBox="0 0 500 500" style="enable-background:new 0 0 500 500;" xml:space="preserve">
<style type="text/css">
	.st0{fill:url(#SVGID_1_);}
	.st1{fill:url(#SVGID_00000019653362710383372840000009500501696013057173_);}
	.st2{fill:#FFFFFF;}
	.st3{fill:#1CA500;}
	.st4{fill:#EC2027;}
</style>
<linearGradient id="SVGID_1_" gradientUnits="userSpaceOnUse" x1="249.6" y1="-2" x2="249.6" y2="498" gradientTransform="matrix(1 0 0 1 0 2)">
	<stop  offset="0" style="stop-color:#262262"/>
	<stop  offset="0.1758" style="stop-color:#1D1752"/>
	<stop  offset="0.4535" style="stop-color:#0C003B"/>
	<stop  offset="0.6935" style="stop-color:#000029"/>
	<stop  offset="0.8835" style="stop-color:#00001A"/>
	<stop  offset="1" style="stop-color:#000013"/>
</linearGradient>
<rect x="-0.8" class="st0" width="500.8" height="500"/>
<linearGradient id="SVGID_00000098938207742166260950000002142405481834609542_" gradientUnits="userSpaceOnUse" x1="919.2" y1="115.6" x2="919.2" y2="115.6" gradientTransform="matrix(1 0 0 1 0 2)">
	<stop  offset="0" style="stop-color:#262262"/>
	<stop  offset="0.1758" style="stop-color:#1D1752"/>
	<stop  offset="0.4535" style="stop-color:#0C003B"/>
	<stop  offset="0.6935" style="stop-color:#000029"/>
	<stop  offset="0.8835" style="stop-color:#00001A"/>
	<stop  offset="1" style="stop-color:#000013"/>
</linearGradient>
<path style="fill:url(#SVGID_00000098938207742166260950000002142405481834609542_);" d="M919.2,117.6"/>
<rect y="388" width="500" height="112"/>
<path d="M306.1,339.5h-2.9l-8.7-54.3l-40.9,0V241h-8.4v44.1h-40.9l-8.7,54.3h-18.5c0,0,6.3,57.5,21.9,58.3v0.1h100.3
	c15.7,0,22.2-58.3,22.2-58.3H306.1z"/>
<circle class="st2" cx="250" cy="241" r="20.8"/>
<g>
	<path class="st3" d="M235.3,354.9l14.9-14.7l-0.2-20.8c-11.5,0-20.8,9.3-20.8,20.8C229.2,346,231.5,351.2,235.3,354.9z"/>
	<path class="st4" d="M250.2,319.4l-0.2,20.8l14.8,14.6c3.7-3.8,6-8.9,6-14.6C270.8,328.8,261.6,319.5,250.2,319.4z"/>
</g>
</svg>
