<?xml version="1.0" encoding="utf-8"?>
<!-- Generator: Adobe Illustrator 26.0.1, SVG Export Plug-In . SVG Version: 6.00 Build 0)  -->
<svg version="1.1" id="Layer_1" xmlns="http://www.w3.org/2000/svg" xmlns:xlink="http://www.w3.org/1999/xlink" x="0px" y="0px"
	 viewBox="0 0 500 500" style="enable-background:new 0 0 500 500;" xml:space="preserve">
<style type="text/css">
	.st0{fill:url(#SVGID_1_);}
	.st1{fill:url(#SVGID_00000122691225386132624770000009188516371124031618_);}
	.st2{fill:none;}
	.st3{fill:#FFFFFF;}
</style>
<linearGradient id="SVGID_1_" gradientUnits="userSpaceOnUse" x1="249.58" y1="502.03" x2="249.58" y2="2.03" gradientTransform="matrix(1 0 0 -1 0 502)">
	<stop  offset="0" style="stop-color:#262262"/>
	<stop  offset="0.1758" style="stop-color:#1D1752"/>
	<stop  offset="0.4535" style="stop-color:#0C003B"/>
	<stop  offset="0.6935" style="stop-color:#000029"/>
	<stop  offset="0.8835" style="stop-color:#00001A"/>
	<stop  offset="1" style="stop-color:#000013"/>
</linearGradient>
<rect x="-0.8" y="0" class="st0" width="500.8" height="500"/>
<path d="M306.3,350.7h-2.9l-8.6-54l-40.6,0v-43.9h-8.3v43.9h-40.6l-8.6,54h-18.4c0,0,6.3,57.2,21.7,57.9v0.1h99.7
	c15.7,0,22-58,22-58H306.3z"/>
<linearGradient id="SVGID_00000109002400488651336100000017815042911460148361_" gradientUnits="userSpaceOnUse" x1="919.15" y1="384.43" x2="919.15" y2="384.43" gradientTransform="matrix(1 0 0 -1 0 502)">
	<stop  offset="0" style="stop-color:#262262"/>
	<stop  offset="0.1758" style="stop-color:#1D1752"/>
	<stop  offset="0.4535" style="stop-color:#0C003B"/>
	<stop  offset="0.6935" style="stop-color:#000029"/>
	<stop  offset="0.8835" style="stop-color:#00001A"/>
	<stop  offset="1" style="stop-color:#000013"/>
</linearGradient>
<path style="fill:url(#SVGID_00000109002400488651336100000017815042911460148361_);" d="M919.2,117.6"/>
<rect y="388" width="500" height="112"/>
<circle class="st2" cx="306.3" cy="340.2" r="20.8"/>
<circle class="st2" cx="193.3" cy="340.2" r="20.8"/>
<circle class="st3" cx="250" cy="250" r="20.8"/>
<circle class="st2" cx="250" cy="57.1" r="20.8"/>
<circle class="st2" cx="250" cy="273.6" r="20.8"/>
<circle class="st2" cx="250" cy="111.2" r="20.8"/>
<circle class="st2" cx="250" cy="219.5" r="20.8"/>
</svg>
