<?xml version="1.0" encoding="iso-8859-1"?>
<!-- Uploaded to: SVG Repo, www.svgrepo.com, Generator: SVG Repo Mixer Tools -->
<svg height="800px" width="800px" version="1.1" id="Layer_1" xmlns="http://www.w3.org/2000/svg" xmlns:xlink="http://www.w3.org/1999/xlink" 
	 viewBox="0 0 473.961 473.961" xml:space="preserve">
<circle style="fill:#A2D4DE;" cx="236.994" cy="236.979" r="236.967"/>
<path style="fill:#357180;" d="M0,236.967h473.957c0,130.876-106.098,236.982-236.982,236.982C106.098,473.946,0,367.84,0,236.967z"
	/>
<path style="fill:#EDC92C;" d="M308.106,339.223c5.504,21.538-48.49,62.275-48.49,62.275s-67.659-9.684-73.156-31.221
	c-5.497-21.545,28.961-87.019,41.743-90.278C240.986,276.728,302.61,317.678,308.106,339.223z"/>
<path style="fill:#DFBB26;" d="M308.106,339.223c5.504,21.538-48.49,62.275-48.49,62.275l-31.412-121.5
	C240.986,276.728,302.61,317.678,308.106,339.223z"/>
<path style="fill:#E4C025;" d="M308.106,339.223c5.504,21.538-48.49,62.275-48.49,62.275s-67.659-9.684-73.156-31.221
	L308.106,339.223z"/>
<path style="fill:#D6B429;" d="M308.106,339.223c5.504,21.538-48.49,62.275-48.49,62.275l-12.206-46.78L308.106,339.223z"/>
<g>
	<path style="fill:#525252;" d="M233.132,280.309c0,0-0.052,3.068-3.689,3.996c-3.637,0.928-5.167-1.74-5.167-1.74L176.294,94.592
		l8.857-2.26L233.132,280.309z"/>
	<path style="fill:#525252;" d="M189.368,90.368c0.505,1.987-3.311,4.677-8.494,6.002c-5.212,1.328-9.822,0.79-10.335-1.194
		c-0.505-1.991,3.289-4.67,8.494-6.002C184.223,87.85,188.859,88.377,189.368,90.368z"/>
</g>
<path style="fill:#D62127;" d="M275.575,76.598l-94.888,24.224c-2.705,0.688-4.318,3.439-3.641,6.122l14.683,57.511
	c0.696,2.705,3.427,4.326,6.125,3.641l94.895-24.228c2.698-0.688,4.318-3.427,3.633-6.125L281.7,80.231
	C281.016,77.545,278.28,75.91,275.575,76.598z"/>
<path style="fill:#FFFFFF;" d="M296.383,137.743l-1.036-4.064L187.639,99.041l-6.948,1.781c-2.705,0.688-4.318,3.439-3.641,6.122
	l0.79,3.079l109.548,35.21l5.366-1.366C295.448,143.18,297.072,140.441,296.383,137.743z"/>
<path style="fill:#357180;" d="M236.975,452.285c59.262,0,110.252-35.263,133.226-85.93H103.756
	C126.731,417.026,177.72,452.285,236.975,452.285z"/>
</svg>