<?xml version="1.0" encoding="iso-8859-1"?>
<!-- Uploaded to: SVG Repo, www.svgrepo.com, Generator: SVG Repo Mixer Tools -->
<svg version="1.1" id="Layer_1" xmlns="http://www.w3.org/2000/svg" xmlns:xlink="http://www.w3.org/1999/xlink" 
	 viewBox="0 0 512 512" xml:space="preserve">
<path style="fill:#F95428;" d="M398.09,204.413l79.96,119.295h-303.55c-11.762,0-21.28-9.531-21.28-21.28
	c0-5.868,2.386-11.194,6.229-15.05c3.843-3.843,134.023-202.259,134.023-202.259h184.578L398.09,204.413z"/>
<path style="fill:#E54728;" d="M314.364,85.118v238.589H174.499c-11.762,0-21.28-9.531-21.28-21.28c0-2.605,0-104.115,0-104.115
	L293.471,85.118H314.364z"/>
<path style="fill:#F95428;" d="M293.471,85.118v174.751c0-5.868-33.944,12.587-37.787,8.731c-3.856-3.843-14.754-0.645-20.635-0.645
	l-68.997,0.645l-12.832-30.011H66.657V0h200.594c14.48,0,26.22,11.739,26.22,26.22V85.118z"/>
<path style="fill:#DB3923;" d="M287.242,244.819c3.843,3.856,6.229,9.182,6.229,15.05c0,11.749-9.531,21.28-21.28,21.28h-97.693
	c-5.881,0-11.207,2.386-15.05,6.229c-3.843,3.856-6.229,9.182-6.229,15.05v-63.839h69.32h49.652
	C278.073,238.589,283.386,240.975,287.242,244.819z"/>
<rect x="66.657" style="fill:#E54728;" width="30.398" height="238.589"/>
<polygon style="fill:#B27214;" points="72.46,238.589 72.46,512 33.951,512 33.951,0 72.46,0 "/>
<polygon style="fill:#995C0D;" points="50.197,238.589 50.197,512 33.951,512 33.951,0 50.197,0 "/>
</svg>