<?xml version="1.0" encoding="iso-8859-1"?>
<!-- Uploaded to: SVG Repo, www.svgrepo.com, Generator: SVG Repo Mixer Tools -->
<svg height="800px" width="800px" version="1.1" id="Layer_1" xmlns="http://www.w3.org/2000/svg" xmlns:xlink="http://www.w3.org/1999/xlink" 
	 viewBox="0 0 512 512" xml:space="preserve">
<path style="fill:#9DACBA;" d="M405.92,482.48h-6.24l-64.4-4.56c-21.04-1.52-49.2-2.32-79.2-2.32s-58.16,0.8-79.2,2.32L112,482.24
	c-23.488,2.112-46.64-6.744-62.72-24c-14.296-15.872-21.384-36.952-19.6-58.24l4.64-64.8c3.12-52.784,3.12-105.696,0-158.48
	L29.68,112c-1.8-21.48,5.448-42.736,20-58.64c16.08-17.256,39.232-26.112,62.72-24l64.4,4.96c21.04,1.52,49.2,2.32,79.2,2.32
	s58.16-0.8,79.2-2.32l64.8-4.56c23.488-2.112,46.64,6.744,62.72,24c14.296,15.872,21.384,36.952,19.6,58.24l-4.64,64.8
	c-3.12,52.784-3.12,105.696,0,158.48l4.64,64.72c1.936,21.6-5.288,43.024-19.92,59.04C447.688,474.416,427.2,482.92,405.92,482.48z
	 M256,459.36c30.4,0,58.96,0.88,80,2.4l64.4,4.56c32.688,3.504,62.016-20.16,65.52-52.84c0.448-4.216,0.448-8.464,0-12.68
	l-4.24-64.8c-3.16-53.528-3.16-107.192,0-160.72l4.64-64.4c3.32-32.704-20.496-61.912-53.2-65.232
	c-4.096-0.416-8.224-0.408-12.32,0.032L336,50.24c-21.44,1.52-49.92,2.4-80,2.4s-58.96-0.88-80-2.4l-64.8-4.56
	C92.664,43.864,74.304,50.608,61.36,64c-11.688,12.712-17.496,29.752-16,46.96L50.32,176c3.136,53.288,3.136,106.712,0,160
	l-4.64,64.8c-1.496,17.208,4.312,34.248,16,46.96c12.904,13.48,31.264,20.32,49.84,18.56l64.48-4.56
	C197.04,460.16,225.6,459.36,256,459.36z"/>
<g>
	<path style="fill:#92582B;" d="M504,272h-16v-32h16c4.416,0,8,3.584,8,8v16C512,268.416,508.416,272,504,272z"/>
	<path style="fill:#92582B;" d="M24,272H8c-4.416,0-8-3.584-8-8v-16c0-4.416,3.584-8,8-8h16V272z"/>
	<path style="fill:#92582B;" d="M240,504v-16h32v16c0,4.416-3.584,8-8,8h-16C243.584,512,240,508.416,240,504z"/>
	<path style="fill:#92582B;" d="M240,24V8c0-4.416,3.584-8,8-8h16c4.416,0,8,3.584,8,8v16H240z"/>
</g>
<path style="fill:#E2E7F0;" d="M256,16C123.448,16,16,123.448,16,256s107.448,240,240,240s240-107.448,240-240S388.552,16,256,16z
	 M256,384c-70.696,0-128-57.304-128-128s57.304-128,128-128s128,57.304,128,128S326.696,384,256,384z"/>
<path style="fill:#C9D5E3;" d="M461.84,286.16c-13.216,91.168-84.832,162.784-176,176c-16.92,2.4-29.576,16.752-29.84,33.84l0,0
	c132.552,0,240-107.448,240-240l0,0C478.688,256.128,464.112,268.992,461.84,286.16z"/>
<g>
	<path style="fill:#DE333F;" d="M384,256c0,20.232-4.832,40.168-14.08,58.16l113.84,17.52c16.312-49.112,16.312-102.168,0-151.28
		l-113.84,17.44C379.168,215.832,383.992,235.768,384,256z"/>
	<path style="fill:#DE333F;" d="M331.68,483.76l-17.52-113.84c-36.496,18.792-79.824,18.792-116.32,0l-17.52,113.84
		C229.456,500.088,282.544,500.088,331.68,483.76z"/>
</g>
<g>
	<path style="fill:#C61C31;" d="M451.6,326.72l32,4.96c3.928-11.856,6.92-24,8.96-36.32v-0.72c0.96-5.76,1.6-11.68,2.16-17.6
		c0-1.04,0-2.16,0-3.2C496,267.92,496,262,496,256l0,0c-17.312,0.128-31.888,12.992-34.16,30.16
		C459.808,299.992,456.376,313.584,451.6,326.72z"/>
	<path style="fill:#C61C31;" d="M276.96,495.04c5.92-0.56,11.84-1.2,17.6-2.16h0.64c12.344-2.032,24.52-5.032,36.4-8.96l-4.96-32
		c-13.144,4.744-26.728,8.152-40.56,10.16c-17.04,2.296-29.84,16.728-30.08,33.92l0,0c6,0,11.92,0,17.84-0.72L276.96,495.04z"/>
</g>
<path style="fill:#C9D5E3;" d="M256,128V96c-88.368,0-160,71.632-160,160h32C128,185.304,185.304,128,256,128z"/>
<path style="fill:#DE333F;" d="M128,256c0-19.408,4.432-38.56,12.96-56L26.08,187.04c-13.512,45.008-13.512,92.992,0,138L140.88,312
	C132.376,294.56,127.976,275.4,128,256z"/>
<path style="fill:#C61C31;" d="M107.6,196.4c-3.352,8.168-6.024,16.592-8,25.2c-3.184,15.496,6.8,30.632,22.296,33.816
	c2.008,0.416,4.056,0.608,6.104,0.584l0,0c0.008-4.728,0.272-9.456,0.8-14.16c0-0.96,0-1.84,0.4-2.8c0.48-3.84,1.2-8,2-11.36l0.48-2
	c1.016-4.104,2.216-8.104,3.6-12v-0.8c1.656-4.392,3.552-8.696,5.68-12.88l0,0L107.6,196.4z"/>
<path style="fill:#DE333F;" d="M180.32,28.24l17.52,113.84c36.504-18.768,79.816-18.768,116.32,0l17.52-113.84
	C282.544,11.912,229.456,11.912,180.32,28.24z"/>
<path style="fill:#C61C31;" d="M192.8,109.04l5.12,33.04l0,0c3.928-1.992,7.96-3.784,12.08-5.36l3.92-1.44c2.4-0.8,4.8-1.6,7.2-2.32
	l6.8-1.76l4.08-0.8c3.304-0.64,6.664-1.144,10.08-1.52h2.56C248,128,252.08,128,256,128l0,0
	c0.088-15.864-12.704-28.792-28.568-28.872c-2.072-0.008-4.128,0.2-6.152,0.632C211.52,101.952,201.984,105.064,192.8,109.04z"/>
</svg>