<?xml version="1.0" encoding="iso-8859-1"?>
<!-- Uploaded to: SVG Repo, www.svgrepo.com, Generator: SVG Repo Mixer Tools -->
<svg height="800px" width="800px" version="1.1" id="Layer_1" xmlns="http://www.w3.org/2000/svg" xmlns:xlink="http://www.w3.org/1999/xlink" 
	 viewBox="0 0 511.999 511.999" xml:space="preserve">
<path style="fill:#FFB74A;" d="M424.435,73.398c4.512-2.676,10.401-1.576,13.62,2.788c2.512,3.406,2.512,8.063,0.353,11.704
	L356.261,226.45c-10.801,18.219-10.801,40.879,0,59.097l82.148,138.561c2.159,3.641,2.159,8.298-0.353,11.704
	c-3.218,4.364-9.106,5.464-13.62,2.788L285.548,356.26c-18.219-10.801-40.879-10.801-59.097,0L87.889,438.409
	c-3.641,2.159-8.298,2.159-11.704-0.353c-4.364-3.218-5.464-9.106-2.788-13.62l82.341-138.888c10.801-18.219,10.801-40.879,0-59.097
	L73.591,87.889c-2.159-3.641-2.159-8.298,0.353-11.704c3.218-4.364,9.106-5.464,13.62-2.788l138.888,82.341
	c18.219,10.801,40.879,10.801,59.097,0L424.435,73.398z"/>
<path style="fill:#5EC5EA;" d="M424.435,73.398c4.512-2.676,10.401-1.576,13.62,2.788c2.512,3.406,2.512,8.063,0.353,11.704
	L356.261,226.45c-10.801,18.219-10.801,40.879,0,59.097l82.148,138.561c2.159,3.641,2.159,8.298-0.353,11.704
	c-3.218,4.364-9.106,5.464-13.62,2.788L285.548,356.26c-18.219-10.801-40.879-10.801-59.097,0L87.889,438.409
	c-3.641,2.159-8.298,2.159-11.704-0.353c-4.364-3.218-5.464-9.106-2.788-13.62l82.341-138.888c10.801-18.219,10.801-40.879,0-59.097
	L73.591,87.889c-2.159-3.641-2.159-8.298,0.353-11.704c3.218-4.364,9.106-5.464,13.62-2.788l138.888,82.341
	c18.219,10.801,40.879,10.801,59.097,0L424.435,73.398z"/>
<g>
	<path style="fill:#227AA0;" d="M356.261,226.452l82.148-138.562c2.159-3.641,2.159-8.298-0.353-11.704
		c-0.321-0.435-0.674-0.828-1.043-1.197L256,256l92.164,0.094C348.146,245.842,350.843,235.588,356.261,226.452z"/>
	<path style="fill:#227AA0;" d="M437.887,436.021L256,256l-1.533,92.211c10.728-0.284,21.516,2.38,31.081,8.051l138.888,82.341
		C428.874,441.232,434.636,440.206,437.887,436.021z"/>
	<path style="fill:#227AA0;" d="M155.738,285.549L73.398,424.435c-2.409,4.062-1.748,9.235,1.591,12.575L256,255.999l-92.398,4.951
		C162.869,269.493,160.266,277.912,155.738,285.549z"/>
	<path style="fill:#227AA0;" d="M255.878,163.835c-10.179-0.021-20.354-2.717-29.427-8.097L87.564,73.398
		c-4.42-2.621-10.155-1.611-13.413,2.534L255.999,256L255.878,163.835z"/>
</g>
<path style="fill:#FFB74A;" d="M245.983,7.779c1.299-5.082,6.24-8.469,11.602-7.659c4.185,0.633,7.479,3.926,8.526,8.026
	l39.89,156.065c5.245,20.52,21.268,36.543,41.787,41.787l156.065,39.89c4.101,1.048,7.393,4.342,8.026,8.526
	c0.81,5.362-2.577,10.302-7.659,11.602l-156.432,39.984c-20.52,5.245-36.543,21.268-41.787,41.787l-39.89,156.065
	c-1.048,4.101-4.342,7.393-8.526,8.026c-5.362,0.81-10.302-2.577-11.602-7.659l-39.984-156.432
	c-5.245-20.52-21.268-36.543-41.787-41.787L8.146,266.111c-4.101-1.048-7.393-4.342-8.026-8.526
	c-0.81-5.362,2.577-10.302,7.659-11.602l156.432-39.984c20.52-5.245,36.543-21.268,41.787-41.787L245.983,7.779z"/>
<path style="fill:#F7DC4D;" d="M245.983,7.779c1.299-5.082,6.24-8.469,11.602-7.659c4.185,0.633,7.479,3.926,8.526,8.026
	l39.89,156.065c5.245,20.52,21.268,36.543,41.787,41.787l156.065,39.89c4.101,1.048,7.393,4.342,8.026,8.526
	c0.81,5.362-2.577,10.302-7.659,11.602l-156.432,39.984c-20.52,5.245-36.543,21.268-41.787,41.787l-39.89,156.065
	c-1.048,4.101-4.342,7.393-8.526,8.026c-5.362,0.81-10.302-2.577-11.602-7.659l-39.984-156.432
	c-5.245-20.52-21.268-36.543-41.787-41.787L8.146,266.111c-4.101-1.048-7.393-4.342-8.026-8.526
	c-0.81-5.362,2.577-10.302,7.659-11.602l156.432-39.984c20.52-5.245,36.543-21.268,41.787-41.787L245.983,7.779z"/>
<g>
	<path style="fill:#EDA637;" d="M306.001,164.211L266.111,8.146c-1.048-4.101-4.342-7.393-8.526-8.026
		c-0.534-0.081-1.062-0.109-1.584-0.109V256l65.236-65.103C313.975,183.66,308.632,174.502,306.001,164.211z"/>
	<path style="fill:#EDA637;" d="M511.908,254.681L255.999,256l64.12,66.286c7.385-7.786,16.897-13.531,27.669-16.285l156.432-39.984
		C509.22,264.74,512.568,259.939,511.908,254.681z"/>
	<path style="fill:#EDA637;" d="M205.998,347.789l39.984,156.432c1.17,4.576,5.294,7.767,10.017,7.767V256l-61.835,68.836
		C199.689,331.395,203.8,339.188,205.998,347.789z"/>
	<path style="fill:#EDA637;" d="M190.744,190.915c-7.213,7.182-16.315,12.471-26.533,15.083L7.779,245.983
		c-4.979,1.273-8.32,6.041-7.693,11.276L256,255.999L190.744,190.915z"/>
</g>
</svg>