<svg xmlns="http://www.w3.org/2000/svg" viewBox="0 0 403.64 410"><defs><style>.b7f8e790-0946-4849-ba54-94adf01e9268{fill:#ffc727;}.b85c8af2-a492-4f13-9a7d-41374e8d0a47{opacity:0.5;}.b692f2fb-3d9a-4949-a0f6-fb39de990a3c,.f7b8093a-4ed8-4574-85bc-1378fca107db{opacity:0.1;}.b9b2dad4-ee43-42ac-aede-d515ac655a40{fill:#37474f;}.fdb36c36-20b6-4cb2-8129-5589b457e186{fill:#455a64;}.fe458b7d-2b0b-4f48-ad59-89e551207852{fill:#263238;}.b7e2c810-faf0-4102-a476-2fde060a4ac3{opacity:0.15;}.bc48ae50-6d6f-487b-9dcf-36350860305f,.ef4d7641-fe12-4ffc-8b6a-fd2d199a2710{fill:#fff;}.ef4d7641-fe12-4ffc-8b6a-fd2d199a2710{opacity:0.3;}.e98ffede-3a54-4da6-9105-c47b8d373c91,.f8cb1ba9-8270-42fb-ad44-07c1dbb6ead6{opacity:0.2;}.e67a155f-6bf1-4b72-9c84-fdfe22418fb5{opacity:0.6;}</style></defs><g id="b154ef9b-726a-4d2a-bfb8-f4ada54b1563" data-name="Layer 2"><g id="ace65f65-93b7-4c83-b343-b5b9df5803eb" data-name="Megaphone"><path class="b7f8e790-0946-4849-ba54-94adf01e9268" d="M74.38,252l-48.15,9.29s-16.65-5.37-23.84-30C-4.6,207.35,6,191.34,6,191.34L50.8,175.12l.66,2.16s-7.82,16.52-1.63,38.22c7.2,25.22,23.93,34.43,23.93,34.43Z"/><g class="b85c8af2-a492-4f13-9a7d-41374e8d0a47"><path d="M74.38,252l-48.15,9.29s-16.65-5.37-23.84-30C-4.6,207.35,6,191.34,6,191.34L50.8,175.12l.66,2.16s-7.82,16.52-1.63,38.22c7.2,25.22,23.93,34.43,23.93,34.43Z"/></g><path class="f7b8093a-4ed8-4574-85bc-1378fca107db" d="M50.8,175.12S40,193,49.16,219.86C58.11,246,74.38,252,74.38,252l-.62-2S57,240.72,49.83,215.51c-6.1-21.38,1.39-37.71,1.63-38.22Z"/><path class="b7f8e790-0946-4849-ba54-94adf01e9268" d="M183.33,390.15l11.53-10.24s-25.05-52.78-30.37-67-11-75.71-11-75.71l-10.52.3-14.84,66.36Z"/><path class="f7b8093a-4ed8-4574-85bc-1378fca107db" d="M183.33,390.15l11.53-10.24s-25.05-52.78-30.37-67-11-75.71-11-75.71l-10.52.3-14.84,66.36Z"/><path class="b7f8e790-0946-4849-ba54-94adf01e9268" d="M86.23,245.22s-4.43,62.71,0,88.64,21.28,71.59,21.28,71.59l75.82-15.3S159.66,337,154.51,322.54C143.43,291.44,143,237.49,143,237.49Z"/><polygon class="b9b2dad4-ee43-42ac-aede-d515ac655a40" points="103.47 410 183.33 390.15 194.86 379.91 173.38 328.71 170.81 327.79 159.06 334 90.74 353.62 90.25 351.12 87.39 357.03 103.47 410"/><polygon class="fdb36c36-20b6-4cb2-8129-5589b457e186" points="87.39 357.03 160.6 336.04 173.38 328.71 170.81 327.79 159.06 334 90.74 353.62 90.25 351.12 87.39 357.03"/><polygon class="fe458b7d-2b0b-4f48-ad59-89e551207852" points="160.6 336.04 183.33 390.15 194.86 379.91 173.38 328.71 160.6 336.04"/><path class="b7e2c810-faf0-4102-a476-2fde060a4ac3" d="M155.74,258.89l-11.65.29L84.78,273.51c.58-16,1.45-28.29,1.45-28.29L143,237.5l10.52-.31S154.37,246.6,155.74,258.89Z"/><path class="b7f8e790-0946-4849-ba54-94adf01e9268" d="M266.56,18.28S219.3,86.45,147.44,128.55c-43.85,25.69-75.34,36.81-78.58,37.88,0,0-19.49,10.39-10.85,48.78C69.78,252.75,91.86,252,91.86,252c3.34-.69,36.16-6.87,87-6.63C262.12,245.71,337.2,281,337.2,281l.18-.34c-15.17-5.35-33-31.31-48-68.52-1-2.4-1.91-4.84-2.83-7.33a433.37,433.37,0,0,1-14.71-47.09,436.31,436.31,0,0,1-10.9-48.12c-.44-2.62-.85-5.2-1.21-7.76-5.71-39.71-3.28-71.12,7.16-83.35Z"/><path class="b7f8e790-0946-4849-ba54-94adf01e9268" d="M266.56,18.28S219.3,86.45,147.44,128.55c-43.85,25.7-75.34,36.81-78.58,37.87,0,0-15.33,8.18-12.77,36.8,0,.36.07.71.1,1.06A92.29,92.29,0,0,0,58,215.2C69.78,252.74,91.86,252,91.86,252c3.34-.69,36.16-6.87,87-6.63C262.12,245.71,337.2,281,337.2,281l.19-.34c-15.17-5.35-33-31.3-48-68.52-1-2.39-1.92-4.84-2.84-7.33a433.37,433.37,0,0,1-14.71-47.09C270,151,268.23,144.45,266.69,138c0-.06,0-.12,0-.19-.44-1.81-.85-3.61-1.25-5.4q-1.53-6.87-2.8-13.55-.9-4.68-1.66-9.26c-.44-2.62-.85-5.2-1.21-7.75-.42-3-.81-5.85-1.13-8.69-.29-2.4-.54-4.75-.76-7.07-.11-1.22-.22-2.43-.31-3.63-2.46-30.4.68-53.8,9.36-64Z"/><path class="ef4d7641-fe12-4ffc-8b6a-fd2d199a2710" d="M252.7,69l-1.3.39,0,.09,10.65,48L245.82,73.33l-3.59,1,8.38,42.15-12.86-37.2-5.31,1.43,9.8,53.44-15-39.73-7,2,7.57,39.16-12-32.92-8,2.17L214,140.08l-9.11-21-8.33,2.39,3,20.45-8.73-19.15-8.46,2.74,5.28,26.29-11.48-24.54-8.29,2.3,3.3,30.92-9.06-18.91-7.79,2.46,4.42,25.49L149,151.77l-7.23,2.37,1.28,9.28L137.92,152,131,154.06l3.1,18.93-6.4-8.9-6.17,2.65,1.18,5.89L119.46,167l-6,2,1.66,13.28-7.53-14.49-5.39,1.61,1.17,10.25L97.7,168.86l-4.88,1.47,2.35,20-6.4-15.16-3.88.78.19,17.12-4-7.67-3.22,1,1.38,10.7-5.3-10.88-2.37.51-.12,20L60.75,189.62l-1.18.3-.67,17.64-2.81-4.34c0,.36.07.71.1,1.06l2.72,4.43.57-.15,1.22-16.5,10.81,18.61,1.82-.49.52-18,6.67,14.61,2.88-.83L82.23,195.3l3.15,6.16,3.44-.86.06-14.29,8.34,20.84,4.45-1.14-2.29-22.5,5.9,11.53,5.15-1.56-1-9.24,8.06,16,5.79-1.76-1.64-14.31,5.44,9.73,6.19-2.29-2-10.55,5.83,8.22,6.34-2.6-1-6.53L147,190.35l7.21-2.06-1.9-14.18,11,20.48,7.44-2.58-3.34-19.88,6.76,14.34,8.07-2.26-3.05-29.66,16.05,34.55,8.4-2.74-5-25,5.8,12.66,8.41-2.49-2.78-18.62,10.59,24.29,8.23-2.49-4.54-25.05,13,35,7.57-2.13L235.61,136l13.26,34,6.22-1.76-10.3-52.94,12.6,35.2,4.53-1.26L250.78,96.66,266.65,138h0c0-.06,0-.12,0-.19-.44-1.81-.85-3.61-1.25-5.4q-1.53-6.87-2.8-13.55-.9-4.68-1.66-9.26c-.44-2.62-.85-5.2-1.21-7.75-.42-3-.81-5.85-1.13-8.69l-3.37-13.81c.85,2.2,1.73,4.45,2.61,6.74-.11-1.22-.22-2.43-.31-3.63Z"/><path class="b7f8e790-0946-4849-ba54-94adf01e9268" d="M100.24,253.45,42.82,264.53S23,258.13,14.38,228.79c-8.33-28.54,4.28-47.63,4.28-47.63l53.46-19.35.79,2.57S63.58,184.09,71,210C79.54,240.05,99.5,251,99.5,251Z"/><g class="f8cb1ba9-8270-42fb-ad44-07c1dbb6ead6"><path d="M100.24,253.45,42.82,264.53S23,258.13,14.38,228.79c-8.33-28.54,4.28-47.63,4.28-47.63l53.46-19.35.79,2.57S63.58,184.09,71,210C79.54,240.05,99.5,251,99.5,251Z"/></g><path class="f7b8093a-4ed8-4574-85bc-1378fca107db" d="M72.12,161.82s-12.93,21.36-2,53.36c10.68,31.16,30.08,38.27,30.08,38.27L99.5,251s-20-11-28.54-41.05c-7.27-25.49,1.66-45,2-45.58Z"/><g class="f8cb1ba9-8270-42fb-ad44-07c1dbb6ead6"><path d="M25.35,186a1.5,1.5,0,0,1-.44-2.94l12.91-3.92A1.5,1.5,0,1,1,38.7,182L25.78,186A1.61,1.61,0,0,1,25.35,186Z"/><path d="M24.27,193.42a1.5,1.5,0,0,1-.43-2.94l12.91-3.92a1.5,1.5,0,0,1,.87,2.87l-12.91,3.92A1.35,1.35,0,0,1,24.27,193.42Z"/></g><g class="f8cb1ba9-8270-42fb-ad44-07c1dbb6ead6"><path d="M44.07,253.45a1.5,1.5,0,0,1-.28-2.95l13.1-3.24a1.5,1.5,0,1,1,.72,2.91l-13.1,3.24A1.68,1.68,0,0,1,44.07,253.45Z"/><path d="M49.25,259.12a1.5,1.5,0,0,1-.28-3l13.1-3.23a1.5,1.5,0,1,1,.72,2.91l-13.1,3.23A1.7,1.7,0,0,1,49.25,259.12Z"/></g><path class="f7b8093a-4ed8-4574-85bc-1378fca107db" d="M337.39,280.65l-.19.33s-75.08-35.27-158.35-35.65c-38.86-.18-67.19,3.39-79.87,5.39l.52.31.74,2.42L42.83,264.53S23,258.13,14.39,228.79c-8.34-28.54,4.27-47.63,4.27-47.63-1.31,10.65,11.85,34,30.1,32.84,13.75-.83,19.36-24.83,19.36-24.83s44.19,42.49,136,27.14c30.43-5.09,64.15-25,72-42.66,3.19,11,6.67,21.39,10.36,31.15.93,2.49,1.87,4.93,2.84,7.33C304.37,249.34,322.22,275.3,337.39,280.65Z"/><path class="b7f8e790-0946-4849-ba54-94adf01e9268" d="M266.64,17.55a15.48,15.48,0,0,1,7.26-4.91c22.93-6.86,59.35,47.52,81.39,121.4s21.29,139.36-1.61,146.18c-.46.13-.88.23-1.33.32a1.52,1.52,0,0,1-.42.06c-8.49,1.37-18.66-5.06-29.15-17.31-14.45-16.88-29.55-44.75-41.95-78.63-3.05-8.28-5.91-16.93-8.58-25.87-4-13.54-7.32-26.8-9.81-39.47C252.87,71.17,254.34,31.59,266.64,17.55Z"/><path class="e67a155f-6bf1-4b72-9c84-fdfe22418fb5" d="M266.64,17.55a15.48,15.48,0,0,1,7.26-4.91c22.93-6.86,59.35,47.52,81.39,121.4s21.29,139.36-1.61,146.18c-.46.13-.88.23-1.33.32a1.52,1.52,0,0,1-.42.06c-8.49,1.37-18.66-5.06-29.15-17.31-14.45-16.88-29.55-44.75-41.95-78.63-3.05-8.28-5.91-16.93-8.58-25.87-4-13.54-7.32-26.8-9.81-39.47C252.87,71.17,254.34,31.59,266.64,17.55Z"/><path class="e98ffede-3a54-4da6-9105-c47b8d373c91" d="M368.2,191.28,271,154.64c.39,1.39.79,2.77,1.21,4.15,2.67,8.94,5.53,17.59,8.58,25.87,12.4,33.88,27.51,61.76,41.95,78.63,10.5,12.25,20.67,18.68,29.15,17.32a2.17,2.17,0,0,0,.42-.07c.45-.09.88-.19,1.32-.32C370.37,275.25,375.29,239.11,368.2,191.28Z"/><g class="b692f2fb-3d9a-4949-a0f6-fb39de990a3c"><path class="bc48ae50-6d6f-487b-9dcf-36350860305f" d="M357.71,142.47l-86.66,12.17h0l78.48-38.51c2,5.82,3.93,11.8,5.75,17.92C356.12,136.86,356.93,139.68,357.71,142.47Z"/><path class="bc48ae50-6d6f-487b-9dcf-36350860305f" d="M343.41,99.49l-72.36,55.14,67.86-66.16C340.44,92.05,342,95.73,343.41,99.49Z"/></g><path class="b7f8e790-0946-4849-ba54-94adf01e9268" d="M263.62,125A36.92,36.92,0,1,1,282,190.31c-3.05-8.28-5.91-16.93-8.58-25.88C269.41,150.9,266.11,137.64,263.62,125Z"/><path class="b7f8e790-0946-4849-ba54-94adf01e9268" d="M276.86,6.4c12.84-.72,27.52,10.73,42.78,33.51,15.68,23.39,30.26,56.24,41.08,92.51s16.59,71.74,16.28,99.92c-.34,30.75-7.85,49.19-21.71,53.32-.57.16-1.07.28-1.61.4a6.84,6.84,0,0,1-1.12.18c-10.38,1.58-21.83-4.95-34.09-19.26-15.26-17.84-30.52-46.38-43-80.36-3.05-8.29-6-17.12-8.69-26.21-4.09-13.75-7.43-27.21-9.94-40-10.17-51.19-8.12-91,5.49-106.59a21.08,21.08,0,0,1,9.9-6.61A20,20,0,0,1,276.86,6.4ZM351.37,275l.72-.18c8.09-2.41,13.31-18.73,13.57-42.56.3-27.07-5.31-61.36-15.81-96.56s-24.57-67-39.63-89.44c-13.26-19.79-26.53-30.6-34.7-28.14a9.8,9.8,0,0,0-4.59,3.18l0,0c-9,10.27-13.37,44.22-2.9,96.93,2.45,12.46,5.7,25.56,9.69,39,2.64,8.87,5.49,17.46,8.46,25.53C298,215,312.89,243,327.08,259.6,336.3,270.36,345,275.93,351,275Z"/><path class="e98ffede-3a54-4da6-9105-c47b8d373c91" d="M276.86,6.4c12.84-.72,27.52,10.73,42.78,33.51,15.68,23.39,30.26,56.24,41.08,92.51s16.59,71.74,16.28,99.92c-.34,30.75-7.85,49.19-21.71,53.32-.57.16-1.07.28-1.61.4a6.84,6.84,0,0,1-1.12.18c-10.38,1.58-21.83-4.95-34.09-19.26-15.26-17.84-30.52-46.38-43-80.36-3.05-8.29-6-17.12-8.69-26.21-4.09-13.75-7.43-27.21-9.94-40-10.17-51.19-8.12-91,5.49-106.59a21.08,21.08,0,0,1,9.9-6.61A20,20,0,0,1,276.86,6.4ZM351.37,275l.72-.18c8.09-2.41,13.31-18.73,13.57-42.56.3-27.07-5.31-61.36-15.81-96.56s-24.57-67-39.63-89.44c-13.26-19.79-26.53-30.6-34.7-28.14a9.8,9.8,0,0,0-4.59,3.18l0,0c-9,10.27-13.37,44.22-2.9,96.93,2.45,12.46,5.7,25.56,9.69,39,2.64,8.87,5.49,17.46,8.46,25.53C298,215,312.89,243,327.08,259.6,336.3,270.36,345,275.93,351,275Z"/></g><g id="f9e8ad6c-cc12-415b-9a23-3fdf690be1ea" data-name="Lines"><path class="fe458b7d-2b0b-4f48-ad59-89e551207852" d="M403.64,110.11l-37.27,3.58,2.15-7.08,10.38,11.6,4.51,5c-3.31-.14-37.64-1.51-41.93-1.7l35.42-4.09-1.8,4.79-12.24-9.62-6.4-5,45-10.82,2.23,13.33Z"/><path class="fe458b7d-2b0b-4f48-ad59-89e551207852" d="M286.66,45.87l6.19,27.64-5.52-.94,7.73-8.89,3.36-3.86c.21,2.5,2.41,28.4,2.67,31.63l-6.4-26.19,3.76.89-6.07,10.09-3.17,5.28L276.86,48.8l9.8-2.93Z"/><path class="fe458b7d-2b0b-4f48-ad59-89e551207852" d="M357.41,8.29,330.76,60.06l-7.47-8.76,23.91-3.83,10.4-1.67c-3,4.21-33.64,48-37.48,53.44l24.42-49.79,4.76,6.38-22.87,7.93-12,4.15C317.3,59.77,334.86,9.29,338.1,0l19.31,8.29Z"/><path class="fe458b7d-2b0b-4f48-ad59-89e551207852" d="M393.59,234.68,361.7,215.05l6-4.36L369,226.21l.56,6.75C367,230.84,340.42,209,337.11,206.3l30.72,18.1-4.32,2.74-4-15-2.07-7.87,42.37,18.49-6.26,12Z"/><path class="fe458b7d-2b0b-4f48-ad59-89e551207852" d="M346.24,260.32,337,233.56l5.59.31-6.67,9.7L333,247.79c-.48-2.46-5.6-27.95-6.23-31.13l9.33,25.3-3.84-.46,4.89-10.71,2.55-5.61c1.91,3.73,13.79,26.86,16,31.12l-9.4,4Z"/></g></g></svg>