<?xml version="1.0" encoding="utf-8"?>
<!-- Generator: Adobe Illustrator 26.0.1, SVG Export Plug-In . SVG Version: 6.00 Build 0)  -->
<svg version="1.1" id="Layer_1" xmlns="http://www.w3.org/2000/svg" xmlns:xlink="http://www.w3.org/1999/xlink" x="0px" y="0px"
	 viewBox="0 0 1080 1080" style="enable-background:new 0 0 1080 1080;" xml:space="preserve">
<style type="text/css">
	.st0{fill:#0000FF;}
	.st1{fill:#FFFFFF;}
	.st2{fill:#FF0000;}
	.st3{fill:none;}
</style>
<g>
	<rect x="293.5" y="548.1" class="st0" width="500" height="100"/>
	<rect x="293.5" y="648.1" class="st1" width="500" height="100"/>
	<rect x="293.5" y="748.1" class="st2" width="500" height="100"/>
	<rect x="293.5" y="848.1" class="st1" width="500" height="100"/>
	<rect x="293.5" y="948.1" class="st0" width="500" height="100"/>
	<rect x="297.6" y="552.3" class="st3" width="491.7" height="491.7"/>
</g>
<g>
	<rect x="293.5" y="31.9" class="st0" width="125" height="125"/>
	<rect x="418.5" y="31.9" class="st1" width="125" height="125"/>
	<rect x="543.5" y="31.9" class="st0" width="125" height="125"/>
	<rect x="668.5" y="31.9" class="st1" width="125" height="125"/>
	<rect x="293.5" y="156.9" class="st1" width="125" height="125"/>
	<rect x="418.5" y="156.9" class="st0" width="125" height="125"/>
	<rect x="543.5" y="156.9" class="st1" width="125" height="125"/>
	<rect x="668.5" y="156.9" class="st0" width="125" height="125"/>
	<rect x="293.5" y="281.9" class="st0" width="125" height="125"/>
	<rect x="418.5" y="281.9" class="st1" width="125" height="125"/>
	<rect x="543.5" y="281.9" class="st0" width="125" height="125"/>
	<rect x="668.5" y="281.9" class="st1" width="125" height="125"/>
	<rect x="293.5" y="406.9" class="st1" width="125" height="125"/>
	<rect x="418.5" y="406.9" class="st0" width="125" height="125"/>
	<rect x="543.5" y="406.9" class="st1" width="125" height="125"/>
	<rect x="668.5" y="406.9" class="st0" width="125" height="125"/>
	<rect x="297.6" y="36.1" class="st3" width="491.7" height="491.7"/>
</g>
</svg>
