<?xml version="1.0" encoding="utf-8"?>
<!-- Generator: Adobe Illustrator 26.0.1, SVG Export Plug-In . SVG Version: 6.00 Build 0)  -->
<svg version="1.1" id="Layer_1" xmlns="http://www.w3.org/2000/svg" xmlns:xlink="http://www.w3.org/1999/xlink" x="0px" y="0px"
	 viewBox="0 0 800 800" style="enable-background:new 0 0 800 800;" xml:space="preserve">
<style type="text/css">
	.st0{fill:#424242;}
	.st1{fill:#FF7565;}
	.st2{fill:#EE2712;}
	.st3{fill:#F42121;}
</style>
<path class="st0" d="M689.2,284.1L481.3,543l118.6-270.9l-46.3-13.4L424.5,555.9V254.3h-48.9v301.6L246.4,258.7l-46.3,13.4
	L318.7,543L110.8,284.1c-31.1,0.1-40.4,23.4-40.4,23.4L400,718l329.6-410.5C729.6,307.5,720.2,284.2,689.2,284.1z"/>
<path class="st1" d="M400,0C222.1,0,77.2,140.8,70.4,317h0.2c22-20.1,51.3-32.3,83.4-32.3c31.5,0,60.2,11.7,82,31
	c21.9-19.3,50.6-31,82-31s60.2,11.7,82,31l0,0l0,0c21.9-19.3,50.6-31,82-31c31.5,0,60.2,11.7,82,31c21.9-19.3,50.6-31,82-31
	c32.1,0,61.4,12.2,83.4,32.3h0.2C722.8,140.8,577.9,0,400,0z"/>
<g>
	<path class="st2" d="M235.3,315.1c0.2,0.2,0.5,0.4,0.7,0.6c21.9-19.3,50.6-31,82-31c31.5,0,60.2,11.7,82,31V0
		C311.5,0,239.3,226.2,235.3,315.1z"/>
	<path class="st2" d="M400,0c177.9,0,322.8,140.8,329.6,317h-0.2c-22-20.1-51.3-32.3-83.4-32.3c-31.1,0-59.5,11.5-81.3,30.4
		C560.7,226.2,488.5,0,400,0z"/>
</g>
<g>
	<g>
		<polygon class="st3" points="400.8,759.1 325.7,798.7 337.1,713.4 279.6,653.3 361.7,635.4 401.3,558.7 440.6,632.9 522.6,645.6 
			464.8,709.3 475.8,793.9 		"/>
	</g>
</g>
</svg>
