<?xml version="1.0" encoding="utf-8"?>
<!-- Generator: Adobe Illustrator 26.0.1, SVG Export Plug-In . SVG Version: 6.00 Build 0)  -->
<svg version="1.1" id="Layer_1" xmlns="http://www.w3.org/2000/svg" xmlns:xlink="http://www.w3.org/1999/xlink" x="0px" y="0px"
	 viewBox="0 0 1080 1080" style="enable-background:new 0 0 1080 1080;" xml:space="preserve">
<style type="text/css">
	.st0{fill:#999999;}
	.st1{fill:#CCCCCC;}
	.st2{fill:#F9E570;}
	.st3{fill:#A0A0A0;}
	.st4{fill:#C9AE3F;}
	.st5{fill:#00C4BA;}
</style>
<rect x="537.6" y="611.4" class="st0" width="19.1" height="59.9"/>
<path class="st0" d="M632.6,548.8c-1.5-4.8-2.4-13.5-2.4-13.5V363c0-5.5-4.5-10-10-10h0c-5.5,0-10,4.5-10,10v172.3
	c0,0-0.9,8.8-2.4,13.5c-1.5,4.8-6.1,13.6-6.1,30.5v21.2v70.8h37v-70.8v-21.2C638.7,562.4,634.1,553.6,632.6,548.8z"/>
<path class="st0" d="M456.9,322.6h-2.5c-4.9,0-8.8-3.9-8.8-8.8V14c0-4.9,3.9-8.8,8.8-8.8h2.5c4.9,0,8.8,3.9,8.8,8.8v299.8
	C465.7,318.7,461.7,322.6,456.9,322.6z"/>
<path class="st1" d="M457.9,650.5h-4.6c-8.8,0-16-7.1-16-16V305.3c0-8.8,7.1-16,16-16h4.6c8.8,0,16,7.1,16,16v329.3
	C473.9,643.4,466.7,650.5,457.9,650.5z"/>
<path class="st0" d="M482.3,687.5H429c-5.8,0-10.6-4.7-10.6-10.6V573.8c0-5.8,4.7-10.6,10.6-10.6h53.3c5.8,0,10.6,4.7,10.6,10.6
	v103.2C492.8,682.8,488.1,687.5,482.3,687.5z"/>
<path class="st2" d="M711.4,654.6H383.5c-10.7,0-19.4,8.7-19.4,19.4v66.1c0,10.7,8.7,19.4,19.4,19.4h16.1v281.9
	c0,18.4,14.9,33.3,33.3,33.3h228.5c18.4,0,33.3-14.9,33.3-33.3V759.6h16.7c10.7,0,19.4-8.7,19.4-19.4v-66.1
	C730.9,663.3,722.2,654.6,711.4,654.6z"/>
<path class="st3" d="M619.1,776.4H474.7c-10.8,0-19.6,8.8-19.6,19.6v185.7c0,10.8,8.8,19.6,19.6,19.6h144.4
	c10.8,0,19.6-8.8,19.6-19.6V796C638.7,785.1,629.9,776.4,619.1,776.4z"/>
<polygon class="st4" points="364.9,746 730.9,746 694.7,801.6 399.6,801.6 "/>
<g id="SVGRepo_bgCarrier">
</g>
<g id="SVGRepo_tracerCarrier">
</g>
<path class="st1" d="M557.7,580.2h-21.1c-4.5,0-8.2,3.7-8.2,8.2v21.1c0,4.5,3.7,8.2,8.2,8.2h21.1c4.5,0,8.2-3.7,8.2-8.2v-21.1
	C566,583.9,562.3,580.2,557.7,580.2z"/>
<g id="SVGRepo_bgCarrier_00000129165272791771383330000003565893939982131901_">
</g>
<g id="SVGRepo_tracerCarrier_00000137829288064908312700000000677353432470753721_">
</g>
<g>
	<path class="st5" d="M903.6,576.7c144.4-114.4,144.7-332.8,0-447.4c-7-5.5-17.2-4.4-22.7,2.6c-5.5,7-4.4,17.2,2.6,22.7
		c128.1,101.5,128.3,295.1,0,396.7c-7,5.6-8.2,15.7-2.6,22.7C886.4,581.1,896.5,582.2,903.6,576.7z"/>
	<path class="st5" d="M845,203.3c-7-5.6-17.2-4.4-22.7,2.6c-5.6,7-4.4,17.2,2.6,22.7c80.3,63.6,80.4,184.9,0,248.6
		c-7,5.6-8.2,15.7-2.6,22.7c5.6,7,15.7,8.2,22.7,2.6C941.7,426.1,941.8,280,845,203.3z"/>
	<path class="st5" d="M786.5,277.3c-7-5.5-17.2-4.4-22.7,2.6c-5.5,7-4.4,17.2,2.6,22.7c32.4,25.7,32.5,74.8,0,100.6
		c-7,5.5-8.2,15.7-2.6,22.7c5.5,7,15.7,8.2,22.7,2.6C835.3,390,835.4,316,786.5,277.3z"/>
</g>
<g>
	<path class="st5" d="M170.3,574.1c5.5-7,4.4-17.2-2.6-22.7c-128.3-101.6-128.1-295.2,0-396.7c7-5.5,8.2-15.7,2.6-22.7
		c-5.5-7-15.7-8.2-22.7-2.6c-144.7,114.6-144.4,333,0,447.4C154.5,582.2,164.7,581.1,170.3,574.1z"/>
	<path class="st5" d="M206.1,502.6c7,5.6,17.2,4.4,22.7-2.6c5.6-7,4.4-17.2-2.6-22.7c-80.4-63.7-80.3-185,0-248.6
		c7-5.5,8.2-15.7,2.6-22.7c-5.6-7-15.7-8.2-22.7-2.6C109.3,280,109.4,426.1,206.1,502.6z"/>
	<path class="st5" d="M264.6,428.6c7,5.5,17.2,4.4,22.7-2.6c5.5-7,4.4-17.2-2.6-22.7c-32.5-25.7-32.4-74.9,0-100.6
		c7-5.5,8.2-15.7,2.6-22.7c-5.5-7-15.7-8.2-22.7-2.6C215.7,316,215.8,390,264.6,428.6z"/>
</g>
</svg>
