<?xml version="1.0" encoding="utf-8"?>
<!-- Generator: Adobe Illustrator 26.0.1, SVG Export Plug-In . SVG Version: 6.00 Build 0)  -->
<svg version="1.1" id="Layer_1" xmlns="http://www.w3.org/2000/svg" xmlns:xlink="http://www.w3.org/1999/xlink" x="0px" y="0px"
	 viewBox="0 0 500 500" style="enable-background:new 0 0 500 500;" xml:space="preserve">
<style type="text/css">
	.st0{fill:#F42121;}
	.st1{fill:#848484;}
</style>
<g>
	<g>
		<polygon class="st0" points="390.6,385.1 358.4,425.4 342.5,376.3 294.2,358.1 336,327.8 338.4,276.3 380.2,306.7 429.9,293 
			413.9,342.1 442.2,385.2 		"/>
	</g>
</g>
<polygon class="st1" points="322.5,270.9 64.1,54.4 329.2,294.1 "/>
<polygon class="st1" points="306.9,332.9 35.4,110.1 292,336.3 "/>
<polygon class="st1" points="413.3,286.6 200.6,107.1 404.9,294.1 "/>
<g>
	<g>
		<polygon class="st0" points="385.3,199.8 366.5,223.2 357.3,194.7 329.2,184.1 353.5,166.5 354.9,136.5 379.2,154.2 408.1,146.3 
			398.8,174.8 415.3,199.8 		"/>
	</g>
</g>
<polygon class="st1" points="341.9,132.3 191.8,6.5 345.9,145.8 "/>
<polygon class="st1" points="337.4,170.8 179.6,41.4 328.7,172.8 "/>
<polygon class="st1" points="395.1,142.1 271.5,37.8 390.2,146.4 "/>
<polygon class="st1" points="267.1,402.6 116.9,276.8 271,416.1 "/>
<polygon class="st1" points="250.1,448.1 92.3,318.7 241.4,450.1 "/>
<polygon class="st1" points="320.3,412.3 196.7,308 315.4,416.7 "/>
<g>
	<g>
		<polygon class="st0" points="305.5,470 286.8,493.5 277.6,464.9 249.5,454.3 273.8,436.7 275.2,406.8 299.5,424.5 328.4,416.5 
			319.1,445 335.5,470.1 		"/>
	</g>
</g>
</svg>
