<?xml version="1.0" encoding="utf-8"?>
<!-- Generator: Adobe Illustrator 26.0.1, SVG Export Plug-In . SVG Version: 6.00 Build 0)  -->
<svg version="1.1" id="Layer_1" xmlns="http://www.w3.org/2000/svg" xmlns:xlink="http://www.w3.org/1999/xlink" x="0px" y="0px"
	 viewBox="0 0 1080 1080" style="enable-background:new 0 0 1080 1080;" xml:space="preserve">
<style type="text/css">
	.st0{fill:#515353;}
	.st1{fill:#636868;}
	.st2{fill:#F58331;}
	.st3{fill:#383C3F;}
	.st4{fill:#A26829;}
	.st5{fill:#FCAF69;}
	.st6{fill:#969696;}
	.st7{fill:#FFFFFF;}
	.st8{font-family:'FranklinGothic-Demi';}
	.st9{font-size:74.3571px;}
</style>
<g>
	<path class="st0" d="M772.2,1069.5h-53.4c-9.7,0-17.5-7.8-17.5-17.5V25.9c0-9.7,7.8-17.5,17.5-17.5h53.4c9.7,0,17.5,7.8,17.5,17.5
		V1052C789.7,1061.6,781.9,1069.5,772.2,1069.5z"/>
	<path class="st1" d="M728.2,1031.1h-11.8c-3.1,0-5.5-2.5-5.5-5.5V37.5c0-3.1,2.5-5.5,5.5-5.5h11.8c3.1,0,5.5,2.5,5.5,5.5v988.1
		C733.7,1028.7,731.2,1031.1,728.2,1031.1z"/>
	<path class="st2" d="M566.6,595.4H377.9c-10.8,0-19.5,8.7-19.5,19.5V1052c0,10.8,8.7,19.5,19.5,19.5h188.8
		c10.8,0,19.5-8.7,19.5-19.5V614.9C586.1,604.1,577.4,595.4,566.6,595.4z"/>
	<path class="st2" d="M638.2,665.6H306.3c-8.8,0-16-7.2-16-16V526.3c0-8.8,7.2-16,16-16h331.8c8.8,0,16,7.2,16,16v123.3
		C654.2,658.5,647,665.6,638.2,665.6z"/>
	<polygon class="st3" points="610.2,915.3 610.2,772.9 558.2,791 558.2,937.3 	"/>
	<path class="st1" d="M701.3,772.9v152.8c0,0-10.9-12.3-21.8-12.3s-69.3,1.9-69.3,1.9V772.9H701.3z"/>
	<path class="st2" d="M524.7,103.5V62.2c0-18.6-15.1-33.8-33.8-33.8h-37.4c-18.6,0-33.8,15.1-33.8,33.8L400,488.9h53.5h16.3h2.8H491
		h51.6L524.7,103.5z"/>
	<path class="st4" d="M506.4,665.6H439l0,0l-120.4-0.3c0,0,23.9,10.1,31.8,32.2c7.9,22.1,7.9,52.4,7.9,52.4s16.7-38,113.9-38
		c0.2,0,0.3,0,0.5,0c0.2,0,0.3,0,0.5,0c97.2,0,113.9,38,113.9,38s0-30.2,7.9-52.4c7.9-22.1,31.8-32.2,31.8-32.2L506.4,665.6z"/>
	<polygon class="st5" points="404.2,467.2 318.6,510.6 621.1,510.3 542.4,467.2 	"/>
	<path class="st5" d="M410.5,467.2c0,0,16.3-354.9,17.4-379.2s8.9-43.7,15.3-43.8c10,0,1,426.6,1,426.6L410.5,467.2z"/>
	<path class="st5" d="M313.5,651.4c0,0-13.4-4.9-12-50.6c1.4-45.7-1.7-73.8,17.1-74.5s68,0,68,0s-55.5,8.4-63.3,23.2
		c-7.7,14.8-12.7,36.6-10.5,63.3S313.5,651.4,313.5,651.4z"/>
	<path class="st1" d="M701.3,772.9v152.7c0,0,1.7,5.6,9.5,10.8v-143C701.6,784.1,701.3,772.9,701.3,772.9z"/>
	<path class="st1" d="M789.7,920.2v-136h-5.8c0,0-4.7,23.7-43.2,21.1c-2.5-0.2-4.8-0.5-6.9-0.8v139.4c3.5,0.4,7.4,0.7,11.8,0.7
		C790.9,944.5,789.7,920.2,789.7,920.2z"/>
	<path class="st6" d="M710.8,793.4v143c4.9,3.2,12.2,6.2,22.9,7.4V804.4C722.8,802.5,715.6,798.2,710.8,793.4z"/>
	<path class="st5" d="M403.1,749.9h-15.8c-4.1,0-7.4,3.3-7.4,7.4v266.4c0,4.1,3.3,7.4,7.4,7.4h15.8c4.1,0,7.4-3.3,7.4-7.4V757.3
		C410.5,753.2,407.2,749.9,403.1,749.9z"/>
	<text transform="matrix(6.123234e-17 -1 1 6.123234e-17 492.6974 968.2659)" class="st7 st8 st9">SART</text>
</g>
</svg>
