<svg xmlns="http://www.w3.org/2000/svg" viewBox="0 0 938.71 882.92"><defs><style>.a2918fda-4eb8-4ded-b8b0-63256e981a06{fill:#bababb;}.b2bd5336-3637-4526-b3ca-45337e733d52{fill:none;stroke:#ed1c24;stroke-miterlimit:10;}.e7efa7c9-af61-4afc-9737-16771a74230f{fill:#d8d8d8;}.ae4af7d5-e67c-440d-a5d9-56d5a78c4010{fill:#fff;}.b1b856ad-9ee6-4dd6-abda-6f0bc61fba0f{fill:#bbbbbd;}.f9c24b2f-0592-424b-94ef-34cc79f46f6e{fill:#d7d9d8;}</style></defs><g id="a84ce6e8-9b9b-4a5b-972d-52d303f3296e" data-name="Layer 2"><g id="ba7c8935-9e28-4922-b082-e3b262fd16d3" data-name="Layer 1"><path class="a2918fda-4eb8-4ded-b8b0-63256e981a06" d="M938.45,802.65c2.59-51.79-15.53-75.09-15.53-75.09s44-57-20.72-85.45-103.57-23.3-103.57-23.3,51.78-31.07,36.25-75.09-46.61-46.61-46.61-46.61,49.2-69.91-36.25-93.22c-1.44-.39-2.82-.69-4.22-1,6.26,11.23,13.88,29.06,9.83,44.2-6.47,24.16-36.25,41.43-36.25,41.43s48.76,16.4,31.07,69.91-46.18,66.89-46.18,66.89,42.3-.86,47.91,24.6-14.24,39.27-14.24,39.27,79.13-11.22,78.84,42.29c-.28,49.49-24.63,49.89-28.31,49.67,5.28.46,54.9,5.81,18.08,41.61-38.84,37.76-127.31,56.32-225.27,60.2h235.5S935.86,854.44,938.45,802.65Z"/><path class="b2bd5336-3637-4526-b3ca-45337e733d52" d="M469.35,608.87h0Z"/><path class="e7efa7c9-af61-4afc-9737-16771a74230f" d="M790.47,781.11l-.47,0,.47,0c3.68.22,28-.18,28.31-49.67.29-53.51-78.84-42.29-78.84-42.29s19.85-13.81,14.24-39.27-47.91-24.6-47.91-24.6,28.49-13.38,46.18-66.89-31.07-69.91-31.07-69.91,29.78-17.27,36.25-41.43c4-15.14-3.57-33-9.83-44.2-81.86-19.94-101.4,45.32-100.38,60.6,1,15.53,21.74,44,21.74,44s-33.66-18.13-75.09-5.18-54.38,41.43-54.38,41.43-17.87-5.18-50.36,5.18-45.44,44-45.44,44S340.31,499.7,280.76,533.36,239.33,641,239.33,641,128,618.81,94.33,681s-25.9,93.22-25.9,93.22-46.61,0-64.73,31.07S40,882.92,40,882.92H189.27s55.89-17.48,53.94-47.9-9.06-46.61-9.06-46.61,36.9,3.53,62.79-7.3,38.84-46.43,38.84-46.43,13,36.25,90,22,53.73-106.16,53.73-106.16,37.55,8.41,47.9-4.53S541,614.28,541,614.28s12.94,28.48,0,48.55-18.13,15.53-18.13,15.53,34.31,95.16-34.95,137.24-143.06,11.65-143.06,11.65,1.29,18.77-7.13,23.3S319,857,319,857s18.13,25.89,1.94,25.89H583.28c98-3.88,186.43-22.44,225.27-60.2C845.37,786.92,795.75,781.57,790.47,781.11Z"/><path class="a2918fda-4eb8-4ded-b8b0-63256e981a06" d="M319,857s10.36-1.95,18.77-6.48,7.13-23.3,7.13-23.3,73.79,30.42,143.06-11.65,34.95-137.24,34.95-137.24S528,682.89,541,662.83s0-48.55,0-48.55-3.24,18.77-13.6,31.72-47.9,4.53-47.9,4.53,23.3,91.92-53.73,106.16-90-22-90-22-12.94,35.6-38.84,46.43-62.79,7.3-62.79,7.3,7.12,16.18,9.06,46.61-53.94,47.9-53.94,47.9H320.89C337.08,882.92,319,857,319,857Z"/><path class="ae4af7d5-e67c-440d-a5d9-56d5a78c4010" d="M109.86,772.44c-9.21,12.21-33.66,25-25.89,44.88s25,30.21,40.57,23.31,11.22-34.53,19-43.16,28.49-11.22,45.75-36.25,6-53.51-9.5-57-56.1-5.18-61.28,15.53S120.29,758.63,109.86,772.44Z"/><path class="ae4af7d5-e67c-440d-a5d9-56d5a78c4010" d="M363.62,654.2c-27.47-17.35-76,5.17-69.91-35.39S342,578.24,374.84,595.5s58.69,66.46,44,78.55S380,664.55,363.62,654.2Z"/><path class="ae4af7d5-e67c-440d-a5d9-56d5a78c4010" d="M669.16,576.51c-34.38-6.06-24.17,25-45.74,19.86s-27.62-56.11,22.87-58.7,90.19,2.59,69.48,19.86S683.83,579.1,669.16,576.51Z"/><path class="b1b856ad-9ee6-4dd6-abda-6f0bc61fba0f" d="M577.92,319.48C524.83,394,456.84,365.12,456.84,365.12s-104.32,62.4-182.75,31.68c2.06,25.84,16.08,65.36,80.29,76.36C452.18,489.93,506.2,434,506.2,434s123,20.49,141.58-105.25c11.29-76.2-21.54-117.47-49.16-138.19C606.79,220.21,612.45,271,577.92,319.48Z"/><path class="b1b856ad-9ee6-4dd6-abda-6f0bc61fba0f" d="M218.39,300.85s-12.1,19.56-71.72,19.56a100,100,0,0,1-39.56-7.9c4.13,16,12.75,30.93,28.39,42.36,37.47,27.41,80.3,28.61,108.55,25.2C202.28,347.12,218.39,300.85,218.39,300.85Z"/><path class="b1b856ad-9ee6-4dd6-abda-6f0bc61fba0f" d="M484.17,115.41c2.76-.7,24.59-5.5,60.22,7.54,13.69,5,23.26,11.81,30,18.47,2.49-20.92-2.69-47.71-37.13-64.57C527.17,103.42,487.93,114.42,484.17,115.41Z"/><path class="f9c24b2f-0592-424b-94ef-34cc79f46f6e" d="M389.78,53.09S361.83,0,305,0,231.43,32.6,198.83,66.13,81.47,100.59,86.13,144.37s42.47,48.39,36.33,63.34c0,0-27.72,57-15.35,104.8a100,100,0,0,0,39.56,7.9c59.62,0,71.72-19.56,71.72-19.56s-16.11,46.27,25.66,79.22c18.8-2.26,31.16-6.57,31.16-6.57a85.81,85.81,0,0,0-1.12,23.3c78.43,30.72,182.75-31.68,182.75-31.68s68,28.87,121.08-45.64c34.53-48.46,28.87-99.27,20.7-128.88-18-13.48-33.74-18.29-33.74-18.29a93.65,93.65,0,0,0,9.47-30.89c-6.7-6.66-16.27-13.46-30-18.47-35.63-13-57.46-8.24-60.22-7.54l-.32.09.32-.09c3.76-1,43-12,53.05-38.56-3-1.47-6.14-2.89-9.59-4.2C451.25,43.78,389.78,53.09,389.78,53.09Z"/><path class="ae4af7d5-e67c-440d-a5d9-56d5a78c4010" d="M227.71,176c-4,2.41-22.36,25.15-22.36,44.71s-36.32,16.9-34.46-18.1,13-54.86,28.38-61.23,40.55,0,40.55,0,8.38-81.81,83.82-72.49S400,150.55,400,150.55s-30.74-33.19-64.27-23.88-39.12,54-39.12,54S263.1,154.62,227.71,176Z"/><path class="ae4af7d5-e67c-440d-a5d9-56d5a78c4010" d="M315.26,280.36s14-74.38,57.75-77.71,48.43,17.17,48.43,17.17,43.78-48.3,89.42-17.17,0,105.65,0,105.65,3.73-40.05-35.39-50.3-52.27,18.63-52.27,18.63-12-49.26-48.33-43.72S315.26,280.36,315.26,280.36Z"/></g></g></svg>