<?xml version="1.0" encoding="utf-8"?>
<!-- Generator: Adobe Illustrator 26.0.1, SVG Export Plug-In . SVG Version: 6.00 Build 0)  -->
<svg version="1.1" id="Layer_1" xmlns="http://www.w3.org/2000/svg" xmlns:xlink="http://www.w3.org/1999/xlink" x="0px" y="0px"
	 viewBox="0 0 1120.1 1138.5" style="enable-background:new 0 0 1120.1 1138.5;" xml:space="preserve">
<style type="text/css">
	.st0{fill:#FFAE55;}
	.st1{fill:#E27A0A;}
	.st2{fill:#FFFFFF;}
</style>
<path class="st0" d="M1045.9,978.2c22.2-27.9,7.9-72.4-21-93.3s-66.7-24.1-102.4-24.3c19.2-22.2,24-55.7,12-82.4
	s-40.5-45.2-69.8-45.4c16.6-9.1,33-40.9,25.5-58.3c-12.3-28.2-45.3-67.7-108.9-36.6c-69.6,34-33.2,91-33.2,91s-67.9,5-101.2,15.5
	c-18.9,6.2-33.3,21.7-38.1,41c-30.4-9.1-65.6,1.2-86.4,25.1c-8.4,9.8-14.4,21.5-17.4,34c-4.9-11.9-11.9-22.8-20.7-32.2
	c-21.6-23-51.9-36.5-82.8-43c-37-7.8-81.7-3.2-102.9,28c-17.7,25.9-12.9,60.4-7.5,91.2c-42.6-15.5-93-7.6-128.8,20.3
	s-55.9,74.7-51.4,119.8c-23.7-6.7-49.9-8.2-72.4,1.8c-22.5,9.9-40.3,83.1-38.4,107.7h866.8c32.4,2.7,64-10,94-22.4
	c12.4-5.1,24.8-10.3,36.3-17c23.3-13.6,42.2-33.5,54.6-57.4C1062.5,1020.6,1065.3,990.9,1045.9,978.2z"/>
<path class="st1" d="M265.1,1138.1h122.2c0.3-9-2.4-18.1-8.4-24.9c16.2,2.4,32-14.8,28.2-30.8c50.6,19,111.4,15.8,154.1-17.3
	s60.2-98.6,31.5-144.4c18.5,0.3,33.8-14.5,34.1-33c0.2-9.1-3.4-17.8-9.8-24.3c-9,26.7-44.7,40.3-69.2,26.3
	c13.6,39.3-4.3,87.1-40.4,107.7S421,1009.5,394,977.9c-1.6,22.9-18.1,43-38.7,53c-20.6,10-44.7,10.9-67.3,7
	c12.9,24.7,11.5,56.2-3.5,79.6C279.4,1125.5,272.8,1132.5,265.1,1138.1z"/>
<path class="st1" d="M1045.9,977.8c22.2-27.9,7.9-72.4-21-93.3s-66.7-24.1-102.4-24.3c19.2-22.2,24-55.7,12-82.4
	s-40.4-45.2-69.7-45.4c16.6-9.1,33-40.9,25.5-58.3c-8.1-18.7-25.3-42.2-54.4-47.1c1.3,12.3,9.4,33.4,8,42.8
	c-3.4,22.5-17.9,41.9-38.6,51.5c28.5,8.5,42.7,43,37.4,72.2s-25.3,53.5-46.7,74.1c16.2-6.5,36.7,1,44.9,16.4s3.1,36.5-11.3,46.4
	c23,8.8,51.9-2.2,71.9,12.3c13.2,9.6,17.6,28,14.7,44.1s-11.8,30.4-20.8,44c14.1,7.1,17.7,27.2,10.8,41.5s-21.3,23.4-36,29.4
	c-33.6,13.7-70.8,14.5-106.9,18.5c-24,2.7-48.8,7.4-70.5,17.7h174.1c32.4,2.7,64-10,94-22.4c12.4-5.1,24.8-10.3,36.3-17
	c23.3-13.6,42.2-33.5,54.6-57.4C1062.5,1020.2,1065.3,990.4,1045.9,977.8z"/>
<path class="st2" d="M407.5,890.9c14.7,2,29.8,7.1,39.8,18.1c4.8,5.3,8.2,11.9,13.8,16.5s14.4,6.5,19.6,1.5c2.2-2.1,3.3-5,4.1-7.9
	c12.2-45.2-47.2-97.9-90.1-98.3c-21.7-0.2-36.8,13.5-43,34.1C339.6,895.6,379.6,887,407.5,890.9z"/>
<path class="st2" d="M156.9,1028.7c-9.8,6.2-19.8,13-26.2,22.8s-8.2,23.4-1.3,32.8c4.5,6.2,12,9.6,19.4,11.8
	c8,2.3,16.9,3.4,24.4-0.3c8.4-4.2,13-13.7,15-22.9s2.1-18.8,4.7-27.9c24.2-7.7,43.4-26.4,51.8-50.4c11.5-33.8-22.9-58.8-53.1-44.3
	c-12.8,6.1-26.4,20.4-32.6,32.9C156.4,988.1,153.8,1030.7,156.9,1028.7z"/>
<path class="st2" d="M715.1,773.8c-17.6,8.6-31.2,27.1-29.8,46.7c0.3,3.9,1.2,8,3.7,11c6.4,7.9,19.3,5.6,27.7-0.1
	s15.2-14.1,24.9-17.4c13.6-4.6,29.4,2.2,42.8-3.1c9-3.6,14.9-12,20-20.2C822.3,761.2,724,769.5,715.1,773.8z"/>
<path class="st0" d="M1044.8,452.7c8.5-35.4,30.2-64.8,41.7-99s8.3-80.9-20.6-97.4c29-23.4,47.1-63,47.1-103.3s-18-80-46.9-103.4
	c-29.3-23.7-44.3-59.7-134.7-46.9c-55,7.8-112.8,75.7-105.9,137.8c-71.1-5.6-148.5-38.1-209.3,3.8c-45.8,31.5-65.1,96.2-68.7,156.7
	c-15.7-30.3-57.5-41.7-89.6-15.7c-25.3,20.4-44.2,58.1-75.3,58c26.6-21,57.9-52.9,36.6-117.6c-8-24.4-35.7-28.1-58.6-25.1
	c17.2-28.8,1.2-70.7-25-88.9s-58.6-19.1-89.4-19.5c16.9-29.6,0.6-74.2-28.7-86s-64.3,6.8-78.8,38s-10.2,70.9,6.7,100.5
	C113.6,160.9,90,196,84.8,234.9s8,80.4,34,106.5c-48.7,1.5-94.6,40.9-109,93.4s3.9,114.4,43.4,146.6s97.2,32.5,136.9,0.5
	c34.3,42.6,87.2,65.2,137.9,58.9s98-41.3,123.3-91.3c25.8,38,58.4,74.1,99.9,83.9c48.1,11.3,98.5-16.3,131-58s50.1-95.4,63.7-148.7
	c7.3,24,38,27.4,57.3,14.4s31.1-36,46.1-54.9s37.8-34.7,59-26.2c-24,36.9-15.3,91.3,9.3,127.7s61.5,59.1,97.3,80.6
	c10.4,6.3,105.4,36.1,105.4,36.1C1067.1,584.7,1030,514.8,1044.8,452.7z"/>
<path class="st1" d="M858.2,303.4c-15.2,39.9-45.7,71.9-82,86.2c-12.2,4.8-30.6,3.7-32.3-10.8c-12.5,24.1-50.7,20.1-59-6.2
	c0.4,31.2-13.5,60.7-31.1,84.8c-28.7,39.4-71,69-116.2,68.5s-90.8-37.5-96.8-88c-4.5,40-41.6,71.4-76.9,64.8
	c-14.5,41.1-58.1,63.8-96.6,55.7s-70.2-42.6-85.1-83.5c-14.3,44-56.9,74-98.2,69.2C48.4,540,16.5,510,4.6,471.9
	c-0.2,42.5,17.6,85.3,48.2,110.3c39.5,32.2,97.1,32.5,136.8,0.5c34.4,42.6,87.2,65.2,137.9,58.9s98-41.3,123.3-91.3
	c25.8,38,58.4,74.1,99.9,83.9c48.1,11.3,98.5-16.3,131-58s50-95.4,63.7-148.7c7.3,24,38,27.4,57.3,14.4s31.1-36,46.1-54.9
	c12.5-15.8,30.6-29.4,48.5-28.5c9-10.7,17.6-21.6,23-34.9C898.9,335,870.9,325.8,858.2,303.4z"/>
<path class="st1" d="M1044.8,451.4c8.5-35.4,30.2-64.8,41.7-99s8.3-80.9-20.6-97.4c29-23.4,47.1-63,47.1-103.3s-18-79.9-46.9-103.4
	c-18.8-15.3-31.8-35.7-62.8-44.8c13.1,10.9,25.4,23,35.7,37.2c14.3,19.7,24.5,43.8,25.7,69.2s-7.3,51.4-22.8,70.1
	s-37.9,29.6-60.6,29.8c11.8,15.8,22.4,33.6,26.9,53.7s2,43-9.9,58.8c-1.8,2.4-3.9,4.8-4.6,7.9c-0.7,3.3,0.5,6.8,0.8,10.2
	c1.4,13.5-9.3,24.1-15.4,35.9c-10.4,20-7.5,45.6,0.5,67s20.6,40.1,29.7,60.8c5.2,11.9,9.4,24.5,16.5,35.1
	c8.1,12.1,19.6,20.8,30.8,29.2c13.5,10.2,27.3,20.4,41.9,28.2c12.7,4.1,21.7,6.9,21.7,6.9C1067.1,583.4,1030,513.4,1044.8,451.4z"/>
<path class="st1" d="M355.5,346.1c11.1,1,22.2-1.6,32.4-6.8c25.4-21.1,51.7-52.8,31.7-113.6c-8-24.4-35.7-28.1-58.6-25.1
	c17.2-28.8,1.2-70.7-25-88.9c-7-4.8-14.7-8.7-22.8-11.4c3.9,5.4,13.4,12.2,16.3,17c5.4,9,8.9,19.1,10.1,29.5
	c2.9,25.5-7,51.8-23.6,69.4c17.9,0.5,37.5,1.8,50.6,15.5c9.2,9.7,13.5,24.2,14.5,38.4C383.1,298.1,373.4,326.8,355.5,346.1z"/>
<path class="st2" d="M147.6,220.6c-0.9,3.4-1.4,6.9-2.9,10.1c-1.4,2.9-3.5,5.3-5.3,7.8c-8.6,11.9-11.7,28.6-8.1,43.4
	s13.9,27.3,26.6,32.6c9.8,4,21.4,3.6,30-3.1s12.9-20.4,8.4-31.1c-3-7.1-9.5-13.7-7.3-21.2c3.1-1.2,6.5,0.7,9.6,2
	c32.3,13.5,54.5-26,42.2-57.4c-10.1-25.8-35.3-27.3-57.4-21.5C166.4,186.6,152.4,201.7,147.6,220.6z"/>
<path class="st2" d="M611.8,210.5c13.2-17.3,33.1-27.7,53.2-27.9c4.7,0,9.5,0.4,13.8-1.6c2.9-1.3,5.3-3.6,7.8-5.7
	c16.3-13.9,37.3-21.5,57.4-17.7s38.7,20,44.6,42.1c3.9,14.4,0.5,33.2-11.9,38.9c-18.3,8.4-35.3-17.2-54.9-19
	c1.8,14.5-3.6,29.9-13.8,38.9c-10.2,9-24.7,11.4-36.8,5.9c-4.3-2-9.7-4.7-13.2-1.2c-2.8,2.8-2.2,7.7-2.2,11.9
	c0.2,17.8-14.9,33.8-30.6,32.4C582.6,304.3,593.7,234.3,611.8,210.5z"/>
<path class="st2" d="M215.9,417.2c6.1-27.5,29.3-48,54.2-51.8c8.6-1.3,17.7-0.8,25.6,3.4c8.5,4.5,14.2,12.8,15.4,22.3
	c0.5,4.4-0.2,9.2-2.8,12.5c-1.8,2.1-4,3.8-6.5,4.9c-6.2,3.2-12.6,5.8-18.2,10.3s-10,11.3-10.1,19c-0.1,13.6,13.5,24.9,10.7,38.1
	c-5.2,24.3-31.9,17.3-43.4,7.1C222.5,467.1,209.9,444.5,215.9,417.2z"/>
<path class="st2" d="M997.4,95.5c-2.9,8.8-9.5,17.6-17.8,17.3c-10.1-0.4-13.7-11.5-20.3-17.9c-11.3-10.9-16.4-9.5-30.8-6.9
	c-18.3,3.3-42.9-4.7-25.1-28.2C930.4,24,1018.1,33.1,997.4,95.5z"/>
</svg>
