<?xml version="1.0" encoding="utf-8"?>
<!-- Generator: Adobe Illustrator 26.0.1, SVG Export Plug-In . SVG Version: 6.00 Build 0)  -->
<svg version="1.1" id="Layer_1" xmlns="http://www.w3.org/2000/svg" xmlns:xlink="http://www.w3.org/1999/xlink" x="0px" y="0px"
	 viewBox="0 0 1080 1080" style="enable-background:new 0 0 1080 1080;" xml:space="preserve">
<style type="text/css">
	.st0{fill:#F40000;}
	.st1{fill:#9B1B1B;}
	.st2{fill:#660000;}
	.st3{fill:#FFB24B;}
	.st4{fill:#ED9E37;}
	.st5{fill:#F5A13C;}
	.st6{fill:#D07213;}
	.st7{font-family:'FranklinGothic-Heavy';}
	.st8{font-size:480.3558px;}
	.st9{fill:#FFFFFF;}
	.st10{font-family:'Georgia';}
	.st11{font-size:322.0667px;}
</style>
<circle class="st0" cx="530.5" cy="547.3" r="477.5"/>
<circle class="st1" cx="530.5" cy="547.3" r="365"/>
<circle class="st2" cx="540" cy="540" r="231.1"/>
<g id="SVGRepo_bgCarrier">
</g>
<g id="SVGRepo_tracerCarrier">
</g>
<g id="SVGRepo_bgCarrier_00000129165272791771383330000003565893939982131901_">
</g>
<g id="SVGRepo_tracerCarrier_00000137829288064908312700000000677353432470753721_">
</g>
<image style="overflow:visible;" width="639" height="450" xlink:href="8E368334.jpg"  transform="matrix(0.9438 -0.3307 0.3307 0.9438 -1174.1384 671.2349)">
</image>
<path class="st3" d="M-408.2,267.3c42.4-63.6,58.3-310.9,58.3-310.9v-10.9c0-27.5-22.3-49.8-49.8-49.8h-766
	c-27.5,0-49.8,22.3-49.8,49.8V297c0,27.5,22.3,49.8,49.8,49.8h135.7C-1029.9,346.8-450.6,330.9-408.2,267.3z"/>
<polygon class="st4" points="-683.7,-22.4 -349.9,-29.5 -349.9,4.1 "/>
<polygon class="st4" points="-1215.4,4.1 -961,4.1 -1215.4,25.3 "/>
<polygon class="st4" points="-1215.4,194.8 -1127.1,194.8 -1215.4,210.7 "/>
<path class="st5" d="M-349.9,297V-22.4v-21.2c0,0-15.9,247.3-58.3,310.9c-42.4,63.6-621.8,79.5-621.8,79.5h630.3
	C-372.1,346.8-349.9,324.5-349.9,297z"/>
<polygon class="st5" points="-349.9,121.2 -770.3,113.6 -349.9,141.8 "/>
<circle class="st6" cx="-1171.2" cy="-58.6" r="15"/>
<circle class="st6" cx="-395.8" cy="-58.6" r="15"/>
<circle class="st6" cx="-395.8" cy="305.2" r="15"/>
<circle class="st6" cx="-1171.2" cy="305.2" r="15"/>
<g>
	<text transform="matrix(0.7197 0 0 1 -1073.9454 286.8982)" class="st5 st7" style="font-size:445.1475px;">SOS</text>
</g>
<text transform="matrix(0.7197 0 0 1 -1088.2228 269.6013)" class="st9 st7" style="font-size:445.1475px;">SOS</text>
<path class="st3" d="M954.1,493.3c42-71,44.7-338.4,44.7-338.4l-0.6-11.7c-1.6-29.6-26.9-52.3-56.5-50.7L116.3,137
	c-29.6,1.6-52.3,26.9-50.7,56.5L86,572.2c1.6,29.6,26.9,52.3,56.5,50.7l146.2-7.9C288.7,615.1,912.1,564.3,954.1,493.3z"/>
<polygon class="st4" points="640.3,197.1 999.6,170.1 1001.6,206.3 "/>
<polygon class="st4" points="68.9,256.6 343,241.8 70.2,279.4 "/>
<polygon class="st4" points="80,462.2 175.2,457 81,479.3 "/>
<path class="st5" d="M1018.6,521.9L1000,177.7l-1.2-22.8c0,0-2.8,267.4-44.7,338.4c-42,71-665.4,121.8-665.4,121.8l679.2-36.6
	C997.5,576.8,1020.2,551.5,1018.6,521.9z"/>
<polygon class="st5" points="1008.4,332.5 555,348.7 1009.6,354.7 "/>
<circle class="st6" cx="112.9" cy="186.5" r="16.2"/>
<circle class="st6" cx="948.5" cy="141.4" r="16.2"/>
<circle class="st6" cx="969.6" cy="533.5" r="16.2"/>
<circle class="st6" cx="134" cy="578.5" r="16.2"/>
<g>
	<text transform="matrix(0.7187 -3.876663e-02 5.386358e-02 0.9985 237.8143 553.1232)" class="st5 st7 st8">SOS</text>
</g>
<g>
	<path class="st9" d="M212.7,443l64.7-19.9c6.9,25.5,21.7,37.6,44.6,36.4c17.8-1,26.3-8,25.6-21.1c-0.4-6.9-2.7-12.1-7-15.7
		c-4.3-3.6-11.8-6.6-22.5-9c-40.9-8.6-67.6-21.2-80-37.9c-12.4-16.7-19.2-36.8-20.5-60.2c-1.6-30.1,5.3-55.7,20.6-76.5
		c15.4-20.9,38.5-32.2,69.4-33.8c46.9-2.5,79.2,22,97.1,73.4l-57.2,27.7c-7.2-21.1-20.1-31.1-38.6-30.1c-15.4,0.8-22.7,7.9-22,21.2
		c0.3,5.9,2.3,10.4,6,13.5c3.7,3.1,10.6,5.8,20.7,8.3c28,6.6,47.9,12.7,59.8,18.3c11.9,5.6,22.1,15.7,30.7,30.4s13.4,32.2,14.5,52.7
		c1.7,32.3-6.3,59.1-24.1,80.2c-17.8,21.1-42,32.5-72.7,34.1C265.7,537.9,229.4,507.3,212.7,443z"/>
	<path class="st9" d="M550.9,522.5c-32.4,1.7-59.5-11.7-81.6-40.5c-22-28.7-34.4-68.1-37-118c-2.6-47.8,5-87.8,22.9-120
		c17.8-32.2,44-49.2,78.6-51.1c32-1.7,58.9,11.5,80.7,39.8c21.8,28.3,34,66.9,36.6,115.9c2.7,50.7-5.2,92-23.9,123.7
		C608.4,504,583,520.7,550.9,522.5z M546.6,449.9c11.9-0.6,20.1-8.3,24.5-23.1c4.4-14.7,5.6-41.3,3.6-79.7
		c-3-55.6-15.2-82.8-36.7-81.6c-23.2,1.2-33,33.6-29.6,97C511.7,421.9,524.4,451.1,546.6,449.9z"/>
	<path class="st9" d="M660.9,418.8l64.7-19.9c6.9,25.5,21.7,37.6,44.6,36.4c17.8-1,26.3-8,25.6-21.1c-0.4-6.9-2.7-12.1-7-15.7
		c-4.3-3.6-11.8-6.6-22.5-9c-40.9-8.6-67.6-21.2-80-37.9c-12.4-16.7-19.2-36.8-20.5-60.2c-1.6-30.1,5.3-55.7,20.6-76.5
		c15.4-20.9,38.5-32.2,69.4-33.8c46.9-2.5,79.2,22,97.1,73.4l-57.2,27.7c-7.2-21.1-20.1-31.1-38.6-30.1c-15.4,0.8-22.7,7.9-22,21.2
		c0.3,5.9,2.3,10.4,6,13.5c3.7,3.1,10.6,5.8,20.7,8.3c28,6.6,47.9,12.7,59.8,18.3c11.9,5.6,22.1,15.7,30.7,30.4
		c8.6,14.7,13.4,32.2,14.5,52.7c1.7,32.3-6.3,59.1-24.1,80.2c-17.8,21.1-42,32.5-72.7,34.1C714,513.7,677.6,483.1,660.9,418.8z"/>
</g>
<path class="st3" d="M912,947.1c45.9-31.1,73.5-165,73.5-165l0.5-6c1.3-15-20.2-29.2-48-31.5l-774.9-66.4
	c-27.8-2.4-51.4,7.9-52.7,22.9L94,893.4c-1.3,15,20.2,29.2,48,31.5l137.3,11.8C279.3,936.7,866.1,978.2,912,947.1z"/>
<polygon class="st4" points="615.3,880.8 953.3,905.9 951.7,924.2 "/>
<polygon class="st4" points="109.5,712.6 366.8,734.7 108.5,724.2 "/>
<polygon class="st4" points="102.6,792.9 191.9,800.5 101.9,801.6 "/>
<path class="st5" d="M969.5,968.4l15-174.8l1-11.6c0,0-27.7,133.9-73.5,165c-45.9,31.1-632.7-10.4-632.7-10.4l637.6,54.7
	C944.7,993.7,968.2,983.5,969.5,968.4z"/>
<polygon class="st5" points="983.6,804.6 558.7,764 982.6,815.9 "/>
<circle class="st6" cx="126.8" cy="891.6" r="12.3"/>
<circle class="st6" cx="951.3" cy="784.8" r="12.3"/>
<circle class="st6" cx="936.2" cy="961" r="12.3"/>
<circle class="st6" cx="141.7" cy="717.5" r="12.3"/>
<text transform="matrix(0.7171 6.147103e-02 -8.540980e-02 0.9963 159.291 900.7714)" class="st4 st10 st11">··· --- ···</text>
<g>
	<path class="st9" d="M207.8,810.4c-0.5,5.9-2.5,10.7-5.9,14.6c-3.4,3.9-7.2,5.6-11.4,5.3c-4.2-0.4-7.7-2.7-10.4-7.1
		c-2.7-4.4-3.8-9.5-3.3-15.4c0.5-5.8,2.5-10.8,5.9-14.7c3.4-4,7.2-5.8,11.4-5.4c4.2,0.4,7.7,2.8,10.3,7.3
		C207.2,799.3,208.3,804.5,207.8,810.4z"/>
	<path class="st9" d="M272.3,815.9c-0.5,5.9-2.5,10.7-5.9,14.6c-3.4,3.9-7.2,5.6-11.4,5.3c-4.2-0.4-7.7-2.7-10.4-7.1
		c-2.7-4.4-3.8-9.5-3.3-15.4c0.5-5.8,2.5-10.8,5.9-14.7c3.4-4,7.2-5.8,11.4-5.4c4.2,0.4,7.7,2.8,10.3,7.3
		C271.7,804.9,272.8,810,272.3,815.9z"/>
	<path class="st9" d="M336.8,821.4c-0.5,5.9-2.5,10.7-5.9,14.6c-3.4,3.9-7.2,5.6-11.4,5.3c-4.2-0.4-7.7-2.7-10.4-7.1
		c-2.7-4.4-3.8-9.5-3.3-15.4c0.5-5.8,2.5-10.8,5.9-14.7c3.4-4,7.2-5.8,11.4-5.4c4.2,0.4,7.7,2.8,10.3,7.3
		C336.2,810.4,337.3,815.6,336.8,821.4z"/>
	<path class="st9" d="M484.6,849.1l-67.2-5.8l2.1-24.8l67.2,5.8L484.6,849.1z"/>
	<path class="st9" d="M571,856.5l-67.2-5.8l2.1-24.8l67.2,5.8L571,856.5z"/>
	<path class="st9" d="M657.4,863.9l-67.2-5.8l2.1-24.8l67.2,5.8L657.4,863.9z"/>
	<path class="st9" d="M771.9,858.7c-0.5,5.9-2.5,10.7-5.8,14.6c-3.4,3.9-7.2,5.6-11.4,5.3c-4.2-0.4-7.7-2.7-10.4-7.1
		c-2.7-4.4-3.8-9.5-3.3-15.4c0.5-5.8,2.5-10.8,5.9-14.7c3.4-4,7.2-5.8,11.4-5.4c4.2,0.4,7.7,2.8,10.3,7.3
		C771.3,847.7,772.4,852.9,771.9,858.7z"/>
	<path class="st9" d="M836.4,864.2c-0.5,5.9-2.5,10.7-5.8,14.6c-3.4,3.9-7.2,5.6-11.4,5.3c-4.2-0.4-7.7-2.7-10.4-7.1
		c-2.7-4.4-3.8-9.5-3.3-15.4c0.5-5.8,2.5-10.8,5.9-14.7c3.4-4,7.2-5.8,11.4-5.4c4.2,0.4,7.7,2.8,10.3,7.3
		C835.8,853.2,836.9,858.4,836.4,864.2z"/>
	<path class="st9" d="M900.9,869.8c-0.5,5.9-2.5,10.7-5.8,14.6c-3.4,3.9-7.2,5.6-11.4,5.3c-4.2-0.4-7.7-2.7-10.4-7.1
		c-2.7-4.4-3.8-9.5-3.3-15.4c0.5-5.8,2.5-10.8,5.9-14.7c3.4-4,7.2-5.8,11.4-5.4c4.2,0.4,7.7,2.8,10.3,7.3S901.4,863.9,900.9,869.8z"
		/>
</g>
<rect x="2127.7" y="1069.7" style="fill:none;" width="4.1" height="0"/>
</svg>
