<?xml version="1.0" encoding="iso-8859-1"?>
<!-- Uploaded to: SVG Repo, www.svgrepo.com, Generator: SVG Repo Mixer Tools -->
<!DOCTYPE svg PUBLIC "-//W3C//DTD SVG 1.1//EN" "http://www.w3.org/Graphics/SVG/1.1/DTD/svg11.dtd">
<svg version="1.1" id="Capa_1" xmlns="http://www.w3.org/2000/svg" xmlns:xlink="http://www.w3.org/1999/xlink" 
	 viewBox="0 0 449.86 449.86" xml:space="preserve">
<g>
	<rect x="121.96" y="164.17" style="fill:#51B7A6;" width="90.02" height="59.35"/>
	<path style="fill:#7C6655;" d="M268.9,148.87v15.3h-23.55v-31.01h7.84c7.22,0,13.3,4.87,15.14,11.51
		C268.7,146.01,268.9,147.42,268.9,148.87z"/>
	<path style="fill:#7C6655;" d="M155.32,19.91V38h-39.81V19.91C115.51,8.92,124.43,0,135.42,0S155.32,8.92,155.32,19.91z"/>
	<polygon style="fill:#51B7A6;" points="155.32,38 155.32,133.16 115.52,133.16 115.51,133.16 115.51,38 	"/>
	<path style="fill:#7C6655;" d="M205.54,133.16v31.01h-83.58v59.35h59v195.33h-74.32c-8.68,0-15.71-7.03-15.71-15.7V148.87
		c0-8.67,7.03-15.71,15.71-15.71h8.87v0.01h39.81v-0.01H205.54z"/>
	<polygon style="fill:#FCF4DE;" points="164.82,164.17 142.04,223.52 121.96,223.52 121.96,164.17 	"/>
	<g>
		<path style="fill:#665040;" d="M180.957,313.524h-25.63c-4.142,0-7.5-3.358-7.5-7.5s3.358-7.5,7.5-7.5h25.63
			c4.142,0,7.5,3.358,7.5,7.5S185.099,313.524,180.957,313.524z"/>
		<path style="fill:#665040;" d="M180.957,368.874h-25.63c-4.142,0-7.5-3.358-7.5-7.5s3.358-7.5,7.5-7.5h25.63
			c4.142,0,7.5,3.358,7.5,7.5S185.099,368.874,180.957,368.874z"/>
		<path style="fill:#665040;" d="M180.957,341.203h-38.51c-4.142,0-7.5-3.358-7.5-7.5s3.358-7.5,7.5-7.5h38.51
			c4.142,0,7.5,3.358,7.5,7.5S185.099,341.203,180.957,341.203z"/>
	</g>
	<path style="fill:#7C6655;" d="M245.35,50.91V69h-39.81V50.91c0-10.99,8.92-19.91,19.91-19.91C236.44,31,245.35,39.92,245.35,50.91
		z"/>
	<polygon style="fill:#C65C05;" points="205.54,133.16 205.54,69 245.35,69 245.35,133.16 245.35,164.17 205.54,164.17 	"/>
	<polygon style="fill:#E77200;" points="213.236,133.16 213.236,69 237.654,69 237.654,133.16 237.654,164.17 213.236,164.17 	"/>
	<polygon style="fill:#88C9B3;" points="123.206,102.155 123.206,37.995 147.624,37.995 147.624,102.155 147.624,133.165 
		123.206,133.165 	"/>
	<path style="fill:#C65C05;" d="M358.93,179.87v254.28c0,8.68-7.04,15.71-15.71,15.71H196.66c-8.67,0-15.7-7.03-15.7-15.71v-15.3
		V223.52v-43.65c0-8.67,7.03-15.7,15.7-15.7h8.88h39.81h23.55h74.32C351.89,164.17,358.93,171.2,358.93,179.87z M327.9,254.52
		v-59.71h-21.97h-35.47h-58.48v59.71h35.56h35.47H327.9z"/>
	<path style="fill:#E77200;" d="M196.66,439.86c-3.143,0-5.7-2.562-5.7-5.71V179.87c0-3.143,2.557-5.7,5.7-5.7h146.56
		c3.148,0,5.71,2.557,5.71,5.7v254.28c0,3.148-2.562,5.71-5.71,5.71H196.66z"/>
	<path style="fill:#665040;" d="M268.33,144.67h-22.98v19.5h23.55v-15.3C268.9,147.42,268.7,146.01,268.33,144.67z M181.66,144.67
		c-8.67,0-15.7,7.03-15.7,15.7v3.8h39.58v-19.5H181.66z M165.96,414.65c0,1.46,0.2,2.86,0.57,4.2h14.43V223.52h-15V414.65z"/>
	<g>
		<path style="fill:#7C6655;" d="M294.529,344.528h-49.176c-4.142,0-7.5-3.358-7.5-7.5s3.358-7.5,7.5-7.5h49.176
			c4.142,0,7.5,3.358,7.5,7.5S298.671,344.528,294.529,344.528z"/>
		<path style="fill:#7C6655;" d="M294.529,399.873h-49.176c-4.142,0-7.5-3.358-7.5-7.5s3.358-7.5,7.5-7.5h49.176
			c4.142,0,7.5,3.358,7.5,7.5S298.671,399.873,294.529,399.873z"/>
		<path style="fill:#7C6655;" d="M307.409,372.2h-74.935c-4.142,0-7.5-3.358-7.5-7.5s3.358-7.5,7.5-7.5h74.935
			c4.142,0,7.5,3.358,7.5,7.5S311.551,372.2,307.409,372.2z"/>
	</g>
	<rect x="211.98" y="194.81" style="fill:#FCF4DE;" width="115.92" height="59.71"/>
	<polygon style="fill:#88C9B3;" points="327.9,194.81 327.9,254.52 283.01,254.52 305.93,194.81 	"/>
	<polygon style="fill:#88C9B3;" points="270.46,194.81 247.54,254.52 211.98,254.52 211.98,194.81 	"/>
</g>
</svg>