<svg xmlns="http://www.w3.org/2000/svg" xmlns:xlink="http://www.w3.org/1999/xlink" viewBox="0 0 2218.21 1231.22"><defs><style>.ebd79904-dc43-4f8e-803a-847fcb2497b7{fill:url(#ef25c97e-d48e-482f-a5f2-422607236027);}.a9b27034-f7aa-48d2-bb62-0f3f627902b2{fill:#91b3fa;}.a9c3c168-9d86-49a2-88c7-f6bdaa1b69c3{fill:#7d97f4;}.f36da2df-3771-4392-a525-a896c1f56e54{fill:#bdd0fb;}.aa07eda9-f4a2-4ae0-b53c-1884a553059c{fill:url(#bc78481c-967a-4445-b8d2-1ada35b3e041);}.b5449168-535c-449a-b407-db33d4588c1c{fill:url(#be9d18ac-c5bb-4633-8279-d0ef83e58db3);}.b92c094e-6e01-4976-8ced-26db761fe106,.baf71e60-cb99-4a37-be59-2fa768f32244,.f6be11d1-d977-41d4-b5a6-222f7bdbb415{fill:#fff;}.f6be11d1-d977-41d4-b5a6-222f7bdbb415{opacity:0.37;}.f9824797-7f3c-49fc-b8e3-7cac48525316{fill:url(#a4a73d78-0c6d-4336-b0e9-775f6f692c9a);}.baf71e60-cb99-4a37-be59-2fa768f32244{opacity:0.5;}.af476fc8-b3da-4de2-9141-10d82f553910{fill:url(#b8c8aab8-1cfb-429f-ae64-90e8090d163e);}.bd40cce3-7161-4665-9c6a-b1a2734242d8{fill:url(#b2040708-3400-4bed-a313-d8418360825b);}.bbb510ea-e130-4650-b13b-feb960385a7a{fill:url(#b802b163-4191-4c4d-874c-a2e6a98d7ae6);}.ea90abd8-57d3-4b69-91c4-0e5a71ab1292{fill:url(#e968e63c-ac35-4aab-ab3e-611d34ac979a);}.f9a33c74-1ca1-4b8c-8d78-25d569c4f9db{fill:url(#b40c5ea0-7b99-4760-a089-07c24e0980b2);}.a7a83e92-b339-4101-a506-272447d91bb6{fill:url(#a97b0df5-e9eb-45a4-bfd8-1f6dce012839);}.aabcca40-aa98-4c05-8060-97bdde3c7644{fill:url(#a9193adc-ff96-41f4-8913-473c33e64a5b);}.a938c978-e5d1-4ea1-b713-147e753bf8a4{fill:url(#a5a93358-6ddc-49bd-9e8e-a8ce656ece8e);}.aa4de5f1-83e6-4456-afcf-df6e141b3cfd{fill:url(#acb60bd0-be74-4b26-9bdf-6f98b01b97cc);}.b4db917d-5c94-40b1-99f4-1e379f447bbb{fill:url(#ad00feef-6c48-42d3-a5ee-17f5101a5941);}.a3a3dde0-66b9-45ca-b8b3-97496254f27e{fill:url(#acdc1213-7564-43b8-9604-f25cd39f54a9);}.a8776a65-93fe-4f39-888c-b89939312813{fill:url(#ab687575-df15-44c8-8b20-8ecf22b3e08c);}.b5607dad-bc37-43a9-8695-8f3346533ea8{fill:url(#f8ab2909-17f5-4c06-bc8e-605cf2adccb4);}.b1bb2456-3ff0-4a8b-b3d7-7e154918a185{fill:url(#a0004515-d7cc-4ef1-8a29-3754fe37281f);}.a9e87824-88eb-402b-95f0-8b7952896158{fill:url(#f37bd06e-834a-4491-b143-c9316a8f1fab);}.ac946bfe-13fe-45b1-92d0-fdc4dfae3ec3{fill:url(#f722300d-221c-412a-955d-28c969877d41);}.f502bab0-2b40-4476-86d6-827e91ed3d26{fill:url(#f4ab0fce-0549-4ad7-94b5-6524e2869d7b);}.a7c72d23-bfb8-49ea-a0ac-d1bb9a95843d{fill:url(#ab84ce41-5927-4b4a-a076-6bcb4f286cd1);}.b1c0e333-070f-4a62-a1bf-78b54120fd49{fill:url(#e4e62402-305e-4016-ba38-dd277017df31);}.ad098a5d-779c-4c9b-95eb-f15eb47e3536{fill:url(#be1b3e75-d817-424e-bd83-eae6a5cf34e2);}.a4be4d26-c928-4552-90fb-f38781e5e555{fill:url(#a6f853ab-e9c6-49f4-823d-5735e9d37ca9);}.eec2b437-a500-4cb8-9dff-c14a06c084bc{fill:url(#a0c69033-ed16-4965-a690-5895685b630d);}.bcc06514-80f4-456b-9e14-8ab429484dac{fill:url(#bc3b3d3b-f96d-4165-a1ce-93d202eaf272);}.ee4f7355-a14a-4738-b994-46ea8a991bf6{fill:url(#fc832734-c15a-4d53-8989-8ba971afd3c3);}.a53ea0cf-8c4c-44e4-986a-64a824c38c90{fill:url(#e6022f8b-965a-4e87-8d90-b88a05818881);}.f3dd5912-2d48-44fd-adb6-8d23d9da1a57{fill:url(#b02ebe67-6c03-4594-8f32-b5e30f92a1bf);}.b2b4f2a1-9973-44dc-baa6-68a651dd9940{fill:url(#fa389bd2-0ada-4e1b-bec8-241ab89b4e17);}.ae579235-db92-4e78-8fb4-7a2e529dcdea{fill:url(#b7b66178-91e5-43d5-b8a0-72d60d7b93ac);}.a83a5afc-4345-461e-84db-817278e792a4{fill:url(#e4ae2b4a-1c6f-4d7e-a526-64fff906ebbb);}.b8144fa5-64de-45b5-8d51-cdb634131527{fill:url(#a6e6df88-d1db-430f-b3e1-8dc0bb98e7fb);}.b6f7758c-0a54-4167-aa43-158e717fad89{fill:url(#a85860ac-befc-4000-bc46-83768e10bc8b);}.aca7f8ec-3a58-4952-a8f4-e5b65b00f662{fill:url(#a2d2e91a-1b56-4fd9-9342-3e998e7222be);}.e77fca88-f162-40dd-97dc-be4eab08bf14{fill:url(#b6819df5-afc8-468a-9df2-2dff47703b2b);}.aeee487e-1f70-413a-a2b5-bd700fa424c5{fill:url(#e8011274-ff3b-4221-a280-01b03fc57054);}.a97a80d1-f9c3-4d2d-a6cc-91f1791be7bd{fill:url(#bf5ddc86-fca4-4a0e-aa61-9ae8dd7ac44a);}.ab2c2aff-f777-402e-9d08-830f0893dff9{fill:url(#a1e98112-9941-42c5-bd39-92af022b534e);}.bcc8fb7c-b652-429b-b2fc-db3c408959a8{fill:url(#a9ac4994-e065-45e1-bae5-97fc3f9b8238);}.ec59e04f-ddc2-48c3-8675-7b50c27e220f{fill:url(#a32179dd-ec22-4de5-8b51-f7242d94726d);}.b276a89a-04ac-4195-8dc7-7d4758cd5823{fill:url(#bae4a9bc-7363-4806-a702-7938d7785cf7);}.e14d47d5-1493-4e28-9979-88e87387737f{fill:url(#a34f96ce-4203-4e39-8949-881b542d1eee);}.a816aab1-92b6-4bb3-bc32-a5f9f94d780b{fill:url(#e43ac602-fa53-4c66-9ce9-a3bc7cf962fd);}.ae21a9bf-6445-4899-9c13-58509b9073f1{fill:url(#b11e22b7-11e3-4871-8021-0f755ae4f1d4);}.a9a465f0-8c21-4b1d-9c93-92c554b275dc{fill:url(#e8fa5d47-8ad5-4678-9f3e-8140dfad0966);}.f1b74f70-88d0-4cf7-b4e2-ea1859eda0dd{fill:url(#b9bfb1c2-bc21-4286-821a-8c58ed5771b2);}.fd83d87d-dfe7-4361-ba48-662f81528cdd{fill:url(#a8c021ee-2fad-493e-9458-2e3e3e987e0f);}.e115370a-4f5b-4f6d-89af-f2ed0ca8902b{fill:url(#bcbc9409-b194-4694-8e98-0e7978a877bc);}.a5e80e55-b1d2-4a8b-b5a2-4ace542d814e{fill:url(#b68814a8-dd09-4532-9a97-dba5d2c711d2);}.ebd6295a-df1a-4e27-8c4f-42fe6f1987a8{fill:url(#f79161d0-7504-48cc-8037-560cb587b8ab);}.f7267045-2fa5-44b7-ab99-4524ba63b794{fill:url(#a039fb5c-9fb5-4372-b90c-06fba8cde015);}.a2ebe7fd-2a96-4854-a916-3a84de73ae81{fill:url(#f3141fc5-4175-4bac-854a-418721df00e6);}.af1d13fb-ba97-488d-a25e-0f2042b34db3{fill:url(#b0a47096-80c4-4d4c-be6f-4c861140aab5);}.ac545b0c-0d39-498a-9354-85d07e6dd35d{fill:url(#bc160c77-dcb3-4f71-83d1-e31a6bac2fa5);}.ba79fa61-779c-4df5-940c-7b84f701548a{fill:url(#b9e63651-acd2-4ad5-8218-262ad1014a3c);}.b6c973bc-dcac-421e-8468-9276133d9c4f{fill:url(#b2d3463c-8ba6-4383-8d16-eff990b2ab32);}.bc9d6524-e12c-4278-b497-462b1b3099ac{fill:url(#e0be1c9c-8d5f-409d-a4b8-b0b277f9492b);}.b46d5855-bc8c-4c7f-ab59-a7d937aec467{fill:url(#ed42f246-12be-4b07-b32b-0bb07441b719);}.f08ed83b-c5f2-46fe-b8b7-84859a3760c8{fill:url(#a09091d6-7ea9-4907-b441-85a40f4a7251);}.f78d61b4-73ab-4e61-ac36-a2db8d4ef924{fill:url(#f15c588e-86c0-45f3-8742-ff51a73da105);}.aa2eee54-2efe-49da-87b1-dcf34713f12f{fill:url(#e7d86267-8e1e-45f2-94ce-f3a675e10fe2);}.bcbe0588-daba-4534-84c1-78a04001f224{fill:url(#a283a470-8b3d-4fba-8a2e-f5cd86aed4db);}.eeeaac69-39b7-4f89-b77a-08b70ef157fa{fill:url(#bf38500b-be93-4d6d-8989-481837c3b0ed);}.a979a9b5-43fc-4b54-9534-07236fca58bf{fill:url(#bf3775a5-3e68-4127-b1f3-56ea365f5185);}.b5a1ee8d-1e60-4cfe-a535-f19a77b3886a{fill:url(#bc7a583f-3ff9-4525-b405-fed7ea588cd5);}.b17a461b-7882-4042-a496-9bd0bc119791{fill:url(#f3d4a5d2-6b0c-45ab-a76d-b96b93693d97);}.b5936197-39e3-4f1a-8c47-155adfac4a89{fill:url(#f19e6a33-1673-49f6-911b-80f61971f314);}.a48d02a0-f9ad-4554-a209-ee0bc3ff246c{fill:url(#ffe64f4a-00b3-4831-9490-50216ba65828);}.b72c3069-38f8-4b54-abae-11535c483102{fill:url(#f2ca8118-7b39-47f7-b05d-895e46addf54);}.ab70557b-20a3-4dde-b943-88c9d44d82e5{fill:url(#be1e9861-1546-4fe8-ba62-7cb1bd9ee568);}.f34a0b6d-4848-48dd-aacd-b5ff2e6d06b2{fill:url(#e3c006e8-c0cd-478b-b6bd-34aaf732081d);}.a1f8427e-887f-40e7-9476-8dd3a7638566{fill:url(#e626bc61-9e3c-42d0-a17d-3040f821ad11);}.e1fe0d51-3e7a-40f7-a93d-c402ba92e9e5{fill:url(#a9872ae8-0df2-43e0-ad3a-cce470f6ab0c);}.af14926b-45dc-4113-8349-1290342aac56{fill:url(#f36b0bae-ca7f-4a91-a1f2-1a8c97ea67ef);}.f10f6ffc-c603-40f4-a909-8c608b1737e1{fill:url(#fdceb0ca-113c-42cd-abd6-8b56b0be13cd);}.b04350bb-cb14-4e99-bc8b-95914b797d09{fill:url(#ec6b3ea7-c7f0-4517-8d1f-ca6beb17015c);}.e590ad92-9502-4bc3-b71b-bcf485b3cdfd{fill:url(#ad956f63-6619-4cb3-89ef-a38b2b464763);}.ff128f09-186d-412f-a5d1-bc857940db90{fill:url(#ef784aaa-5c77-4943-9027-585db767296a);}.bc29f684-8cc3-41e0-9aff-1c9235ddbff7{fill:url(#bad9091d-af00-48f7-8685-e9200e8901c5);}.a6c12c49-f49d-4410-bc55-1cf44b8df756{fill:url(#b29af650-6c78-464b-b83c-bc71c77273fe);}.ec4558de-5bae-494b-9b60-ad9b22957164{fill:url(#f61cb869-12a1-495f-9053-32b3804797c9);}.a40b5785-1efc-4d89-ae70-0d0ee35ef4a1{fill:url(#a5c25f42-9991-455d-a191-c635249f6349);}.f49dd6ef-b30e-4d8f-976d-d18e89494de9{fill:url(#ae8b64f8-0f17-4bd0-8a2d-28a89baf4fdc);}.ac795423-dfc9-4ec4-b58e-77daeee97458{fill:url(#bdd12489-4e27-4bbf-8228-4b2b55e6b8b1);}.eaf3ea06-5074-43f9-aca8-267a976f7f6b{fill:url(#a51d5f98-1eb9-4ba2-ae26-24741a48bc12);}.ed093d89-c4f1-494e-9874-068904520bc2{fill:url(#afca389c-03ac-4f36-aada-626f97d0ff75);}</style><linearGradient id="ef25c97e-d48e-482f-a5f2-422607236027" x1="-1730.1" y1="3184.37" x2="488.11" y2="3184.37" gradientTransform="translate(488.11 3793.92) rotate(180)" gradientUnits="userSpaceOnUse"><stop offset="0" stop-color="#dae3fe"/><stop offset="1" stop-color="#e9effd"/></linearGradient><linearGradient id="bc78481c-967a-4445-b8d2-1ada35b3e041" x1="228.66" y1="490.19" x2="1866.6" y2="1632.94" gradientUnits="userSpaceOnUse"><stop offset="0" stop-color="#fe7062"/><stop offset="1" stop-color="#ff928e"/></linearGradient><linearGradient id="be9d18ac-c5bb-4633-8279-d0ef83e58db3" x1="1096.54" y1="291.98" x2="706.5" y2="697.02" xlink:href="#bc78481c-967a-4445-b8d2-1ada35b3e041"/><linearGradient id="a4a73d78-0c6d-4336-b0e9-775f6f692c9a" x1="-2211.51" y1="7129.11" x2="-2394.49" y2="7131.59" gradientTransform="matrix(-0.1, 0.99, -0.99, -0.1, 7523.88, 3715.34)" gradientUnits="userSpaceOnUse"><stop offset="0" stop-color="#4042e2"/><stop offset="1" stop-color="#4f52ff"/></linearGradient><linearGradient id="b8c8aab8-1cfb-429f-ae64-90e8090d163e" x1="896.03" y1="1030.32" x2="876.18" y2="1299.4" gradientTransform="matrix(1, 0.05, -0.04, 0.96, -79.07, -81.95)" xlink:href="#a4a73d78-0c6d-4336-b0e9-775f6f692c9a"/><linearGradient id="b2040708-3400-4bed-a313-d8418360825b" x1="534.8" y1="565.76" x2="403.94" y2="812.79" gradientTransform="matrix(1, 0, 0, 1, 0, 0)" xlink:href="#a4a73d78-0c6d-4336-b0e9-775f6f692c9a"/><linearGradient id="b802b163-4191-4c4d-874c-a2e6a98d7ae6" x1="402.62" y1="642.13" x2="450.75" y2="642.13" gradientTransform="matrix(1, 0, 0, 1, 0, 0)" xlink:href="#a4a73d78-0c6d-4336-b0e9-775f6f692c9a"/><linearGradient id="e968e63c-ac35-4aab-ab3e-611d34ac979a" x1="441.1" y1="817.95" x2="777.19" y2="817.95" gradientTransform="matrix(1, 0, 0, 1, 0, 0)" xlink:href="#ef25c97e-d48e-482f-a5f2-422607236027"/><linearGradient id="b40c5ea0-7b99-4760-a089-07c24e0980b2" x1="811" y1="382.84" x2="717" y2="520.84" gradientUnits="userSpaceOnUse"><stop offset="0" stop-color="#09005d"/><stop offset="1" stop-color="#1a0f91"/></linearGradient><linearGradient id="a97b0df5-e9eb-45a4-bfd8-1f6dce012839" x1="775.09" y1="358.38" x2="681.09" y2="496.38" xlink:href="#b40c5ea0-7b99-4760-a089-07c24e0980b2"/><linearGradient id="a9193adc-ff96-41f4-8913-473c33e64a5b" x1="821.9" y1="1603.75" x2="891.34" y2="843.17" gradientUnits="userSpaceOnUse"><stop offset="0" stop-color="#e1473d"/><stop offset="1" stop-color="#e9605a"/></linearGradient><linearGradient id="a5a93358-6ddc-49bd-9e8e-a8ce656ece8e" x1="475.66" y1="1152.81" x2="738.08" y2="537.62" xlink:href="#bc78481c-967a-4445-b8d2-1ada35b3e041"/><linearGradient id="acb60bd0-be74-4b26-9bdf-6f98b01b97cc" x1="947.99" y1="755.03" x2="797.55" y2="1081.7" xlink:href="#bc78481c-967a-4445-b8d2-1ada35b3e041"/><linearGradient id="ad00feef-6c48-42d3-a5ee-17f5101a5941" x1="568.05" y1="591.75" x2="502.04" y2="873.78" xlink:href="#bc78481c-967a-4445-b8d2-1ada35b3e041"/><linearGradient id="acdc1213-7564-43b8-9604-f25cd39f54a9" x1="438.32" y1="540.23" x2="394.32" y2="852.23" xlink:href="#b40c5ea0-7b99-4760-a089-07c24e0980b2"/><linearGradient id="ab687575-df15-44c8-8b20-8ecf22b3e08c" x1="504.21" y1="549.52" x2="460.21" y2="861.52" xlink:href="#b40c5ea0-7b99-4760-a089-07c24e0980b2"/><linearGradient id="f8ab2909-17f5-4c06-bc8e-605cf2adccb4" x1="569.18" y1="558.61" x2="525.18" y2="870.61" xlink:href="#b40c5ea0-7b99-4760-a089-07c24e0980b2"/><linearGradient id="a0004515-d7cc-4ef1-8a29-3754fe37281f" x1="635.43" y1="568.03" x2="591.44" y2="880.03" xlink:href="#b40c5ea0-7b99-4760-a089-07c24e0980b2"/><linearGradient id="f37bd06e-834a-4491-b143-c9316a8f1fab" x1="675.77" y1="573.72" x2="631.77" y2="885.72" xlink:href="#b40c5ea0-7b99-4760-a089-07c24e0980b2"/><linearGradient id="f722300d-221c-412a-955d-28c969877d41" x1="730.62" y1="581.45" x2="686.62" y2="893.45" xlink:href="#b40c5ea0-7b99-4760-a089-07c24e0980b2"/><linearGradient id="f4ab0fce-0549-4ad7-94b5-6524e2869d7b" x1="1611.46" y1="1147.93" x2="1838" y2="1147.93" xlink:href="#a9193adc-ff96-41f4-8913-473c33e64a5b"/><linearGradient id="ab84ce41-5927-4b4a-a076-6bcb4f286cd1" x1="1605.59" y1="1104.01" x2="1593.32" y2="1146.95" gradientUnits="userSpaceOnUse"><stop offset="0" stop-color="#a22b25"/><stop offset="1" stop-color="#c0423c"/></linearGradient><linearGradient id="e4e62402-305e-4016-ba38-dd277017df31" x1="1226.51" y1="1165.24" x2="1595.18" y2="1165.24" xlink:href="#a9193adc-ff96-41f4-8913-473c33e64a5b"/><linearGradient id="be1b3e75-d817-424e-bd83-eae6a5cf34e2" x1="1744.05" y1="575.89" x2="1712.55" y2="731.88" xlink:href="#b40c5ea0-7b99-4760-a089-07c24e0980b2"/><linearGradient id="a6f853ab-e9c6-49f4-823d-5735e9d37ca9" x1="1580.71" y1="841.8" x2="1595.56" y2="1078.01" gradientTransform="matrix(1, 0, 0, 1, 0, 0)" xlink:href="#a4a73d78-0c6d-4336-b0e9-775f6f692c9a"/><linearGradient id="a0c69033-ed16-4965-a690-5895685b630d" x1="1651.01" y1="1060.68" x2="1667.01" y2="972.68" gradientTransform="matrix(1, 0, 0, 1, 0, 0)" xlink:href="#a4a73d78-0c6d-4336-b0e9-775f6f692c9a"/><linearGradient id="bc3b3d3b-f96d-4165-a1ce-93d202eaf272" x1="1519.34" y1="1110.12" x2="1514.18" y2="1069.75" gradientUnits="userSpaceOnUse"><stop offset="0" stop-color="#ff928e"/><stop offset="1" stop-color="#feb3b1"/></linearGradient><linearGradient id="fc832734-c15a-4d53-8989-8ba971afd3c3" x1="1543.66" y1="1161.36" x2="1495.02" y2="1098.19" gradientTransform="matrix(1, 0, 0, 1, 0, 0)" xlink:href="#a4a73d78-0c6d-4336-b0e9-775f6f692c9a"/><linearGradient id="e6022f8b-965a-4e87-8d90-b88a05818881" x1="1580.86" y1="-1063.57" x2="1524.46" y2="-996.5" gradientTransform="matrix(0.75, 0.66, -0.66, 0.75, -239.26, 587.38)" xlink:href="#bc3b3d3b-f96d-4165-a1ce-93d202eaf272"/><linearGradient id="b02ebe67-6c03-4594-8f32-b5e30f92a1bf" x1="1489.57" y1="791.57" x2="1340.57" y2="944.57" xlink:href="#bc78481c-967a-4445-b8d2-1ada35b3e041"/><linearGradient id="fa389bd2-0ada-4e1b-bec8-241ab89b4e17" x1="1516.73" y1="843.17" x2="1528.08" y2="1023.73" gradientTransform="matrix(1, 0, 0, 1, 0, 0)" xlink:href="#a4a73d78-0c6d-4336-b0e9-775f6f692c9a"/><linearGradient id="b7b66178-91e5-43d5-b8a0-72d60d7b93ac" x1="1599.29" y1="615.72" x2="1572.3" y2="765.72" xlink:href="#bc3b3d3b-f96d-4165-a1ce-93d202eaf272"/><linearGradient id="e4ae2b4a-1c6f-4d7e-a526-64fff906ebbb" x1="1497.75" y1="696.25" x2="1479.75" y2="808.74" gradientTransform="translate(70.03 -52.98) rotate(-3.45)" xlink:href="#bc3b3d3b-f96d-4165-a1ce-93d202eaf272"/><linearGradient id="a6e6df88-d1db-430f-b3e1-8dc0bb98e7fb" x1="1475" y1="691.03" x2="1492.01" y2="788.09" gradientTransform="translate(70.03 -52.98) rotate(-3.45)" xlink:href="#b40c5ea0-7b99-4760-a089-07c24e0980b2"/><linearGradient id="a85860ac-befc-4000-bc46-83768e10bc8b" x1="1475.85" y1="692.74" x2="1457.85" y2="805.24" gradientTransform="translate(70.03 -52.98) rotate(-3.45)" xlink:href="#bc3b3d3b-f96d-4165-a1ce-93d202eaf272"/><linearGradient id="a2d2e91a-1b56-4fd9-9342-3e998e7222be" x1="1592.71" y1="756.44" x2="1617.01" y2="756.44" xlink:href="#a9193adc-ff96-41f4-8913-473c33e64a5b"/><linearGradient id="b6819df5-afc8-468a-9df2-2dff47703b2b" x1="1670.85" y1="561.11" x2="1639.35" y2="717.1" xlink:href="#b40c5ea0-7b99-4760-a089-07c24e0980b2"/><linearGradient id="e8011274-ff3b-4221-a280-01b03fc57054" x1="1538.71" y1="640.18" x2="1507.21" y2="812.68" xlink:href="#bc3b3d3b-f96d-4165-a1ce-93d202eaf272"/><linearGradient id="bf5ddc86-fca4-4a0e-aa61-9ae8dd7ac44a" x1="1564.78" y1="922.03" x2="1608.24" y2="863.39" xlink:href="#bc3b3d3b-f96d-4165-a1ce-93d202eaf272"/><linearGradient id="a1e98112-9941-42c5-bd39-92af022b534e" x1="1489.72" y1="1061.92" x2="1471.21" y2="1253.18" gradientTransform="matrix(1, 0, 0, 1, 0, 0)" xlink:href="#a4a73d78-0c6d-4336-b0e9-775f6f692c9a"/><linearGradient id="a9ac4994-e065-45e1-bae5-97fc3f9b8238" x1="1611.94" y1="914.77" x2="1596.97" y2="1069.47" gradientTransform="translate(4.41 60.91) rotate(4.05)" xlink:href="#a4a73d78-0c6d-4336-b0e9-775f6f692c9a"/><linearGradient id="a32179dd-ec22-4de5-8b51-f7242d94726d" x1="2231.12" y1="769.74" x2="2216.14" y2="924.45" gradientTransform="matrix(0.81, 0.06, -0.08, 1.19, -146.06, 26.39)" xlink:href="#a4a73d78-0c6d-4336-b0e9-775f6f692c9a"/><linearGradient id="bae4a9bc-7363-4806-a702-7938d7785cf7" x1="1600.52" y1="810.1" x2="1700.42" y2="855.08" xlink:href="#b40c5ea0-7b99-4760-a089-07c24e0980b2"/><linearGradient id="a34f96ce-4203-4e39-8949-881b542d1eee" x1="1763.74" y1="1084.99" x2="1793.18" y2="1084.99" xlink:href="#bc3b3d3b-f96d-4165-a1ce-93d202eaf272"/><linearGradient id="e43ac602-fa53-4c66-9ce9-a3bc7cf962fd" x1="-89.34" y1="2689.13" x2="34.1" y2="2689.13" gradientTransform="matrix(0.6, -0.8, 0.8, 0.6, -311.91, -608.94)" xlink:href="#bc3b3d3b-f96d-4165-a1ce-93d202eaf272"/><linearGradient id="b11e22b7-11e3-4871-8021-0f755ae4f1d4" x1="1807.74" y1="1063.31" x2="1738.75" y2="1205.81" xlink:href="#a9193adc-ff96-41f4-8913-473c33e64a5b"/><linearGradient id="e8fa5d47-8ad5-4678-9f3e-8140dfad0966" x1="-82.94" y1="2759.11" x2="81.72" y2="2759.11" gradientTransform="matrix(0.6, -0.8, 0.8, 0.6, -311.91, -608.94)" xlink:href="#bc3b3d3b-f96d-4165-a1ce-93d202eaf272"/><linearGradient id="b9bfb1c2-bc21-4286-821a-8c58ed5771b2" x1="1965.96" y1="1126.55" x2="1961.3" y2="1275.21" xlink:href="#bc3b3d3b-f96d-4165-a1ce-93d202eaf272"/><linearGradient id="a8c021ee-2fad-493e-9458-2e3e3e987e0f" x1="2059.17" y1="1154.2" x2="2080.5" y2="1270.2" gradientTransform="matrix(1, 0, 0, 1, 0, 0)" xlink:href="#a4a73d78-0c6d-4336-b0e9-775f6f692c9a"/><linearGradient id="bcbc9409-b194-4694-8e98-0e7978a877bc" x1="2014.7" y1="1067.71" x2="1988.04" y2="1165.71" xlink:href="#bc3b3d3b-f96d-4165-a1ce-93d202eaf272"/><linearGradient id="b68814a8-dd09-4532-9a97-dba5d2c711d2" x1="2091.84" y1="1085.33" x2="2081.84" y2="1162.66" gradientTransform="matrix(1, 0, 0, 1, 0, 0)" xlink:href="#a4a73d78-0c6d-4336-b0e9-775f6f692c9a"/><linearGradient id="f79161d0-7504-48cc-8037-560cb587b8ab" x1="2001.1" y1="997.52" x2="1866.1" y2="1113.01" gradientTransform="matrix(1, 0, 0, 1, 0, 0)" xlink:href="#a4a73d78-0c6d-4336-b0e9-775f6f692c9a"/><linearGradient id="a039fb5c-9fb5-4372-b90c-06fba8cde015" x1="1862.55" y1="1149.21" x2="1820.56" y2="1396.69" xlink:href="#bc78481c-967a-4445-b8d2-1ada35b3e041"/><linearGradient id="f3141fc5-4175-4bac-854a-418721df00e6" x1="1777.85" y1="820.5" x2="1830.34" y2="979.5" xlink:href="#bc3b3d3b-f96d-4165-a1ce-93d202eaf272"/><linearGradient id="b0a47096-80c4-4d4c-be6f-4c861140aab5" x1="899.86" y1="1709.52" x2="872.86" y2="1801.01" gradientTransform="translate(-131.78 -437.86) rotate(-36.42)" xlink:href="#bc3b3d3b-f96d-4165-a1ce-93d202eaf272"/><linearGradient id="bc160c77-dcb3-4f71-83d1-e31a6bac2fa5" x1="-984.04" y1="1410.13" x2="-905.02" y2="1445.72" gradientTransform="translate(-131.78 -437.86) rotate(-36.42)" xlink:href="#b40c5ea0-7b99-4760-a089-07c24e0980b2"/><linearGradient id="b9e63651-acd2-4ad5-8218-262ad1014a3c" x1="920.93" y1="1715.73" x2="893.93" y2="1807.23" gradientTransform="translate(-131.78 -437.86) rotate(-36.42)" xlink:href="#bc3b3d3b-f96d-4165-a1ce-93d202eaf272"/><linearGradient id="b2d3463c-8ba6-4383-8d16-eff990b2ab32" x1="1743.17" y1="1102.04" x2="1753.96" y2="1102.04" xlink:href="#a9193adc-ff96-41f4-8913-473c33e64a5b"/><linearGradient id="e0be1c9c-8d5f-409d-a4b8-b0b277f9492b" x1="-2641.61" y1="2525.24" x2="-2629.15" y2="2525.24" gradientTransform="matrix(-0.09, -0.71, 0.99, -0.12, -983.79, -483.91)" xlink:href="#a9193adc-ff96-41f4-8913-473c33e64a5b"/><linearGradient id="ed42f246-12be-4b07-b32b-0bb07441b719" x1="-1881.26" y1="-2549.82" x2="-1866.85" y2="-2549.82" gradientTransform="matrix(-0.51, 0.63, -0.77, -0.63, -1173.01, 661.8)" xlink:href="#a9193adc-ff96-41f4-8913-473c33e64a5b"/><linearGradient id="a09091d6-7ea9-4907-b441-85a40f4a7251" x1="1882.4" y1="1010.87" x2="1892.38" y2="1010.87" xlink:href="#a9193adc-ff96-41f4-8913-473c33e64a5b"/><linearGradient id="f15c588e-86c0-45f3-8742-ff51a73da105" x1="1851.39" y1="1013.15" x2="1858.47" y2="1013.15" xlink:href="#a9193adc-ff96-41f4-8913-473c33e64a5b"/><linearGradient id="e7d86267-8e1e-45f2-94ce-f3a675e10fe2" x1="13064.15" y1="1196.39" x2="13107.62" y2="1196.39" gradientTransform="translate(-12989.11)" xlink:href="#a4a73d78-0c6d-4336-b0e9-775f6f692c9a"/><linearGradient id="a283a470-8b3d-4fba-8a2e-f5cd86aed4db" x1="13068.56" y1="1176.19" x2="13086.19" y2="1176.19" gradientTransform="translate(-12989.11)" xlink:href="#bc3b3d3b-f96d-4165-a1ce-93d202eaf272"/><linearGradient id="bf38500b-be93-4d6d-8989-481837c3b0ed" x1="13156.59" y1="1195.7" x2="13224.79" y2="1195.7" gradientTransform="translate(-12989.11)" xlink:href="#a4a73d78-0c6d-4336-b0e9-775f6f692c9a"/><linearGradient id="bf3775a5-3e68-4127-b1f3-56ea365f5185" x1="13157.62" y1="1168.37" x2="13175.15" y2="1168.37" gradientTransform="translate(-12989.11)" xlink:href="#bc3b3d3b-f96d-4165-a1ce-93d202eaf272"/><linearGradient id="bc7a583f-3ff9-4525-b405-fed7ea588cd5" x1="13057.6" y1="1012.86" x2="13177.12" y2="1012.86" gradientTransform="translate(-12989.11)" xlink:href="#a4a73d78-0c6d-4336-b0e9-775f6f692c9a"/><linearGradient id="f3d4a5d2-6b0c-45ab-a76d-b96b93693d97" x1="196.06" y1="540.98" x2="140.06" y2="784.98" xlink:href="#b40c5ea0-7b99-4760-a089-07c24e0980b2"/><linearGradient id="f19e6a33-1673-49f6-911b-80f61971f314" x1="222.06" y1="780.32" x2="160.06" y2="1210.32" xlink:href="#b40c5ea0-7b99-4760-a089-07c24e0980b2"/><linearGradient id="ffe64f4a-00b3-4831-9490-50216ba65828" x1="285.81" y1="655.02" x2="350.96" y2="655.02" xlink:href="#bc3b3d3b-f96d-4165-a1ce-93d202eaf272"/><linearGradient id="f2ca8118-7b39-47f7-b05d-895e46addf54" x1="299.52" y1="449.68" x2="247.52" y2="661.68" xlink:href="#b40c5ea0-7b99-4760-a089-07c24e0980b2"/><linearGradient id="be1e9861-1546-4fe8-ba62-7cb1bd9ee568" x1="13422.45" y1="669.23" x2="13281.67" y2="844.38" gradientTransform="translate(-12989.11)" xlink:href="#bc3b3d3b-f96d-4165-a1ce-93d202eaf272"/><linearGradient id="e3c006e8-c0cd-478b-b6bd-34aaf732081d" x1="15050.01" y1="-49.4" x2="14909.22" y2="125.76" gradientTransform="translate(-11330.31 -8567.37) rotate(38.45)" xlink:href="#bc3b3d3b-f96d-4165-a1ce-93d202eaf272"/><linearGradient id="e626bc61-9e3c-42d0-a17d-3040f821ad11" x1="13264.07" y1="563.38" x2="13127.72" y2="813.91" gradientTransform="translate(-12989.11)" xlink:href="#bc3b3d3b-f96d-4165-a1ce-93d202eaf272"/><linearGradient id="a9872ae8-0df2-43e0-ad3a-cce470f6ab0c" x1="10413.88" y1="10664.35" x2="10353.62" y2="10744.06" gradientTransform="translate(-14426.28 -2097.55) rotate(-35.22)" xlink:href="#bc3b3d3b-f96d-4165-a1ce-93d202eaf272"/><linearGradient id="f36b0bae-ca7f-4a91-a1f2-1a8c97ea67ef" x1="-5954.51" y1="603.53" x2="-5881.26" y2="739.56" gradientTransform="matrix(-1, 0, 0, 1, -5709.6, 0)" xlink:href="#b40c5ea0-7b99-4760-a089-07c24e0980b2"/><linearGradient id="fdceb0ca-113c-42cd-abd6-8b56b0be13cd" x1="10325.63" y1="10727.48" x2="10373.96" y2="10677.89" gradientTransform="translate(-14426.28 -2097.55) rotate(-35.22)" xlink:href="#bc3b3d3b-f96d-4165-a1ce-93d202eaf272"/><linearGradient id="ec6b3ea7-c7f0-4517-8d1f-ca6beb17015c" x1="1156.39" y1="923.49" x2="1090.39" y2="1041.98" xlink:href="#bc3b3d3b-f96d-4165-a1ce-93d202eaf272"/><linearGradient id="ad956f63-6619-4cb3-89ef-a38b2b464763" x1="-335.38" y1="886.71" x2="-384.36" y2="1205.09" gradientTransform="translate(1470.1)" xlink:href="#a4a73d78-0c6d-4336-b0e9-775f6f692c9a"/><linearGradient id="ef784aaa-5c77-4943-9027-585db767296a" x1="-439.02" y1="870.77" x2="-488" y2="1189.15" gradientTransform="translate(1470.1)" xlink:href="#a4a73d78-0c6d-4336-b0e9-775f6f692c9a"/><linearGradient id="bad9091d-af00-48f7-8685-e9200e8901c5" x1="1023.11" y1="879.24" x2="985.61" y2="1033.73" xlink:href="#bc3b3d3b-f96d-4165-a1ce-93d202eaf272"/><linearGradient id="b29af650-6c78-464b-b83c-bc71c77273fe" x1="943.82" y1="754.78" x2="1018.78" y2="915.94" gradientTransform="matrix(1, 0, 0, 1, 0, 0)" xlink:href="#a4a73d78-0c6d-4336-b0e9-775f6f692c9a"/><linearGradient id="f61cb869-12a1-495f-9053-32b3804797c9" x1="1022.77" y1="1018.71" x2="829.2" y2="763.19" xlink:href="#b40c5ea0-7b99-4760-a089-07c24e0980b2"/><linearGradient id="a5c25f42-9991-455d-a191-c635249f6349" x1="1052.6" y1="639.5" x2="952.1" y2="777.5" gradientUnits="userSpaceOnUse"><stop offset="0" stop-color="#ff928e"/><stop offset="0.09" stop-color="#ff9591"/><stop offset="1" stop-color="#feb3b1"/></linearGradient><linearGradient id="ae8b64f8-0f17-4bd0-8a2d-28a89baf4fdc" x1="1067.48" y1="589.77" x2="996.99" y2="676.77" xlink:href="#bc3b3d3b-f96d-4165-a1ce-93d202eaf272"/><linearGradient id="bdd12489-4e27-4bbf-8228-4b2b55e6b8b1" x1="945.8" y1="461.55" x2="897.8" y2="611.55" xlink:href="#bc3b3d3b-f96d-4165-a1ce-93d202eaf272"/><linearGradient id="a51d5f98-1eb9-4ba2-ae26-24741a48bc12" x1="109.74" y1="671.16" x2="-11.46" y2="906.45" gradientTransform="matrix(-1, 0, 0, 1, 1080.28, 0)" xlink:href="#b40c5ea0-7b99-4760-a089-07c24e0980b2"/><linearGradient id="afca389c-03ac-4f36-aada-626f97d0ff75" x1="1399.78" y1="456.33" x2="1508.38" y2="456.33" xlink:href="#bc78481c-967a-4445-b8d2-1ada35b3e041"/></defs><g id="f24e9c58-3520-4aad-97df-bfc75394b09b" data-name="Layer 2"><g id="bbb3eb55-9595-4e62-8291-26fc14ca4122" data-name="Illustration"><path class="ebd79904-dc43-4f8e-803a-847fcb2497b7" d="M24.77,557.35C50.5,601.7,91.4,639,122.91,680.46c91.05,119.81-3.69,260,37.87,389.18,36.21,112.54,186.8,142.71,296.87,147.28,185.49,7.69,370.77-3.84,549.6-52.83,124.09-34,248.35-78.51,379.15-81.21,133.71-2.75,259.49,49.53,388.67,74.25,141.84,27.15,311.49-2.33,345.69-156.6C2142,905,2084.91,817,2079.58,722.86c-7.07-124.57,120.44-192.94,136.94-309.39,10.4-73.42-28.47-139-79.18-192.15-53.51-56.06-125.46-105.58-208-110.18-86.29-4.81-163.31,39.31-244,60.38-226.65,59.2-355.3-138.24-563.88-165.78C1027.42-6.68,911.81-.79,826.4,41.86c-79.42,39.66-118,127.75-207,153.62-94.29,27.37-180.57-27.34-270.16-44.83-92.73-18.09-180.44,14-238.47,84.45C54.45,303.38-6.44,393.32.55,483.47,2.67,510.85,11.79,535,24.77,557.35Z"/><path class="a9b27034-f7aa-48d2-bb62-0f3f627902b2" d="M492,638.71c5.47-18.36,21.93-32.89,28.6-50.62,11.77-31.3-8.2-57.83-17.13-86.53-9.41-30.26,10.82-45.19,17.73-72.69,16.68-66.38-43.28-132.34-108.84-132.34-40.46,0-77.28,25.21-95.52,60.3-23.07,44.37-3.74,73.48,4.39,117.14,3.87,20.79-8.38,31.24-15,49.25-11.92,32.69-7.61,70.83,11.24,99.95,6.47,10,18.69,18.59,18.13,31.5-.64,14.59-16.68,25.81-23.17,38-7.72,14.42-11,32.13-11,48.33,0,68.29,63,118.92,127.75,108.9,41.45-6.41,75.47-38.27,87.6-77.8,6.63-21.59,5.51-40.64-2.76-61.47-7.25-18.27-27-46.5-23.23-67.11A45.16,45.16,0,0,1,492,638.71Z"/><path class="a9c3c168-9d86-49a2-88c7-f6bdaa1b69c3" d="M416.56,1070a4.42,4.42,0,0,1-4.41,4.41h0a4.42,4.42,0,0,1-4.42-4.41v-644a4.41,4.41,0,0,1,4.42-4.41h0a4.41,4.41,0,0,1,4.41,4.41Z"/><path class="f36da2df-3771-4392-a525-a896c1f56e54" d="M481.62,513.5a2.21,2.21,0,0,1-2.14-1.68c-6.6-27,.54-41.54,8.11-57s15.49-31.56,10-62.75c-10.67-60.55-85.39-78-86.14-78.13a2.21,2.21,0,0,1,1-4.31c.78.18,78.34,18.2,89.53,81.67,5.74,32.61-2.82,50.07-10.38,65.47-7.2,14.68-14,28.54-7.79,54a2.19,2.19,0,0,1-1.62,2.66A1.86,1.86,0,0,1,481.62,513.5Z"/><path class="a9b27034-f7aa-48d2-bb62-0f3f627902b2" d="M1240.54,709.29c-5.48-18.36-21.93-32.89-28.6-50.62-11.77-31.3,8.2-57.83,17.13-86.53,9.4-30.26-10.83-45.2-17.73-72.69-16.68-66.38,43.28-132.34,108.84-132.34,40.46,0,77.28,25.21,95.52,60.3,23.06,44.37,3.74,73.48-4.39,117.14-3.87,20.78,8.38,31.24,15,49.25,11.92,32.68,7.6,70.83-11.24,100-6.47,10-18.69,18.59-18.14,31.49.65,14.6,16.68,25.82,23.18,38,7.71,14.41,11,32.13,11,48.33,0,68.29-63,118.92-127.76,108.9-41.44-6.42-75.46-38.27-87.59-77.8-6.63-21.59-5.51-40.64,2.76-61.48,7.25-18.27,27-46.49,23.23-67.1A44.57,44.57,0,0,0,1240.54,709.29Z"/><path class="a9c3c168-9d86-49a2-88c7-f6bdaa1b69c3" d="M1325.25,496.51a4.4,4.4,0,0,0-4.41-4.41h0a4.41,4.41,0,0,0-4.41,4.41v644a4.42,4.42,0,0,0,4.41,4.42h0a4.41,4.41,0,0,0,4.41-4.42Z"/><path class="f36da2df-3771-4392-a525-a896c1f56e54" d="M1250.92,584.08a2,2,0,0,1-.53-.07,2.2,2.2,0,0,1-1.61-2.66c6.21-25.42-.59-39.28-7.79-54-7.56-15.4-16.12-32.85-10.38-65.46,11.19-63.47,88.74-81.49,89.53-81.67a2.21,2.21,0,0,1,1,4.31c-.75.17-75.47,17.57-86.14,78.13-5.5,31.19,2.37,47.23,10,62.75s14.71,30,8.11,57A2.22,2.22,0,0,1,1250.92,584.08Z"/><path class="a9b27034-f7aa-48d2-bb62-0f3f627902b2" d="M2120.19,725.58c5-16.83,20.1-30.15,26.22-46.41,10.79-28.7-7.52-53-15.71-79.34-8.62-27.74,9.93-41.43,16.26-66.64,15.29-60.86-39.68-121.34-99.79-121.34-36.41,0-70,22.77-87.12,54-8.43,15.33-14,33.09-13.55,50.7.56,21.48,13.37,37.87,17.12,58,3.55,19.05-7.69,28.64-13.71,45.15a105.17,105.17,0,0,0,10.3,91.64c5.93,9.17,17.14,17,16.63,28.88-.59,13.38-15.29,23.67-21.25,34.8-7.07,13.22-10.06,29.46-10.06,44.31,0,62.61,57.78,109,117.13,99.85,38-5.88,69.19-35.09,80.31-71.33,6.08-19.8,5.05-37.27-2.53-56.37-6.64-16.75-24.73-42.62-21.3-61.52A39.73,39.73,0,0,1,2120.19,725.58Z"/><path class="f36da2df-3771-4392-a525-a896c1f56e54" d="M2110.67,611a2.2,2.2,0,0,1-2.14-1.62c-6.07-23.91.5-36.83,7.45-50.5s14.17-27.86,9.14-55.39c-9.77-53.49-78.15-68.81-78.83-69a2.14,2.14,0,0,1-1.68-2.54,2.22,2.22,0,0,1,2.64-1.61c.71.15,71.94,16.12,82.22,72.37,5.28,28.9-2.59,44.37-9.53,58-6.59,13-12.81,25.19-7.13,47.61a2.12,2.12,0,0,1-1.61,2.57A2.46,2.46,0,0,1,2110.67,611Z"/><path class="a9c3c168-9d86-49a2-88c7-f6bdaa1b69c3" d="M2041.88,1163.82h0a7.69,7.69,0,0,1-7.68-7.68V517.43a7.7,7.7,0,0,1,7.68-7.68h0a7.71,7.71,0,0,1,7.68,7.68v638.71A7.7,7.7,0,0,1,2041.88,1163.82Z"/><path class="aa07eda9-f4a2-4ae0-b53c-1884a553059c" d="M486.16,1120.69V770.17a84,84,0,0,1,83.06-84c138.21-1.51,423.26-1.58,656.49,18.07a63.14,63.14,0,0,1,57.74,60.69l21.8,338.88a80.25,80.25,0,0,1-78.67,83.13l-660.14,12.54A78.78,78.78,0,0,1,486.16,1120.69Z"/><path class="b5449168-535c-449a-b407-db33d4588c1c" d="M597,640.62V394.46a59,59,0,0,1,58.33-59c97.06-1.06,297.24-1.11,461,12.69a44.33,44.33,0,0,1,40.54,42.62l15.31,238A56.34,56.34,0,0,1,1117,687.12l-463.6,8.81A55.32,55.32,0,0,1,597,640.62Z"/><path class="f6be11d1-d977-41d4-b5a6-222f7bdbb415" d="M861.93,545.05l66.64,7.18a15,15,0,0,0,16.59-16L930.59,338c-27.93-.89-55.48-1.53-82.07-2V530.11A15,15,0,0,0,861.93,545.05Z"/><path class="b92c094e-6e01-4976-8ced-26db761fe106" d="M889.24,510.69a6.71,6.71,0,0,0,6.69,6.32l.39,0a6.69,6.69,0,0,0,6.3-7.07l-10-173-13.44-.31Z"/><path class="a9b27034-f7aa-48d2-bb62-0f3f627902b2" d="M652.07,566,616.18,906.92l68.22,7.19,35.9-340.89C719.53,580.51,651.3,573.33,652.07,566Z"/><path class="f9824797-7f3c-49fc-b8e3-7cac48525316" d="M633.25,908.72,664.47,912c11,1.16,20.64-4.64,21.52-13l34.16-324.41a11.89,11.89,0,0,1,13.08-10.58,3.61,3.61,0,0,1,3.21,4L699.11,922.59c-.86,8.13-15,19.69-30.77,18L624.73,936c-14.87-1.56-25.6-15.36-24.79-23l37.22-353.53a5.49,5.49,0,0,1,6-4.88,10,10,0,0,1,8.92,11L617.53,894C616.78,901.15,623.82,907.73,633.25,908.72Z"/><path class="baf71e60-cb99-4a37-be59-2fa768f32244" d="M671.4,905.38h-.23a2.2,2.2,0,0,1-2-2.42l33.65-319.63a2.21,2.21,0,1,1,4.39.46L673.59,903.41A2.2,2.2,0,0,1,671.4,905.38Z"/><path class="baf71e60-cb99-4a37-be59-2fa768f32244" d="M661.28,904.32l-.24,0a2.2,2.2,0,0,1-2-2.42l33.66-319.63a2.2,2.2,0,1,1,4.38.46L663.47,902.34A2.22,2.22,0,0,1,661.28,904.32Z"/><path class="baf71e60-cb99-4a37-be59-2fa768f32244" d="M651.15,903.25h-.23a2.22,2.22,0,0,1-2-2.43l33.66-319.63a2.21,2.21,0,0,1,4.39.47L653.34,901.27A2.21,2.21,0,0,1,651.15,903.25Z"/><path class="baf71e60-cb99-4a37-be59-2fa768f32244" d="M641,902.18h-.23a2.2,2.2,0,0,1-2-2.42l33.65-319.63a2.21,2.21,0,1,1,4.39.46L643.21,900.21A2.2,2.2,0,0,1,641,902.18Z"/><path class="baf71e60-cb99-4a37-be59-2fa768f32244" d="M630.89,901.12h-.23a2.21,2.21,0,0,1-2-2.43l33.65-319.63a2.21,2.21,0,0,1,4.39.46L633.09,899.14A2.21,2.21,0,0,1,630.89,901.12Z"/><path class="af476fc8-b3da-4de2-9141-10d82f553910" d="M811.87,1169.15l81.84-529.4c2.52-16.31-9.18-31.67-26.14-34.29l-86.22-13.33c-17-2.62-32.75,8.49-35.27,24.8l-81.84,529.39c-2.52,16.32,9.18,31.68,26.14,34.3L776.6,1194C793.55,1196.57,809.35,1185.46,811.87,1169.15Z"/><path class="a9c3c168-9d86-49a2-88c7-f6bdaa1b69c3" d="M861.89,733.22l7.59-49.13a10.33,10.33,0,0,0-8.85-11.61l-92.9-14.36a10.33,10.33,0,0,0-11.94,8.4l-7.6,49.13A10.33,10.33,0,0,0,757,727.26l92.9,14.36A10.33,10.33,0,0,0,861.89,733.22Z"/><path class="a9c3c168-9d86-49a2-88c7-f6bdaa1b69c3" d="M856,771.2l1.5-9.67a8.4,8.4,0,0,0-7.2-9.44l-96.78-15a8.38,8.38,0,0,0-9.71,6.82l-1.5,9.67a8.41,8.41,0,0,0,7.2,9.45l96.78,15A8.4,8.4,0,0,0,856,771.2Z"/><path class="bd40cce3-7161-4665-9c6a-b1a2734242d8" d="M610.65,698.76A147.09,147.09,0,0,1,607,730.11v0c-2.21,13.26-7.52,25.84-13.77,37.48,0,0,0,0,0,0a146.4,146.4,0,0,1-59,59.12c-.17.09-.32.21-.49.3a145.71,145.71,0,0,1-22.75,9.84s-.08,0-.12,0A146.22,146.22,0,0,1,318.48,698.28,149.42,149.42,0,0,1,319.72,679a146.2,146.2,0,0,1,85.64-114.31l1.37-.64a145.77,145.77,0,0,1,57.93-11.94c1.28,0,2.52,0,3.76,0a12.19,12.19,0,0,1,1.37.05c33.45,2,60.32,15.35,69.73,20.62a31.35,31.35,0,0,1,3.21,2.36c.13.09.26.74.38.74h0C583.84,600.17,610.65,646.91,610.65,698.76Z"/><path class="f36da2df-3771-4392-a525-a896c1f56e54" d="M543.11,575C479.71,580,448,631,448,631a27.23,27.23,0,0,1-4.4,7.49s0,0-.09,0a12.12,12.12,0,0,1-5.39,3.81,0,0,0,0,1,0,0,9.07,9.07,0,0,1-6.25-.26c-6.71-4.19-11.72-12.32-15.48-21.73-9.5-23.66-11-55.74-11-55.74l1.37-.64a126.46,126.46,0,0,1,61.69-11.9,12.19,12.19,0,0,1,1.37.05c33.45,2,60.32,15.35,69.73,20.62,1.58.89,2.65,1.54,3.21,1.88Z"/><path class="f36da2df-3771-4392-a525-a896c1f56e54" d="M411.18,636.25v23.53l-.64.13c-43.47,8.3-53.09,121.75-54.2,136.51a145.66,145.66,0,0,1-37.86-98.14A149.42,149.42,0,0,1,319.72,679c11.85-46.68,64.17-45.86,83.89-43.77C408.31,635.69,411.18,636.25,411.18,636.25Z"/><path class="f36da2df-3771-4392-a525-a896c1f56e54" d="M607.33,730.11s0,0,0,0a146.8,146.8,0,0,1-14,37.48,0,0,0,0,0,0,0c-14.85,20.11-37.09,45.09-59,59.12l-.51.3c-7.74,4.92-15.44,8.43-22.76,9.84,0,0-.08,0-.13,0s-.21,0-.3,0c-30.11-4.92-67.37-127.53-79.74-171.21-2.74-9.54-4.23-15.31-4.23-15.31l11.42-8.09c1.58-1.11,3.38-2.4,5.43-3.85.05,0,.05,0,.09,0l7,1C561.72,656.66,596.93,710.73,607.33,730.11Z"/><circle class="bbb510ea-e130-4650-b13b-feb960385a7a" cx="426.69" cy="642.13" r="24.06"/><path class="ea90abd8-57d3-4b69-91c4-0e5a71ab1292" d="M691.15,676.18h0A133.61,133.61,0,0,1,532.63,680l-5.49-3.85c-2.73,3.28-55.3,58-85,125.45a12.36,12.36,0,0,0,.85,11.49c5.18,8.37,16,23.61,29.44,29.8a12.35,12.35,0,0,0,14.38-3.06c9.92-11.15,31.79-36.19,42-51.53,0,0-17.85,98.48-22.66,138.78a22.64,22.64,0,0,0,19,25c58.61,9.3,115.14,10.65,168.73.66a22.68,22.68,0,0,0,18.36-24.91c-4.68-40.17-22.75-139.55-22.75-139.55,10.22,15.34,32.1,40.38,42,51.53a12.35,12.35,0,0,0,14.38,3.06c13.41-6.19,24.25-21.43,29.44-29.8a12.36,12.36,0,0,0,.85-11.49C746.45,734.16,693.88,679.46,691.15,676.18Z"/><path class="a9c3c168-9d86-49a2-88c7-f6bdaa1b69c3" d="M717.23,706.73c-14.17-17.86-24.89-29.12-26.08-30.55h0A133.61,133.61,0,0,1,532.63,680l-5.49-3.85c-1.09,1.3-10,10.73-22.3,25.84C530,720.49,602.45,759.44,717.23,706.73Z"/><path class="a9c3c168-9d86-49a2-88c7-f6bdaa1b69c3" d="M710.19,912.44c-2.29-16.21-5.56-36.54-8.84-56-76.11,12-137.67,9.81-184.79,2.38-3.26,19.52-6.49,39.65-8.71,55.44C557.58,923.26,625,926.75,710.19,912.44Z"/><path class="a9c3c168-9d86-49a2-88c7-f6bdaa1b69c3" d="M693.33,809.92c-2.31-13.06-3.86-21.59-3.86-21.59,3.67,5.51,8.85,12.27,14.43,19.19a684.87,684.87,0,0,0,66-19.23,419.32,419.32,0,0,0-26.17-45.1c-144,56.79-236.17,23.8-272.22,4.6a397.66,397.66,0,0,0-26.81,48.11c13.73,6.2,34.84,14,63.19,19.51,7.91-9.5,15.84-19.48,20.91-27.08,0,0-2.21,12.2-5.29,29.76C566.38,824.47,623.11,825.18,693.33,809.92Z"/><path class="f9a33c74-1ca1-4b8c-8d78-25d569c4f9db" d="M525.78,687.67a7.09,7.09,0,0,1-1.92-13.92c2.88-.82,71.74-19.75,171.37-5.52a7.09,7.09,0,1,1-2,14c-96.68-13.81-164.83,4.94-165.51,5.13A7.13,7.13,0,0,1,525.78,687.67Z"/><path class="a7a83e92-b339-4101-a506-272447d91bb6" d="M599.88,677.18a7.09,7.09,0,0,1-7.08-6.82c0-.14-.52-13.73-.52-26.14,0-7,5.66-13.2,12.82-21.1,14.65-16.17,19.38-24.21,10.73-32.2-5-4.61-9.77-6.59-14.59-6-9.46,1-16.63,11.26-16.7,11.36a7.09,7.09,0,0,1-11.71-8c.43-.63,10.79-15.62,26.74-17.44,9.07-1,17.77,2.23,25.88,9.72,20.38,18.81,1.46,39.67-9.84,52.14-3.45,3.81-8.64,9.54-9.15,11.72,0,12.1.51,25.32.51,25.45a7.09,7.09,0,0,1-6.81,7.36Z"/><path class="aabcca40-aa98-4c05-8060-97bdde3c7644" d="M809.6,816.32,786.54,1214l145.66-15.54c6.71-.73,11.87-6.74,12.12-13.49l13.44-368.61Z"/><path class="a938c978-e5d1-4ea1-b713-147e753bf8a4" d="M256.78,843.88,274,1186.39a23.06,23.06,0,0,0,22.76,21.66l489.63,6.53c6.09.08,10.71-2.28,15-6.56s5.53-10.11,5.53-16.2V817.55Z"/><path class="aa4de5f1-83e6-4456-afcf-df6e141b3cfd" d="M995.28,881.46l-28.81-65.14H809l58.39,90.79a13.84,13.84,0,0,0,13.07,6.42l104-12.56a13.91,13.91,0,0,0,10.19-7A14.1,14.1,0,0,0,995.28,881.46Z"/><path class="b4db917d-5c94-40b1-99f4-1e379f447bbb" d="M246.87,816.32,204.26,894a14.17,14.17,0,0,0,.13,13.69,13.74,13.74,0,0,0,11.53,6.95L742,924.14c5,.09,9.72-3.2,12.16-7.62L809,816.32Z"/><path class="f6be11d1-d977-41d4-b5a6-222f7bdbb415" d="M579.69,1079.18a23,23,0,0,0-22.22-18H486.64c-12.56,0-23.77,10.63-23.77,23.2v126.51l145.77,1.26Z"/><path class="b92c094e-6e01-4976-8ced-26db761fe106" d="M527.25,1108c-.24-3.62-3.24-7.14-6.86-7.14h-3.77c-1.88,0-3.68,1.48-5,2.84a7.71,7.71,0,0,0-1.88,5.43l5,101.43,19.13-.13Z"/><path class="a3a3dde0-66b9-45ca-b8b3-97496254f27e" d="M345.92,979.89a128.05,128.05,0,0,1,19.42-1.32c12.07,0,19.89,2.17,26,6.79,6.6,4.9,10.74,12.72,10.74,23.94,0,12.16-4.43,20.55-10.55,25.73-6.7,5.57-16.88,8.21-29.32,8.21a124.32,124.32,0,0,1-16.31-1Zm14.42,51.85a26.77,26.77,0,0,0,5,.28c13,.09,21.49-7.07,21.49-22.25.1-13.19-7.63-20.17-20-20.17a29.39,29.39,0,0,0-6.51.57Z"/><path class="a8776a65-93fe-4f39-888c-b89939312813" d="M469.69,1010.15c0,20.83-12.63,33.46-31.21,33.46-18.85,0-29.88-14.23-29.88-32.33,0-19,12.16-33.27,30.92-33.27C459,978,469.69,992.62,469.69,1010.15Zm-45.91.85c0,12.44,5.84,21.21,15.46,21.21s15.27-9.24,15.27-21.59c0-11.41-5.47-21.21-15.37-21.21C429.44,989.41,423.78,998.65,423.78,1011Z"/><path class="b5607dad-bc37-43a9-8695-8f3346533ea8" d="M479.11,1042.58V979h16.78l13.19,23.29a183.09,183.09,0,0,1,10.37,21.77h.29a234.05,234.05,0,0,1-1.23-26.49V979h13.2v63.54H516.63l-13.58-24.51a236,236,0,0,1-11-22.44l-.28.1c.38,8.39.57,17.34.57,27.71v19.14Z"/><path class="b1bb2456-3ff0-4a8b-b3d7-7e154918a185" d="M558.94,1026.27l-4.52,16.31H539.53L558.94,979H577.8l19.7,63.54H582l-4.9-16.31Zm16.12-10.75-4-13.48c-1.13-3.77-2.26-8.48-3.2-12.25h-.19c-.94,3.77-1.89,8.58-2.92,12.25L561,1015.52Z"/><path class="a9e87824-88eb-402b-95f0-8b7952896158" d="M610.41,991.11H593.35V979h48.83v12.07H624.83v51.47H610.41Z"/><path class="ac946bfe-13fe-45b1-92d0-fdc4dfae3ec3" d="M687.61,1015.71H664.23v15.08h26.11v11.79H649.81V979H689v11.78H664.23V1004h23.38Z"/><path class="f502bab0-2b40-4476-86d6-827e91ed3d26" d="M1635.58,1162.93c42.62-9.35,80.76,4.39,99.88-10.94s14.27-22.41,41.71-27.57,60.83,38.51,60.83,38.51-30.81,8.93-86.16,8.93C1593,1171.86,1593,1172.29,1635.58,1162.93Z"/><path class="a7c72d23-bfb8-49ea-a0ac-d1bb9a95843d" d="M1715,1169.54c0-9.25-57.38-16.75-128.16-16.75s-128.17,7.5-128.17,16.75,57.38,22.94,128.17,22.94S1715,1178.8,1715,1169.54Z"/><path class="b1c0e333-070f-4a62-a1bf-78b54120fd49" d="M1589.39,1193.37c30.62,0-67.87-9.47-113.45-25.42-33.66-11.78-72.15-31.32-91.9-31.32-46.5,0-53,39.95-157.53,57.21C1226.51,1193.84,1536.14,1193.37,1589.39,1193.37Z"/><path class="ad098a5d-779c-4c9b-95eb-f15eb47e3536" d="M1590.61,1046.53c-4.16-13.2,16.21,5.62,43.51,2.18s25.19-21.28,30.92-11,33.55,57.71,29.88,76.48c-2.23,11.43-8.49,20.52-13,25.87a11.09,11.09,0,0,1-11.76,3.41c-13.94-4.33-45.76-15.78-54.72-32.45C1603.83,1089.5,1594.76,1059.73,1590.61,1046.53Z"/><path class="a9c3c168-9d86-49a2-88c7-f6bdaa1b69c3" d="M1628.61,1006.34s-12,1.59-11.56,26.56c0,0,30,22.9,68.28,25.9,2.88.22-5.49-19.08-6.73-21.68C1672.73,1024.72,1656.74,1017.69,1628.61,1006.34Z"/><path class="a4be4d26-c928-4552-90fb-f38781e5e555" d="M1532.67,847.11l23.45-3.11s21.4,6.12,94,33.69c0,0,13.07,25.86-7.42,131-3.32,6.74-11.93,9.43-18.09,5.13a10.26,10.26,0,0,1-3.87-5s-4.41-83.23,9.36-98.93c0,0-41.7-9.35-59.69-8.32C1554.26,902.44,1478.62,900.8,1532.67,847.11Z"/><path class="eec2b437-a500-4cb8-9dff-c14a06c084bc" d="M1678.6,1037.12c-6.41,2.64-8.57,12.19-25.75,7.34a148,148,0,0,1-35.76-15.39c0,1.22-.06,2.48,0,3.83,0,0,31.74,25.76,70,28.76a3.78,3.78,0,0,0,3.67-5.39A95.08,95.08,0,0,0,1678.6,1037.12Z"/><path class="a9c3c168-9d86-49a2-88c7-f6bdaa1b69c3" d="M1522,1101.05s12,10.08,16.74,24.46c1.16,3.53-1.71,11.58-5.43,11.58H1509c-3.56,0-9.43-8.51-8.8-12C1501.73,1116.31,1509.33,1101.09,1522,1101.05Z"/><path class="bcc06514-80f4-456b-9e14-8ab429484dac" d="M1507.36,1088.18s2.38,10.57,4.22,17.56a2.23,2.23,0,0,0,2.92,1.52c3.68-1.32,6.68-1.9,8.86-1.61a1.72,1.72,0,0,0,1.9-1.72l.23-17.55Z"/><path class="ee4f7355-a14a-4738-b994-46ea8a991bf6" d="M1503.3,1115.93a30.07,30.07,0,0,0-4,17.78c.74,12.73,30.08,16.69,35,15.58,10.41-11.45,4.76-25.53,2.06-29.84,0,0,5.85,15.55-13.64,15.55S1503.3,1115.93,1503.3,1115.93Z"/><path class="a53ea0cf-8c4c-44e4-986a-64a824c38c90" d="M1613,768.93s-32.81,57.11-2.08,117.91l-20.84,23-2.86-33.77s-22.16-43.08-8.13-95.38C1579.54,779,1587.51,749.89,1613,768.93Z"/><path class="f3dd5912-2d48-44fd-adb6-8d23d9da1a57" d="M1626.71,709.89c-6.18-8.88-23.41-47.64-65.45-49.58-.31,0-.64.18-1,.18h-.1a93.53,93.53,0,0,0-11,.26c-23.83,1.84-46.35,4.2-64.06,14.15l15.55,46.23s22.31-.24,21.13,5.91c-13.09,29.46-29.1,81.75-26.9,107,23.05,20.09,44.08,18.92,60.49,11.23,0,0,15.21-39.64,38.32-70.86,0,0,14.15.12,21.81,1.53a4.86,4.86,0,0,0,5.57-3.48C1624.07,761.56,1628,711.78,1626.71,709.89Z"/><path class="b2b4f2a1-9973-44dc-baa6-68a651dd9940" d="M1555.36,845.29c-24.61,4.16-44.15-3.74-60.81-18.44-30.14,68.28,9.65,263.71,9.65,263.71l24.47-1.87c-7.25-78,7.7-182.74,7.7-182.74Z"/><path class="ae579235-db92-4e78-8fb4-7a2e529dcdea" d="M1576.88,651l-7.11,30.19a3.27,3.27,0,0,0,1.48,3.56c4.46,2.67,16,7.83,31,1.24a4.86,4.86,0,0,0,2.87-4.34l.55-26Z"/><path class="a83a5afc-4345-461e-84db-817278e792a4" d="M1627.5,623.8s-2.52,31-13.76,41.17-34.68,4.44-43.85-18.27l13.1-40.57Z"/><path class="b8144fa5-64de-45b5-8d51-cdb634131527" d="M1582.79,631.88a1.52,1.52,0,0,0,1.91-1.34c.25-2.86,1-8.54,2.9-12.5,0,0-1.37-4,10.32,1.45s29.23,13.34,38.93,7.41c9.44-5.79,17.76-32.54-7.75-26.14a1.53,1.53,0,0,1-1.91-1.49c.06-4.31-1-14.18-11.17-16.75-9.55-2.41-14.42,2.13-16.38,4.82a1.53,1.53,0,0,1-2.38.1c-3-3.5-11.12-10.84-22-5.22-9,4.63-10.1,10.42-9.73,14a1.52,1.52,0,0,1-2.08,1.57c-2.91-1.13-7.5-1.53-11.54,4.19-5.57,7.92,3.44,14,6.13,15.52a1.56,1.56,0,0,1,.77,1.22c.26,3.92,1.9,21,11.08,30.18a1.53,1.53,0,0,0,2.52-.59l5.67-16.16a1.52,1.52,0,0,1,1.82-1Z"/><path class="a9b27034-f7aa-48d2-bb62-0f3f627902b2" d="M1631.6,623.13a.83.83,0,0,1-.25-1.62c.33-.1,8.11-2.7,7.42-12.39a.81.81,0,0,1,.76-.88.84.84,0,0,1,.89.76c.78,11-8.48,14.06-8.58,14.09A.67.67,0,0,1,1631.6,623.13Z"/><path class="b6f7758c-0a54-4167-aa43-158e717fad89" d="M1583.12,635.07s-5-16.21-10.84-10.49,2.63,17,9.79,18.82Z"/><path class="aca7f8ec-3a58-4952-a8f4-e5b65b00f662" d="M1593.71,775.43a1,1,0,0,1-.66-.25,1,1,0,0,1-.09-1.41c11.7-13.29,22-35.52,22.15-35.74a1,1,0,0,1,1.32-.49,1,1,0,0,1,.49,1.33c-.1.22-10.57,22.71-22.46,36.22A1,1,0,0,1,1593.71,775.43Z"/><path class="e77fca88-f162-40dd-97dc-be4eab08bf14" d="M1636.78,1042.27c-21.88-46.24-48-146.53-53-192.15l14.28-34.36s6.19-18.23-4.37-17.64-40.87,2.57-49.23,4.6-3.81,18.68,8.93,24.13S1570,851.8,1570,851.8c6.15,45.29,32,146.92,53,194.24S1658.65,1088.5,1636.78,1042.27ZM1556,820.06l36.25-2.06-14.49,30.23S1570.08,825.48,1556,820.06Z"/><path class="aeee487e-1f70-413a-a2b5-bd700fa424c5" d="M1487.48,675.9s17.21,80.66,56.35,115.71c0,0,18-2.61,23.84,6.63s5,23.07,1.19,24.47-12.83-2.65-12.83-2.65l-37.36-26.39S1471,755.16,1463,706.91C1460.91,685.7,1472.83,677,1487.48,675.9Z"/><path class="a97a80d1-f9c3-4d2d-a6cc-91f1791be7bd" d="M1590.07,871.62s-19,9.94-15.65,22.51,7.63,18.81,7.63,18.81l11.87-7.35Z"/><path class="a9b27034-f7aa-48d2-bb62-0f3f627902b2" d="M1646.43,1080.91c-1.27,0-2.87-.77-4.76-2.3a1,1,0,0,1,1.25-1.55c2.23,1.79,3.51,2,3.92,1.72,1.34-1,.91-8.53-9.2-29.89a1,1,0,0,1,1.81-.86c8.94,18.91,11.85,29.79,8.63,32.32A2.59,2.59,0,0,1,1646.43,1080.91Z"/><path class="a9b27034-f7aa-48d2-bb62-0f3f627902b2" d="M1666.34,1133.7a1.19,1.19,0,0,1-.32,0c-1.41-.47-34.65-11.56-42.56-20.26s-23.41-54.69-24.07-56.64a1,1,0,1,1,1.9-.64c.16.48,16.06,47.58,23.65,55.94s41.37,19.59,41.71,19.7a1,1,0,0,1,.63,1.26A1,1,0,0,1,1666.34,1133.7Z"/><path class="ab2c2aff-f777-402e-9d08-830f0893dff9" d="M1474.3,1064.18s8.67,51.64,9,62.28.29,16.66.75,22.21,3.7,18.51,3.7,18.51l6.94.92a227.86,227.86,0,0,1-2.31-31c0-16.18-2.31-25,0-44.67a327.51,327.51,0,0,0,2.31-34.45s-2.31-23.59-3.7-13.88-.46,23.6-2.31,37-2,29.34-3.56,20.45-4.31-26.93-4.77-30.17S1475.23,1049.56,1474.3,1064.18Z"/><path class="bcc8fb7c-b652-429b-b2fc-db3c408959a8" d="M1533.11,1088.3s5.7,42.29,5.38,50.91-.66,13.46-.52,18,2.64,15.2,2.64,15.2l6.87,1.24a150.21,150.21,0,0,1-.54-25.2c.93-13.06-.87-20.37,2.56-36.06a215.29,215.29,0,0,0,4.28-27.64s-1-19.22-2.9-11.47-1.81,19-4.43,29.72-3.7,23.54-4.72,16.26-2.75-22-3-24.7S1534.87,1076.56,1533.11,1088.3Z"/><path class="ec59e04f-ddc2-48c3-8675-7b50c27e220f" d="M1591.05,1072.25s3.52,50.22,3,60.49-.89,16.06-.9,21.43,1.75,18,1.75,18l5.58,1.29a259.76,259.76,0,0,1,.23-30c1.11-15.58-.17-24.23,3-43s4.23-33,4.23-33-.27-22.86-2.06-13.58-2,22.7-4.41,35.51-3.65,28.14-4.29,19.49-1.66-26.18-1.81-29.32S1592.8,1058.23,1591.05,1072.25Z"/><path class="b276a89a-04ac-4195-8dc7-7d4758cd5823" d="M1946.41,877.41a24.84,24.84,0,0,0-4.68-2.86c-14.78-6.86-32.46.19-46.63,5.36s-32.09,20.31-47.48,19.47c-13.73-.75-16.48-24.45-21.83-34.22-7.42-13.52-19-26.67-35.92-25-6,.58-32.18,8.64-33.42,16.89-.92,6.08,8.61,14,22,21.31-9.49,32.82,46.91,108.75,51.82,119.45,6,13,92.47,45.23,117,41.56,14.85-2.23,23.86-19.59,28.26-32,4.49-12.61,11-29.44.54-40.57-5.93-6.31-19.93-11.41-23.72-18.86-6.37-12.54,3.84-25.72,6-37.94C1960.25,898.43,1955.79,884.67,1946.41,877.41Z"/><path class="e14d47d5-1493-4e28-9979-88e87387737f" d="M1745.4,1077.56l16.37,3.59,13.06,7-11.87,4.27s-3.4-2.8-6.79-6.06C1745.58,1083.3,1745.4,1077.56,1745.4,1077.56Z"/><path class="a816aab1-92b6-4bb3-bc32-a5f9f94d780b" d="M1723.38,1107.1c1.88-2.12,8-10.49,15.61-11.44,7.3-.91,15-2.28,17.58-4.23,5.44-4.1,21.09-3.58,21.09-3.58l42.43-39.17,18.12-10.11c-1.28,1.41,1.8,5.7,1.7,10.52a47.87,47.87,0,0,1-1,10c-1.3,5.64-61.71,44.08-61.71,44.08s-11.18,2.45-23.64,4.1C1741.92,1108.79,1729.12,1109.64,1723.38,1107.1Z"/><path class="ae21a9bf-6445-4899-9c13-58509b9073f1" d="M1820.42,971.12v76.43l-11.09,11.08,16.54,12,16-11.85a321,321,0,0,0,9-78.71Z"/><path class="a9a465f0-8c21-4b1d-9c93-92c554b275dc" d="M1816.22,1169.22c-14.21-3.41-19.24,12.93-31.1,7.68,2.74-3.08,17.73-15.61,26-21.81,5.43-4.11,18.44-1.56,18.44-1.56l34.49-108,16.15-2.28c4.6,1.42,9.63,6.17,7.59,10.52-23.89,51-49.17,112-50.82,115S1830.44,1172.64,1816.22,1169.22Z"/><path class="f1b74f70-88d0-4cf7-b4e2-ea1859eda0dd" d="M1945.63,1104.84c-.28.35-56.59,18.44-37,16s101.39,25,101.39,25l18.37-12.94c14.91,17.66,43.08,5.6,46,27.09l-59.53.22s-124.42,9.9-157.22-2.94c-9.91-3.61,19.45-61.89,19.45-61.89Z"/><path class="fd83d87d-dfe7-4361-ba48-662f81528cdd" d="M2022.32,1138.06s-.39-15.11,9.1-13.25c0,0,30,12.84,46.17,25.4,6.12,4.75,17.09,10.29,17.46,15,0,0-17.55,1.86-24.31-5.19C2054,1148.79,2041.17,1143.73,2022.32,1138.06Z"/><path class="e115370a-4f5b-4f6d-89af-f2ed0ca8902b" d="M1950.91,1101.69c-.29.36-22.28,29.89-22.28,29.89,19.6-2.48,105,24.19,105,24.19l18.37-14.59c14.91,17.65,43.08,5.59,46,27.09l-59.52.21s-124.43,9.9-157.22-2.94c-9.91-3.61,21.54-63.85,21.54-63.85Z"/><path class="a5e80e55-b1d2-4a8b-b5a2-4ace542d814e" d="M2046,1146.36s-.38-15.11,9.1-13.25c0,0,30,12.85,46.18,25.4,6.12,4.76,17.09,10.29,17.45,15,0,0-17.55,1.86-24.3-5.19C2077.63,1157.09,2064.8,1152,2046,1146.36Z"/><path class="ebd6295a-df1a-4e27-8c4f-42fe6f1987a8" d="M1913,1001.66S1946.47,984.85,1964,989s33.63,21.25,25.12,47.66-57,91-57,91l-70.46,1.87Z"/><path class="f7267045-2fa5-44b7-ab99-4524ba63b794" d="M1870.41,934c-25.65-22.12-35-15.69-35-15.69s-27.89,20.29-25.86,25.94c1.33,3.69,5.77,30.39,14,53.24a41.17,41.17,0,0,0,27.6,25.67c2.39.67,5,1.32,7.66,2,3.05,11.76,5.14,20.46,5.14,20.46l-18.87,57.36,17.95,5.47,25.26-52.28s2.28-9,1.77-24.36c13,2.06,26.94,3.32,26.94,3.32,48.21-9.34,56.75-24.11,59.62-39.66C1966.08,982.88,1936.87,996.27,1870.41,934Z"/><path class="a2ebe7fd-2a96-4854-a916-3a84de73ae81" d="M1787.12,920.85c1,.75,26,19.42,26.9,19.5s16.86-10.4,20.44-20.65l-31.13-16.59Z"/><path class="af1d13fb-ba97-488d-a25e-0f2042b34db3" d="M1767.25,871.32s-8.33,14-3.66,37.57,16.77,27.08,25.3,22.5,19.94-13.26,23.81-33.56S1778.5,853.66,1767.25,871.32Z"/><path class="ac545b0c-0d39-498a-9354-85d07e6dd35d" d="M1797.62,894.56s-9.74-32.31-32.64-15.88l-2.58,7.66s-18.78-8-10.12-24.88,28.76-23,48.14-8.93,29.46,25.69,26.29,41.62-14.52,8.89-14.52,8.89-.81-12.11-6.2-14.94-6.41,6.14-6.41,6.14Z"/><path class="ba79fa61-779c-4df5-940c-7b84f701548a" d="M1802.26,895.53s-5.1-16.58,4.92-15.87,4,15.85,1.26,21.32Z"/><path class="b6c973bc-dcac-421e-8468-9276133d9c4f" d="M1742.73,1098.59c4.75.17,4.79,2.3,4.29,3.52s-3.41.66-5,1.15-3.79,3.23-5.2,1.86S1737.91,1098.42,1742.73,1098.59Z"/><path class="bc9d6524-e12c-4278-b497-462b1b3099ac" d="M1750.26,1097.2c-.32-3.93,1.8-4.23,3.06-4s1,2.73,1.64,4,3.59,2.73,2.38,4.06S1750.58,1101.2,1750.26,1097.2Z"/><path class="b46d5855-bc8c-4c7f-ab59-a7d937aec467" d="M1767.29,1099.12c-3.39,3.85-5.33,2.32-6.08,1s1.73-3.33,2.38-5-.3-5.54,1.88-5.71S1770.74,1095.21,1767.29,1099.12Z"/><path class="f08ed83b-c5f2-46fe-b8b7-84859a3760c8" d="M1891.28,1032.78a1.1,1.1,0,0,1-1.1-1.09c-.32-17.69-7.65-41.06-7.73-41.3a1.1,1.1,0,0,1,.72-1.38,1.09,1.09,0,0,1,1.38.72c.08.23,7.51,23.91,7.83,41.93a1.1,1.1,0,0,1-1.08,1.12Z"/><path class="f78d61b4-73ab-4e61-ac36-a2db8d4ef924" d="M1857.47,1026.09a1,1,0,0,1-1-.85c0-.15-2.24-14.87-5-23.73a1,1,0,0,1,1.91-.61c2.86,9,5.09,23.9,5.12,24a1,1,0,0,1-.85,1.14Z"/><path class="a9b27034-f7aa-48d2-bb62-0f3f627902b2" d="M1760.51,878.18a.84.84,0,0,1-.7-.39c-.21-.34-5.15-8.4-3.15-15.37a11.29,11.29,0,0,1,6.26-7.07.83.83,0,1,1,.73,1.49,9.66,9.66,0,0,0-5.4,6c-1.8,6.27,2.92,14,3,14a.83.83,0,0,1-.7,1.26Z"/><path class="a9b27034-f7aa-48d2-bb62-0f3f627902b2" d="M1851.56,910.92a34,34,0,0,1-5.71-.42.83.83,0,0,1-.66-1,.82.82,0,0,1,1-.67,42.73,42.73,0,0,0,26.24-5c3.62-2,35.82-19.82,51.87-12,4.71,2.29,7.57,6.54,8.51,12.64a.83.83,0,1,1-1.64.25c-.85-5.53-3.4-9.37-7.59-11.4-15.29-7.4-46.79,10-50.33,12A44.15,44.15,0,0,1,1851.56,910.92Z"/><path class="aa2eee54-2efe-49da-87b1-dcf34713f12f" d="M81.09,1181.08s-4.83,7.61-6,28.93a3.47,3.47,0,0,0,3.45,3.67h37.78a2.23,2.23,0,0,0,2.12-2.93c-2.22-6.55-8.91-22.52-23.85-31.65Z"/><path class="bcbe0588-daba-4534-84c1-78a04001f224" d="M79.45,1166.63l2.13,17.92a3.39,3.39,0,0,0,2.94,3,29.86,29.86,0,0,0,8-.08,5.53,5.53,0,0,0,4.56-5.49v-17.29Z"/><path class="eeeaac69-39b7-4f89-b77a-08b70ef157fa" d="M174.55,1179.1a52.73,52.73,0,0,0-7.07,26.67,6.66,6.66,0,0,0,6.71,6.52h58.67a2.8,2.8,0,0,0,1.61-5.1c-11.1-7.8-32.92-22.37-48.7-28.09Z"/><path class="a979a9b5-43fc-4b54-9534-07236fca58bf" d="M168.51,1159.75l4.56,22.13a4.56,4.56,0,0,0,5.39,3.59,16.69,16.69,0,0,0,5.16-2.16A5.23,5.23,0,0,0,186,1178l-4.71-26.8Z"/><path class="b5a1ee8d-1e60-4cfe-a535-f19a77b3886a" d="M87.82,852.12S72,866.09,69,882.9s8.45,290,8.45,290,15.84,2.64,24-2.31c0,0,9.69-177.3,17-218.26,0,0,38.62,183.65,49.32,216.83,0,0,15.27,1.86,20.19-1,0,0-10.12-238.07-22.83-280.4Z"/><path class="b17a461b-7882-4042-a496-9bd0bc119791" d="M118,946.49a1.67,1.67,0,0,1-1.6-1.24l-6.57-25.19-14-9a1.65,1.65,0,0,1,1.78-2.79l14.55,9.33a1.6,1.6,0,0,1,.7,1l6.73,25.82a1.65,1.65,0,0,1-1.18,2A1.52,1.52,0,0,1,118,946.49Z"/><path class="b5936197-39e3-4f1a-8c47-155adfac4a89" d="M244.19,694.27c-66.71-5.54-84.14,8.27-84.14,8.27l32,50.61s65.55-1.3,112.52-37.5a114.47,114.47,0,0,1-18.81-28.07A88.39,88.39,0,0,1,244.19,694.27Z"/><path class="a48d02a0-f9ad-4554-a209-ee0bc3ff246c" d="M348.65,596.36a2,2,0,0,0-3.89-.79l-8.52,18.17A19,19,0,0,0,334.73,625l3,10.58A18.29,18.29,0,0,1,334,650.09c-7.82,9.78-24.48,27.63-48.19,37.49a114.47,114.47,0,0,0,18.81,28.07c17.23-13.28,32-31.26,40-55.6a8.94,8.94,0,0,0,6.3-8.87Z"/><path class="b72c3069-38f8-4b54-abae-11535c483102" d="M266.15,723.61c-23.49-25.3-68.22-36.73-94.11-41.43a23.76,23.76,0,0,0-26.55,15.06C133.83,728.57,102.14,810.08,96,824.08c-5,11.5-10.3,22.72-13.64,29.74A8.41,8.41,0,0,0,86.28,865c21.79,10.51,61,22.39,76.89,27a5.45,5.45,0,0,0,7-5.24,17,17,0,0,1,2.43-8.77l60.2-100.31c37.52,41.6,70.38,45.4,95.62,36.3A190.06,190.06,0,0,1,320,774.61C282.74,768.22,266.15,723.61,266.15,723.61Z"/><path class="ab70557b-20a3-4dde-b943-88c9d44d82e5" d="M381.67,767.63l-6.73-9c-21.79,15-40,18.51-54.91,16A190.06,190.06,0,0,0,328.39,814C361.64,802,381.67,767.63,381.67,767.63Z"/><path class="f34a0b6d-4848-48dd-aacd-b5ff2e6d06b2" d="M373,760.75l28.78,24.74,39.46,6.43c-2-5.57-28.16-18.16-28.16-18.16s-20.41-21.93-26.68-26.93c-5.21-4.14-10.42,3.95-12,6.81-.33.58-.51,1-.51,1Z"/><path class="a1f8427e-887f-40e7-9476-8dd3a7638566" d="M207.66,635.71l-20,48.81s23,15.91,41.48,14.39l10-43.89Z"/><path class="e1fe0d51-3e7a-40f7-a93d-c402ba92e9e5" d="M241.45,602.43c.46.65,14.47,51.27,14.47,51.27l-29.08,7.39-20.41-46S233.78,591.56,241.45,602.43Z"/><path class="af14926b-45dc-4113-8349-1290342aac56" d="M217.38,622.07l8.85,25.06a3.48,3.48,0,0,0,.46.9c1.2,1.71,5.76,7.27,11.17,2.26,4.91-4.55,9.46-8.63,13.66-9.37a3.71,3.71,0,0,1,4.22,2.66A159,159,0,0,1,260.63,668a3.7,3.7,0,0,1-3,4c-5.68,1.08-17.72,3-27.77,2.31a3.72,3.72,0,0,1-3.13-2.16c-2.77-6-11.26-24.42-14.41-29.17-3-4.46-10.23-4.33-13.28-4.06a3.65,3.65,0,0,1-2.73-.9c-2.66-2.33-7.74-8.3-.6-15.44a3.72,3.72,0,0,0-.09-5.35c-3.06-2.88-6.34-8-1.23-14.32s12-5.42,16.23-3.89a3.71,3.71,0,0,0,4.47-1.65,3,3,0,0,1,3-1.42,3.65,3.65,0,0,0,3.9-3.75c-.07-4.12,1.4-9.34,8.56-11.56,12.7-4,20.62,8.31,21.41,17.47s-13.23,12.66-21.47,12c-6.27-.47-10.92,5.74-12.79,8.75A3.69,3.69,0,0,0,217.38,622.07Z"/><path class="f10f6ffc-c603-40f4-a909-8c608b1737e1" d="M215.62,652.08s-2.05-15.9-8.66-16.68-13.05,4.66-6.48,13.58C208.66,660.08,215.62,652.08,215.62,652.08Z"/><path class="b04350bb-cb14-4e99-bc8b-95914b797d09" d="M998.77,1016.59s52.91,115.32,80.67,163.08c0,0,5.51,30.06,0,39.51l-4.7,2.08,21.93-.65s1.95-40.42.43-42.68-4.57-2.11-4.57-2.11-9.4-74.5-36.63-90.39l-26.39-90.9Z"/><path class="e590ad92-9502-4bc3-b71b-bcf485b3cdfd" d="M1065.38,1226.93c0,.52,17.12.28,26.44.11a7.42,7.42,0,0,0,7.11-5.84l7-37a6.64,6.64,0,0,0-5-7.72l-3.92-.9s-5.61,7.69-3.84,14.93,3.33,26-1.13,28.17-17.28,2.56-17.28,2.56S1065.67,1222.16,1065.38,1226.93Z"/><path class="ff128f09-186d-412f-a5d1-bc857940db90" d="M948.62,1227.6a1.93,1.93,0,0,0,1,3.61c15.6-.15,50.54-.65,53.65-1.94,4-1.66-1.46-16.07-7.22-21l-31.79,10.38Z"/><path class="bc29f684-8cc3-41e0-9aff-1c9235ddbff7" d="M938.76,1009.24s34.19,165.4,43.86,197.67l-22.88,14.35s11.46-2,20-2.56S996,1208.32,996,1208.32l-2.74-4.37s-8.57-164.5-6.49-183.18Z"/><path class="a6c12c49-f49d-4410-bc55-1cf44b8df756" d="M924.78,747c13.1,3.63,57.5,15.31,85.22,14.84l-17,96,1.35,15.66-55.48-.25S923.23,837,910.91,818.92c-3.56-5.22-.92-11.45,1.1-17.44l-2.77-1.84a7.56,7.56,0,0,1-3-8.63l13.51-41.34A4.13,4.13,0,0,1,924.78,747Z"/><path class="ec4558de-5bae-494b-9b60-ad9b22957164" d="M934.4,865.09l1.09,9.49s-15.68,47,7.84,156.63c0,0,50.94,14.43,92.81-20.1,0,0-11.81-103.52-15-108.34-16.06-24-26.77-29.24-26.77-29.24l-.48-10.36S949.07,871.26,934.4,865.09Z"/><path class="a40b5785-1efc-4d89-ae70-0d0ee35ef4a1" d="M956.12,754.74c-.19-.26,11.59-35.56,11.59-35.56l16.87,1.53,6.59,40S964.73,766.1,956.12,754.74Z"/><path class="f49dd6ef-b30e-4d8f-976d-d18e89494de9" d="M980.54,663.5c-1.13.7-36,15.14-28.55,51.4a6.79,6.79,0,0,0,3.87,4.85,59.16,59.16,0,0,0,29.36,4.86c18.3-1.86,30.29-33.79,29.78-43.08S991.69,656.56,980.54,663.5Z"/><path class="ac795423-dfc9-4ec4-b58e-77daeee97458" d="M921.9,767.11a7.4,7.4,0,0,0-6.59-10.05c-12.87-.59-35.25-4.65-54.19-23.6-12.29-12.28-15.54-57-15.54-57s-2.59-20.72-7.77-20.72,0,13,0,13a23.31,23.31,0,0,1-25.91-2.59c-12.95-10.36,2.59,15.55,15.54,20.73,0,0-5,102,80.23,103.64a7.45,7.45,0,0,0,7.08-4.76Z"/><path class="eaf3ea06-5074-43f9-aca8-267a976f7f6b" d="M968.69,736.72a47.64,47.64,0,0,1,4-19.2c2.89-6.62,2.3-14.35-2.34-19.9C962.77,688.54,960,677,964.19,667c6.53-15.74,27.47-22,46.77-14,13.67,5.68,22.84,17,24.69,28.72a26.41,26.41,0,0,0,10.09,16.88,48,48,0,0,1,16.57,23.4,26.57,26.57,0,0,0,12,15.14A73.91,73.91,0,1,1,971,769a18.92,18.92,0,0,0,.88-15.11A47.51,47.51,0,0,1,968.69,736.72Z"/><path class="a9b27034-f7aa-48d2-bb62-0f3f627902b2" d="M1056.17,742.92a.83.83,0,0,1-.83-.82c0-8.09-6.8-18-15.15-22.09-9.32-4.56-12-12.24-17.91-34.8-1.68-6.42-4.83-10.88-9.38-13.24-7.72-4-16.94-.63-17-.59a.84.84,0,0,1-1.07-.49.82.82,0,0,1,.49-1.06c.4-.15,10-3.66,18.37.68,5,2.58,8.42,7.39,10.22,14.29,6.08,23.22,8.54,29.56,17,33.73,8.86,4.34,16.08,14.92,16.08,23.57A.83.83,0,0,1,1056.17,742.92Z"/><path class="b92c094e-6e01-4976-8ced-26db761fe106" d="M1430,358.5c-53.09,12.6-107.7,52.85-107.32,112.05.33,50.34,55.71,71.35,89.72,80.44a40.22,40.22,0,0,1,23.12,16.64c13,19.58,41.76,53,79.19,37a2.85,2.85,0,0,0-.94-5.44c-9.41-.67-22.54-3.5-30.61-13.3-11-13.36-4.2-33.65,12.44-38.35,31.48-8.9,92-35.94,93.1-112.37C1590.13,331.85,1430,358.5,1430,358.5Z"/><path class="ed093d89-c4f1-494e-9874-068904520bc2" d="M1452,443.51s6.32-33.9,39.77-24.46c31.69,8.95,16.44,52-32.18,75a18,18,0,0,1-16.51-.59c-19-10.72-62.83-40.22-33.41-71.14C1428.66,402.37,1452,443.51,1452,443.51Z"/><path class="b92c094e-6e01-4976-8ced-26db761fe106" d="M1311.84,956.09l-4,1.88a1.15,1.15,0,1,1-1-2.07h0l4-1.8h0a1.1,1.1,0,0,1,.92,2Z"/><path class="b92c094e-6e01-4976-8ced-26db761fe106" d="M1287.54,966.73l-4.11,1.64a1.4,1.4,0,0,1-1-2.6h0l4.12-1.55h0a1.35,1.35,0,0,1,1,2.52Z"/><path class="b92c094e-6e01-4976-8ced-26db761fe106" d="M1262.7,976l-4.18,1.43a1.62,1.62,0,1,1-1-3.06h0l4.18-1.37a1.59,1.59,0,0,1,1,3Z"/><path class="b92c094e-6e01-4976-8ced-26db761fe106" d="M1237.48,984.22l-4.23,1.28a1.81,1.81,0,1,1-1-3.46h0l4.22-1.21a1.77,1.77,0,0,1,1,3.4Z"/><path class="b92c094e-6e01-4976-8ced-26db761fe106" d="M1212,991.56l-4.26,1.15a2,2,0,1,1-1-3.85h0l4.26-1.08a2,2,0,0,1,1,3.79Z"/><path class="b92c094e-6e01-4976-8ced-26db761fe106" d="M1186.32,998.18l-4.29,1a2.18,2.18,0,1,1-1-4.24h0l4.29-1a2.15,2.15,0,0,1,1,4.19Z"/><path class="b92c094e-6e01-4976-8ced-26db761fe106" d="M1160.49,1004.14l-4.32.94a2.37,2.37,0,1,1-1-4.64h0l4.31-.87a2.34,2.34,0,0,1,1,4.58Z"/><path class="b92c094e-6e01-4976-8ced-26db761fe106" d="M1134.52,1009.5l-4.34.83a2.52,2.52,0,0,1-1-4.94h0l4.33-.79a2.5,2.5,0,0,1,.93,4.91Z"/><path class="b92c094e-6e01-4976-8ced-26db761fe106" d="M1108.44,1014.28l-4.36.74a2.63,2.63,0,0,1-.89-5.19h0l4.35-.71a2.62,2.62,0,0,1,.87,5.16Z"/><path class="b92c094e-6e01-4976-8ced-26db761fe106" d="M1082.27,1018.55l-4.37.67a2.75,2.75,0,0,1-.82-5.43h0l4.36-.62a2.72,2.72,0,0,1,.8,5.39Z"/><path class="b92c094e-6e01-4976-8ced-26db761fe106" d="M1056,1022.35l-4.38.59a2.86,2.86,0,1,1-.76-5.67h0l4.37-.55a2.84,2.84,0,0,1,.74,5.64Z"/><path class="b92c094e-6e01-4976-8ced-26db761fe106" d="M1029.74,1025.69l-4.39.51a3,3,0,1,1-.69-5.91h0l4.37-.48a3,3,0,0,1,.67,5.88Z"/><path class="b92c094e-6e01-4976-8ced-26db761fe106" d="M1003.39,1028.58l-4.4.44a3.09,3.09,0,0,1-.61-6.15h0l4.38-.39a3.07,3.07,0,0,1,.59,6.11Z"/><path class="b92c094e-6e01-4976-8ced-26db761fe106" d="M977,1031l-4.41.37a3.21,3.21,0,1,1-.53-6.39h0l4.39-.32A3.19,3.19,0,0,1,977,1031Z"/><path class="b92c094e-6e01-4976-8ced-26db761fe106" d="M950.56,1033.05l-4.41.29a3.32,3.32,0,1,1-.44-6.63h0l4.39-.26a3.31,3.31,0,0,1,.42,6.6Z"/><path class="b92c094e-6e01-4976-8ced-26db761fe106" d="M924.09,1034.59l-4.42.21a3.39,3.39,0,0,1-.32-6.78h0l4.4-.2a3.39,3.39,0,0,1,.32,6.77Z"/><path class="b92c094e-6e01-4976-8ced-26db761fe106" d="M897.59,1035.64l-4.42.13a3.43,3.43,0,0,1-.21-6.86h0l4.4-.12a3.43,3.43,0,1,1,.21,6.85Z"/><path class="b92c094e-6e01-4976-8ced-26db761fe106" d="M871.07,1036.24l-4.42,0a3.47,3.47,0,1,1-.09-6.94h0l4.4,0a3.47,3.47,0,0,1,.09,6.93Z"/><path class="b92c094e-6e01-4976-8ced-26db761fe106" d="M844.54,1036.37l-4.42,0a3.51,3.51,0,1,1,0-7h0l4.4,0a3.51,3.51,0,0,1,0,7Z"/><path class="b92c094e-6e01-4976-8ced-26db761fe106" d="M818,1036l-4.42-.1a3.55,3.55,0,1,1,.17-7.09h0l4.39.12h0A3.54,3.54,0,1,1,818,1036Z"/><path class="b92c094e-6e01-4976-8ced-26db761fe106" d="M791.47,1035.15l-4.41-.19a3.58,3.58,0,1,1,.31-7.16h0l4.4.21h0a3.57,3.57,0,0,1-.33,7.14Z"/><path class="b92c094e-6e01-4976-8ced-26db761fe106" d="M765,1033.77l-4.41-.29a3.62,3.62,0,1,1,.46-7.23h0l4.39.29h0a3.62,3.62,0,0,1-.48,7.22Z"/><path class="b92c094e-6e01-4976-8ced-26db761fe106" d="M738.49,1031.82l-4.41-.38a3.66,3.66,0,0,1,.63-7.29h0l4.38.39h0a3.65,3.65,0,0,1-.64,7.28Z"/><path class="b92c094e-6e01-4976-8ced-26db761fe106" d="M712.06,1029.28l-4.4-.48a3.7,3.7,0,1,1,.8-7.36h0l4.37.49h0a3.69,3.69,0,0,1-.81,7.34Z"/><path class="b92c094e-6e01-4976-8ced-26db761fe106" d="M685.69,1026.1l-4.39-.6a3.73,3.73,0,1,1,1-7.4h0l4.35.61h0a3.73,3.73,0,0,1-1,7.39Z"/><path class="b92c094e-6e01-4976-8ced-26db761fe106" d="M659.4,1022.23l-4.37-.71a3.77,3.77,0,1,1,1.22-7.45h0l4.33.72h0a3.77,3.77,0,1,1-1.23,7.43Z"/><path class="b92c094e-6e01-4976-8ced-26db761fe106" d="M633.23,1017.59l-4.35-.86a3.77,3.77,0,0,1,1.46-7.4h0l4.31.84h0a3.77,3.77,0,1,1-1.44,7.41Z"/><path class="b92c094e-6e01-4976-8ced-26db761fe106" d="M607.22,1012.08l-4.32-1a3.73,3.73,0,1,1,1.69-7.27h0l4.28,1h0a3.74,3.74,0,1,1-1.67,7.29Z"/><path class="b92c094e-6e01-4976-8ced-26db761fe106" d="M581.39,1005.66l-4.28-1.16a3.7,3.7,0,0,1,1.93-7.14h0l4.24,1.14h0a3.7,3.7,0,0,1-1.92,7.15Z"/><path class="b92c094e-6e01-4976-8ced-26db761fe106" d="M555.82,998.24l-4.23-1.34a3.66,3.66,0,1,1,2.21-7h0l4.19,1.31h0a3.66,3.66,0,1,1-2.19,7Z"/><path class="b92c094e-6e01-4976-8ced-26db761fe106" d="M530.59,989.7l-4.17-1.54a3.62,3.62,0,1,1,2.52-6.79h0l4.12,1.51h0a3.63,3.63,0,1,1-2.49,6.81Z"/><path class="b92c094e-6e01-4976-8ced-26db761fe106" d="M505.8,979.9l-4.07-1.77a3.58,3.58,0,1,1,2.85-6.57h0l4,1.72,0,0a3.59,3.59,0,0,1-2.83,6.59Z"/><path class="b92c094e-6e01-4976-8ced-26db761fe106" d="M481.61,968.67l-4-2a3.55,3.55,0,0,1,3.23-6.32l0,0,3.89,2,0,0a3.56,3.56,0,1,1-3.22,6.34Z"/><path class="b92c094e-6e01-4976-8ced-26db761fe106" d="M458.18,955.83l-3.8-2.31a3.51,3.51,0,0,1,3.64-6l0,0,3.73,2.25,0,0a3.51,3.51,0,1,1-3.63,6Z"/><path class="b92c094e-6e01-4976-8ced-26db761fe106" d="M435.81,941.17l-3.6-2.64a3.47,3.47,0,1,1,4.1-5.6l0,0,3.52,2.56.05,0a3.48,3.48,0,1,1-4.09,5.63Z"/><path class="b92c094e-6e01-4976-8ced-26db761fe106" d="M414.84,924.48l-3.32-3a3.44,3.44,0,1,1,4.6-5.11l0,0,3.23,2.89.05,0a3.45,3.45,0,0,1-4.59,5.14Z"/><path class="b92c094e-6e01-4976-8ced-26db761fe106" d="M395.76,905.61l-3-3.36a3.4,3.4,0,1,1,5.1-4.49l0,0,2.87,3.24.05.06a3.4,3.4,0,0,1-5.1,4.51Z"/><path class="b92c094e-6e01-4976-8ced-26db761fe106" d="M379.11,884.5l-2.48-3.73a3.34,3.34,0,0,1,5.54-3.73l0,.07,2.43,3.58.05.07a3.36,3.36,0,0,1-5.56,3.77Z"/><path class="b92c094e-6e01-4976-8ced-26db761fe106" d="M365.55,861.27l-1.93-4a3.22,3.22,0,0,1,5.81-2.8l0,.07,1.89,3.89,0,.07a3.25,3.25,0,0,1-5.84,2.85Z"/><path class="b92c094e-6e01-4976-8ced-26db761fe106" d="M355.48,836.32,354.17,832a3.12,3.12,0,0,1,5.95-1.86l0,.08,1.31,4.12,0,.07a3.14,3.14,0,1,1-6,1.89Z"/><path class="b92c094e-6e01-4976-8ced-26db761fe106" d="M349.15,810.2l-.69-4.42a3,3,0,0,1,5.93-.95v.06l.71,4.28v.07a3,3,0,0,1-6,1Z"/><path class="b92c094e-6e01-4976-8ced-26db761fe106" d="M346.46,783.51l-.11-4.46a2.89,2.89,0,0,1,5.78-.17v.06l.15,4.34v.06a2.91,2.91,0,1,1-5.81.2Z"/><path class="b92c094e-6e01-4976-8ced-26db761fe106" d="M347.09,756.75l.4-4.44a2.78,2.78,0,0,1,5.54.47v.05l-.35,4.34v.05a2.8,2.8,0,0,1-5.58-.45Z"/><path class="b92c094e-6e01-4976-8ced-26db761fe106" d="M350.6,730.25l.83-4.37a2.66,2.66,0,0,1,5.24,1v0l-.78,4.29v0a2.69,2.69,0,0,1-5.29-1Z"/><path class="b92c094e-6e01-4976-8ced-26db761fe106" d="M356.52,704.24l1.19-4.27a2.55,2.55,0,0,1,4.92,1.35v0l-1.13,4.22v0a2.57,2.57,0,1,1-5-1.34Z"/><path class="b92c094e-6e01-4976-8ced-26db761fe106" d="M364.44,678.81l1.49-4.17a2.44,2.44,0,0,1,4.6,1.61v0l-1.43,4.14v0a2.46,2.46,0,1,1-4.65-1.61Z"/><path class="b92c094e-6e01-4976-8ced-26db761fe106" d="M374.08,654l1.75-4.08A2.25,2.25,0,0,1,380,651.7v0l-1.67,4.06v0a2.28,2.28,0,1,1-4.22-1.75Z"/><path class="b92c094e-6e01-4976-8ced-26db761fe106" d="M385.11,629.85l1.95-4a2.07,2.07,0,0,1,3.73,1.8v0l-1.88,4v0a2.1,2.1,0,1,1-3.79-1.81Z"/><path class="b92c094e-6e01-4976-8ced-26db761fe106" d="M397.29,606.26l2.13-3.88a1.89,1.89,0,0,1,3.32,1.79v0l-2.06,3.88h0a1.91,1.91,0,1,1-3.38-1.8Z"/><path class="b92c094e-6e01-4976-8ced-26db761fe106" d="M410.45,583.22l2.28-3.79a1.7,1.7,0,0,1,2.92,1.75l-2.21,3.8a1.74,1.74,0,0,1-3-1.73Z"/><path class="b92c094e-6e01-4976-8ced-26db761fe106" d="M424.45,560.7l2.4-3.7a1.51,1.51,0,0,1,2.55,1.63l-2.34,3.73a1.55,1.55,0,0,1-2.63-1.64Z"/><path class="b92c094e-6e01-4976-8ced-26db761fe106" d="M439.2,538.69l2.52-3.63a1.28,1.28,0,0,1,1.77-.31,1.26,1.26,0,0,1,.32,1.75l-2.44,3.66a1.31,1.31,0,0,1-2.19-1.45Z"/><path class="b92c094e-6e01-4976-8ced-26db761fe106" d="M772.36,310.94l3.09-3.18a2.18,2.18,0,0,1,3.12,3.05h0L775.46,314l0,0a2.16,2.16,0,0,1-3.08-3Z"/><path class="b92c094e-6e01-4976-8ced-26db761fe106" d="M791.3,292.29l3.24-3a2.29,2.29,0,0,1,3.12,3.36h0l-3.24,3h0a2.27,2.27,0,0,1-3.08-3.34Z"/><path class="b92c094e-6e01-4976-8ced-26db761fe106" d="M811.12,274.59l3.39-2.86a2.4,2.4,0,0,1,3.09,3.67h0l-3.38,2.81h0a2.38,2.38,0,0,1-3.06-3.65Z"/><path class="b92c094e-6e01-4976-8ced-26db761fe106" d="M831.77,257.85l3.52-2.69a2.51,2.51,0,1,1,3.05,4h0v0l-3.51,2.64h0a2.49,2.49,0,0,1-3-4Z"/><path class="b92c094e-6e01-4976-8ced-26db761fe106" d="M853.19,242.1l3.63-2.53a2.62,2.62,0,1,1,3,4.3h0l-3.63,2.48h0a2.6,2.6,0,0,1-2.95-4.28Z"/><path class="b92c094e-6e01-4976-8ced-26db761fe106" d="M875.3,227.34l3.75-2.36A2.73,2.73,0,0,1,882,229.6h0l-3.73,2.31h0a2.71,2.71,0,0,1-2.87-4.6Z"/><path class="b92c094e-6e01-4976-8ced-26db761fe106" d="M898.06,213.6l3.86-2.19a2.83,2.83,0,1,1,2.8,4.93h0l-3.83,2.14h0a2.82,2.82,0,0,1-2.77-4.91Z"/><path class="b92c094e-6e01-4976-8ced-26db761fe106" d="M921.42,200.88l4-2a2.95,2.95,0,1,1,2.68,5.25h0l-3.92,2h0a2.93,2.93,0,0,1-2.65-5.23Z"/><path class="b92c094e-6e01-4976-8ced-26db761fe106" d="M945.33,189.21l4-1.84a3.06,3.06,0,1,1,2.54,5.56h0l-4,1.79h0a3,3,0,0,1-2.5-5.54Z"/><path class="b92c094e-6e01-4976-8ced-26db761fe106" d="M969.73,178.61l4.11-1.65a3.16,3.16,0,0,1,2.35,5.86h0l-4.08,1.62h0a3.15,3.15,0,0,1-2.33-5.85Z"/><path class="b92c094e-6e01-4976-8ced-26db761fe106" d="M994.61,169.19l4.18-1.47a3.18,3.18,0,0,1,2.1,6h0l-4.14,1.44h0a3.17,3.17,0,1,1-2.08-6Z"/><path class="b92c094e-6e01-4976-8ced-26db761fe106" d="M1019.89,160.88l4.24-1.27a3.2,3.2,0,1,1,1.84,6.13h0l-4.2,1.25h0a3.2,3.2,0,1,1-1.83-6.13Z"/><path class="b92c094e-6e01-4976-8ced-26db761fe106" d="M1045.52,153.73l4.3-1.07a3.23,3.23,0,1,1,1.57,6.26h0L1047.1,160h0a3.23,3.23,0,0,1-1.56-6.26Z"/><path class="b92c094e-6e01-4976-8ced-26db761fe106" d="M1071.46,147.78l4.35-.87a3.25,3.25,0,1,1,1.28,6.37h0l-4.3.85h0a3.25,3.25,0,0,1-1.27-6.37Z"/><path class="b92c094e-6e01-4976-8ced-26db761fe106" d="M1097.67,143.07l4.38-.66a3.28,3.28,0,1,1,1,6.48h0l-4.34.65h0a3.27,3.27,0,0,1-1-6.47Z"/><path class="b92c094e-6e01-4976-8ced-26db761fe106" d="M1124.07,139.65l4.42-.44a3.3,3.3,0,0,1,.66,6.57h0l-4.36.42h0a3.3,3.3,0,0,1-.65-6.56Z"/><path class="b92c094e-6e01-4976-8ced-26db761fe106" d="M1150.63,137.6l4.44-.21a3.32,3.32,0,1,1,.31,6.64h0l-4.38.19h0a3.32,3.32,0,0,1-.3-6.63Z"/><path class="b92c094e-6e01-4976-8ced-26db761fe106" d="M1177.28,137l4.44,0a3.35,3.35,0,0,1-.06,6.7h0l-4.38-.05h0a3.35,3.35,0,1,1,.07-6.69Z"/><path class="b92c094e-6e01-4976-8ced-26db761fe106" d="M1203.92,137.86l4.44.3a3.37,3.37,0,0,1-.46,6.73h0l-4.37-.31h0a3.37,3.37,0,1,1,.46-6.72Z"/><path class="b92c094e-6e01-4976-8ced-26db761fe106" d="M1230.47,140.33l4.4.56a3.39,3.39,0,0,1-.85,6.73h0l-4.35-.55h0a3.39,3.39,0,0,1,.86-6.73Z"/><path class="b92c094e-6e01-4976-8ced-26db761fe106" d="M1256.82,144.23l4.37.78a3.4,3.4,0,0,1-1.2,6.7h0l-4.31-.78h0a3.4,3.4,0,1,1,1.2-6.7Z"/><path class="b92c094e-6e01-4976-8ced-26db761fe106" d="M1282.94,149.5l4.32,1a3.41,3.41,0,1,1-1.55,6.65h0l-4.26-1h0a3.41,3.41,0,0,1,1.56-6.64Z"/><path class="b92c094e-6e01-4976-8ced-26db761fe106" d="M1308.74,156.16l4.27,1.24a3.43,3.43,0,0,1-1.92,6.58h0l-4.2-1.23h0a3.42,3.42,0,0,1,1.92-6.57Z"/><path class="b92c094e-6e01-4976-8ced-26db761fe106" d="M1334.15,164.21l4.19,1.48a3.44,3.44,0,1,1-2.29,6.48h0l-4.13-1.46h0a3.44,3.44,0,0,1,2.29-6.48Z"/><path class="b92c094e-6e01-4976-8ced-26db761fe106" d="M1359.08,173.65l4.1,1.71a3.44,3.44,0,0,1-2.64,6.36h0l-4-1.69h0a3.45,3.45,0,1,1,2.65-6.36Z"/><path class="b92c094e-6e01-4976-8ced-26db761fe106" d="M1383.45,184.43l4,1.92a3.46,3.46,0,1,1-3,6.24h0l0,0-4-1.9h0a3.46,3.46,0,1,1,3-6.23Z"/><path class="b92c094e-6e01-4976-8ced-26db761fe106" d="M1407.21,196.5l3.9,2.13a3.47,3.47,0,0,1-3.33,6.09h0l-3.84-2.11h0a3.47,3.47,0,0,1,3.33-6.08Z"/><path class="b92c094e-6e01-4976-8ced-26db761fe106" d="M1430.31,209.77l3.78,2.33a3.48,3.48,0,1,1-3.64,5.93h0l0,0-3.73-2.3h0a3.48,3.48,0,0,1,3.65-5.93Z"/><path class="b92c094e-6e01-4976-8ced-26db761fe106" d="M1452.71,224.18l3.67,2.5a3.49,3.49,0,0,1-3.94,5.77h0L1448.8,230h0a3.49,3.49,0,0,1,3.93-5.76Z"/><path class="b92c094e-6e01-4976-8ced-26db761fe106" d="M1474.41,239.61l3.55,2.66a3.5,3.5,0,0,1-4.21,5.6h0l-3.51-2.64,0,0a3.5,3.5,0,0,1,4.21-5.59Z"/><path class="b92c094e-6e01-4976-8ced-26db761fe106" d="M1495.4,256l3.43,2.81a3.51,3.51,0,0,1-4.45,5.43h0l-3.39-2.79h0a3.51,3.51,0,1,1,4.45-5.43Z"/><path class="b92c094e-6e01-4976-8ced-26db761fe106" d="M1515.71,273.16l3.31,2.94a3.52,3.52,0,1,1-4.67,5.27h0l-3.29-2.92h0a3.52,3.52,0,0,1,4.68-5.27Z"/><path class="b92c094e-6e01-4976-8ced-26db761fe106" d="M1535.35,291.07l3.22,3.05a3.54,3.54,0,1,1-4.87,5.13h0l-3.19-3h0a3.53,3.53,0,0,1,4.86-5.13Z"/><path class="b92c094e-6e01-4976-8ced-26db761fe106" d="M1554.39,309.62l3.12,3.15a3.55,3.55,0,0,1-5,5h0l0,0-3.09-3.12h0a3.55,3.55,0,0,1,5-5Z"/><path class="b92c094e-6e01-4976-8ced-26db761fe106" d="M1572.86,328.71l3,3.23a3.56,3.56,0,1,1-5.19,4.87h0l-3-3.21h0a3.55,3.55,0,1,1,5.18-4.86Z"/><path class="b92c094e-6e01-4976-8ced-26db761fe106" d="M1590.84,348.25l3,3.3a3.57,3.57,0,1,1-5.32,4.76h0l-2.93-3.28h0a3.57,3.57,0,0,1,5.32-4.76Z"/><path class="b92c094e-6e01-4976-8ced-26db761fe106" d="M1608.38,368.17l2.88,3.35a3.58,3.58,0,0,1-5.42,4.67h0l-2.87-3.34a3.58,3.58,0,0,1,5.42-4.67Z"/><path class="b92c094e-6e01-4976-8ced-26db761fe106" d="M1625.56,388.37l2.83,3.39a3.59,3.59,0,1,1-5.5,4.6h0l-2.82-3.38a3.59,3.59,0,1,1,5.5-4.61Z"/><path class="b92c094e-6e01-4976-8ced-26db761fe106" d="M1642.47,408.79l2.79,3.41a3.6,3.6,0,1,1-5.57,4.56h0l-2.79-3.42a3.6,3.6,0,1,1,5.57-4.55Z"/><path class="b92c094e-6e01-4976-8ced-26db761fe106" d="M1659.19,429.33l2.77,3.44a3.61,3.61,0,0,1-5.61,4.54h0l-2.77-3.43a3.61,3.61,0,0,1,5.62-4.54Z"/><path class="b92c094e-6e01-4976-8ced-26db761fe106" d="M1675.82,449.93l2.77,3.43a3.62,3.62,0,1,1-5.63,4.55h0l-2.77-3.44a3.62,3.62,0,1,1,5.64-4.54Z"/><path class="b92c094e-6e01-4976-8ced-26db761fe106" d="M1692.47,470.48l2.79,3.42a3.64,3.64,0,0,1-5.63,4.6h0l-2.79-3.42a3.63,3.63,0,0,1,5.63-4.59Z"/><path class="b92c094e-6e01-4976-8ced-26db761fe106" d="M1709.27,490.89l2.82,3.38a3.64,3.64,0,0,1-5.58,4.69h0l-2.83-3.4a3.64,3.64,0,1,1,5.6-4.66Z"/><path class="b92c094e-6e01-4976-8ced-26db761fe106" d="M1726.35,511l2.88,3.31v0a3.65,3.65,0,1,1-5.51,4.79h0l-2.91-3.34a3.65,3.65,0,0,1,5.52-4.79Z"/><path class="b92c094e-6e01-4976-8ced-26db761fe106" d="M1743.88,530.71l3,3.22v0a3.67,3.67,0,0,1-5.39,5h0l-3-3.26a3.66,3.66,0,1,1,5.38-5Z"/><path class="b92c094e-6e01-4976-8ced-26db761fe106" d="M1762,549.75l3.11,3.09,0,0a3.67,3.67,0,0,1-5.18,5.21h0l-3.14-3.14a3.67,3.67,0,1,1,5.19-5.2Z"/><path class="b92c094e-6e01-4976-8ced-26db761fe106" d="M1781.07,567.84l3.27,2.9,0,0a3.69,3.69,0,1,1-4.89,5.52h0l-3.33-3a3.68,3.68,0,0,1,4.89-5.51Z"/><path class="b92c094e-6e01-4976-8ced-26db761fe106" d="M1801.19,584.6l3.48,2.62,0,0a3.7,3.7,0,0,1-4.45,5.9h0l-3.56-2.7a3.69,3.69,0,1,1,4.46-5.89Z"/><path class="b92c094e-6e01-4976-8ced-26db761fe106" d="M1822.63,599.44l3.72,2.24.06,0a3.71,3.71,0,1,1-3.83,6.35h0l-3.84-2.32a3.7,3.7,0,1,1,3.83-6.34Z"/><path class="b92c094e-6e01-4976-8ced-26db761fe106" d="M1845.55,611.64l4,1.72.09,0a3.72,3.72,0,1,1-3,6.82h0l-4.13-1.79a3.72,3.72,0,1,1,3-6.82Z"/><path class="b92c094e-6e01-4976-8ced-26db761fe106" d="M1869.89,620.34l4.17,1,.11,0a3.73,3.73,0,0,1-1.83,7.23h0l-4.38-1.11a3.73,3.73,0,1,1,1.83-7.23Z"/><path class="b92c094e-6e01-4976-8ced-26db761fe106" d="M1895.27,624.79l4.29.3h.11a3.74,3.74,0,0,1-.52,7.47h0l-4.51-.32a3.74,3.74,0,0,1,.52-7.46Z"/><path class="b92c094e-6e01-4976-8ced-26db761fe106" d="M1920.58,624.09l4-1,.25-.06a3.75,3.75,0,1,1,1.74,7.3h0l-4.54,1.08a3.75,3.75,0,1,1-1.74-7.3Z"/><path class="b92c094e-6e01-4976-8ced-26db761fe106" d="M1943.57,614.5l3.46-2.39.17-.12a3.76,3.76,0,0,1,4.27,6.2h0l-3.81,2.62a3.76,3.76,0,0,1-4.26-6.2Z"/><path class="b92c094e-6e01-4976-8ced-26db761fe106" d="M1962.4,597.65l2.67-3.3.1-.13a3.77,3.77,0,0,1,5.88,4.73h0l-2.88,3.56a3.77,3.77,0,0,1-5.87-4.74Z"/><path class="b92c094e-6e01-4976-8ced-26db761fe106" d="M1976.24,576.27l1.79-3.87.06-.14a3.79,3.79,0,0,1,6.87,3.18h0l-1.92,4.13a3.78,3.78,0,0,1-6.86-3.18Z"/><path class="b92c094e-6e01-4976-8ced-26db761fe106" d="M1984.62,552.19l.82-4.17,0-.16a3.75,3.75,0,0,1,7.37,1.42l-.86,4.49a3.76,3.76,0,1,1-7.39-1.41h0Z"/><path class="b92c094e-6e01-4976-8ced-26db761fe106" d="M1986.67,526.8l-.19-4.31v-.09a3.69,3.69,0,0,1,7.37-.36l.23,4.5a3.7,3.7,0,1,1-7.39.37v-.11Z"/><path class="b92c094e-6e01-4976-8ced-26db761fe106" d="M1984.3,500.85l-.63-4.32v0a3.54,3.54,0,0,1,7-1.06l.7,4.4a3.56,3.56,0,0,1-7,1.11v-.09Z"/><path class="b92c094e-6e01-4976-8ced-26db761fe106" d="M1979.81,475l-.88-4.29v0a3.32,3.32,0,0,1,6.48-1.41l1,4.32a3.37,3.37,0,0,1-6.57,1.53V475Z"/><path class="b92c094e-6e01-4976-8ced-26db761fe106" d="M1974,449.39l-1.11-4.24v0a3,3,0,0,1,5.73-1.58l1.23,4.27a3,3,0,1,1-5.82,1.68v-.1Z"/><path class="b92c094e-6e01-4976-8ced-26db761fe106" d="M1966.72,424.09l-1.34-4.17v0a2.63,2.63,0,0,1,5-1.67l1.46,4.18a2.69,2.69,0,1,1-5.07,1.78l0-.05Z"/><path class="b92c094e-6e01-4976-8ced-26db761fe106" d="M1958.09,399.25l-1.61-4.07v0a2.12,2.12,0,0,1,3.9-1.64l1.81,4.06a2.21,2.21,0,0,1-4,1.8l0-.08Z"/><path class="b92c094e-6e01-4976-8ced-26db761fe106" d="M1947.3,375.37l-2.13-3.8,0-.05a1.5,1.5,0,0,1,2.57-1.55l2.41,3.77a1.63,1.63,0,1,1-2.74,1.76l-.05-.08Z"/><polygon class="a9c3c168-9d86-49a2-88c7-f6bdaa1b69c3" points="573.14 421.03 576.83 448.6 593.91 434.25 573.14 421.03"/><path class="a9b27034-f7aa-48d2-bb62-0f3f627902b2" d="M695,388.62l-65.72,75.27a7,7,0,0,1-10.13.49l-73.08-68.83a2.81,2.81,0,0,1,1.89-4.87Z"/><polygon class="a9c3c168-9d86-49a2-88c7-f6bdaa1b69c3" points="573.15 421.03 695 388.63 584.91 432.18 585.61 439.86 573.15 421.03"/><polygon class="a9c3c168-9d86-49a2-88c7-f6bdaa1b69c3" points="591.93 438.73 576.83 448.6 584.91 432.18 591.93 438.73"/><polygon class="a9c3c168-9d86-49a2-88c7-f6bdaa1b69c3" points="1930.53 315.72 1909.9 344.92 1898.99 318.4 1930.53 315.72"/><path class="a9b27034-f7aa-48d2-bb62-0f3f627902b2" d="M1811,206.22l30,124.87a9.05,9.05,0,0,0,11.24,6.6l124.23-34.87a3.62,3.62,0,0,0,.75-6.68Z"/><polygon class="a9c3c168-9d86-49a2-88c7-f6bdaa1b69c3" points="1930.51 315.71 1811.04 206.22 1910.48 321.4 1905.11 329.74 1930.51 315.71"/><polygon class="a9c3c168-9d86-49a2-88c7-f6bdaa1b69c3" points="1898.58 324.68 1909.9 344.92 1910.48 321.4 1898.58 324.68"/></g></g></svg>